%TF.GenerationSoftware,KiCad,Pcbnew,(5.1.9)-1*%
%TF.CreationDate,2021-04-18T19:10:53+08:00*%
%TF.ProjectId,ISOISOISO,49534f49-534f-4495-934f-2e6b69636164,rev?*%
%TF.SameCoordinates,Original*%
%TF.FileFunction,Copper,L1,Top*%
%TF.FilePolarity,Positive*%
%FSLAX46Y46*%
G04 Gerber Fmt 4.6, Leading zero omitted, Abs format (unit mm)*
G04 Created by KiCad (PCBNEW (5.1.9)-1) date 2021-04-18 19:10:53*
%MOMM*%
%LPD*%
G01*
G04 APERTURE LIST*
%TA.AperFunction,ComponentPad*%
%ADD10C,1.752600*%
%TD*%
%TA.AperFunction,ComponentPad*%
%ADD11R,1.752600X1.752600*%
%TD*%
%TA.AperFunction,ComponentPad*%
%ADD12C,2.250000*%
%TD*%
%TA.AperFunction,Conductor*%
%ADD13C,0.250000*%
%TD*%
%TA.AperFunction,Conductor*%
%ADD14C,0.254000*%
%TD*%
%TA.AperFunction,Conductor*%
%ADD15C,0.100000*%
%TD*%
G04 APERTURE END LIST*
D10*
%TO.P,U1,24*%
%TO.N,Net-(U1-Pad24)*%
X32067500Y-33655000D03*
%TO.P,U1,12*%
%TO.N,SW8*%
X60007500Y-48895000D03*
%TO.P,U1,23*%
%TO.N,GND*%
X34607500Y-33655000D03*
%TO.P,U1,22*%
%TO.N,Net-(U1-Pad22)*%
X37147500Y-33655000D03*
%TO.P,U1,21*%
%TO.N,Net-(U1-Pad21)*%
X39687500Y-33655000D03*
%TO.P,U1,20*%
%TO.N,Net-(U1-Pad20)*%
X42227500Y-33655000D03*
%TO.P,U1,19*%
%TO.N,Net-(U1-Pad19)*%
X44767500Y-33655000D03*
%TO.P,U1,18*%
%TO.N,Net-(U1-Pad18)*%
X47307500Y-33655000D03*
%TO.P,U1,17*%
%TO.N,Net-(U1-Pad17)*%
X49847500Y-33655000D03*
%TO.P,U1,16*%
%TO.N,SW1*%
X52387500Y-33655000D03*
%TO.P,U1,15*%
%TO.N,SW4*%
X54927500Y-33655000D03*
%TO.P,U1,14*%
%TO.N,SW3*%
X57467500Y-33655000D03*
%TO.P,U1,13*%
%TO.N,SW2*%
X60007500Y-33655000D03*
%TO.P,U1,11*%
%TO.N,SW7*%
X57467500Y-48895000D03*
%TO.P,U1,10*%
%TO.N,SW6*%
X54927500Y-48895000D03*
%TO.P,U1,9*%
%TO.N,SW5*%
X52387500Y-48895000D03*
%TO.P,U1,8*%
%TO.N,Net-(U1-Pad8)*%
X49847500Y-48895000D03*
%TO.P,U1,7*%
%TO.N,Net-(U1-Pad7)*%
X47307500Y-48895000D03*
%TO.P,U1,6*%
%TO.N,Net-(U1-Pad6)*%
X44767500Y-48895000D03*
%TO.P,U1,5*%
%TO.N,Net-(U1-Pad5)*%
X42227500Y-48895000D03*
%TO.P,U1,4*%
%TO.N,GND*%
X39687500Y-48895000D03*
%TO.P,U1,3*%
X37147500Y-48895000D03*
%TO.P,U1,2*%
%TO.N,Net-(U1-Pad2)*%
X34607500Y-48895000D03*
D11*
%TO.P,U1,1*%
%TO.N,Net-(U1-Pad1)*%
X32067500Y-48895000D03*
%TD*%
D12*
%TO.P,MX8,1*%
%TO.N,SW8*%
X121602500Y-75565000D03*
%TO.P,MX8,2*%
%TO.N,GND*%
X124142500Y-81915000D03*
%TD*%
%TO.P,MX7,1*%
%TO.N,SW4*%
X121602500Y-37465000D03*
%TO.P,MX7,2*%
%TO.N,GND*%
X124142500Y-43815000D03*
%TD*%
%TO.P,MX6,1*%
%TO.N,SW7*%
X87947500Y-83185000D03*
%TO.P,MX6,2*%
%TO.N,GND*%
X85407500Y-76835000D03*
%TD*%
%TO.P,MX5,1*%
%TO.N,SW3*%
X87947500Y-45085000D03*
%TO.P,MX5,2*%
%TO.N,GND*%
X85407500Y-38735000D03*
%TD*%
%TO.P,MX4,1*%
%TO.N,SW6*%
X69215000Y-75565000D03*
%TO.P,MX4,2*%
%TO.N,GND*%
X71755000Y-81915000D03*
%TD*%
%TO.P,MX3,1*%
%TO.N,SW2*%
X69215000Y-37465000D03*
%TO.P,MX3,2*%
%TO.N,GND*%
X71755000Y-43815000D03*
%TD*%
%TO.P,MX2,1*%
%TO.N,SW5*%
X35560000Y-83185000D03*
%TO.P,MX2,2*%
%TO.N,GND*%
X33020000Y-76835000D03*
%TD*%
%TO.P,MX1,1*%
%TO.N,SW1*%
X35560000Y-45085000D03*
%TO.P,MX1,2*%
%TO.N,GND*%
X33020000Y-38735000D03*
%TD*%
D13*
%TO.N,SW1*%
X40957500Y-45085000D02*
X52387500Y-33655000D01*
X35560000Y-45085000D02*
X40957500Y-45085000D01*
%TO.N,SW5*%
X35560000Y-67439974D02*
X52387500Y-50612474D01*
X52387500Y-50612474D02*
X52387500Y-48895000D01*
X35560000Y-83185000D02*
X35560000Y-67439974D01*
%TO.N,SW2*%
X63817500Y-37465000D02*
X60007500Y-33655000D01*
X69215000Y-37465000D02*
X63817500Y-37465000D01*
%TO.N,SW6*%
X54927500Y-53152474D02*
X54927500Y-48895000D01*
X69215000Y-67439974D02*
X54927500Y-53152474D01*
X69215000Y-75565000D02*
X69215000Y-67439974D01*
%TO.N,SW3*%
X62768599Y-38956099D02*
X57467500Y-33655000D01*
X81818599Y-38956099D02*
X62768599Y-38956099D01*
X87947500Y-45085000D02*
X81818599Y-38956099D01*
%TO.N,SW7*%
X87947500Y-83185000D02*
X84772500Y-83185000D01*
X84772500Y-83185000D02*
X77787500Y-76200000D01*
X57854522Y-48895000D02*
X57467500Y-48895000D01*
X77787500Y-68827978D02*
X57854522Y-48895000D01*
X77787500Y-76200000D02*
X77787500Y-68827978D01*
%TO.N,SW4*%
X120967500Y-38100000D02*
X121602500Y-37465000D01*
X103187500Y-48418750D02*
X113506250Y-38100000D01*
X113506250Y-38100000D02*
X120967500Y-38100000D01*
X65087500Y-48418750D02*
X103187500Y-48418750D01*
X54927500Y-38258750D02*
X65087500Y-48418750D01*
X54927500Y-33655000D02*
X54927500Y-38258750D01*
%TO.N,SW8*%
X121602500Y-73183750D02*
X121602500Y-75565000D01*
X82550000Y-71437500D02*
X119856250Y-71437500D01*
X119856250Y-71437500D02*
X121602500Y-73183750D01*
X60007500Y-48895000D02*
X82550000Y-71437500D01*
%TD*%
D14*
%TO.N,GND*%
X127133751Y-27466203D02*
X127070170Y-27423719D01*
X126677257Y-27260970D01*
X126260143Y-27178000D01*
X125834857Y-27178000D01*
X125417743Y-27260970D01*
X125024830Y-27423719D01*
X124671218Y-27659996D01*
X124370496Y-27960718D01*
X124134219Y-28314330D01*
X123971470Y-28707243D01*
X123888500Y-29124357D01*
X123888500Y-29549643D01*
X123971470Y-29966757D01*
X124134219Y-30359670D01*
X124370496Y-30713282D01*
X124671218Y-31014004D01*
X125024830Y-31250281D01*
X125417743Y-31413030D01*
X125834857Y-31496000D01*
X126260143Y-31496000D01*
X126677257Y-31413030D01*
X127070170Y-31250281D01*
X127133751Y-31207797D01*
X127133751Y-51342202D01*
X127070170Y-51299719D01*
X126677257Y-51136970D01*
X126260143Y-51054000D01*
X125834857Y-51054000D01*
X125417743Y-51136970D01*
X125024830Y-51299719D01*
X124671218Y-51535996D01*
X124370496Y-51836718D01*
X124134219Y-52190330D01*
X123971470Y-52583243D01*
X123888500Y-53000357D01*
X123888500Y-53425643D01*
X123971470Y-53842757D01*
X124134219Y-54235670D01*
X124370496Y-54589282D01*
X124671218Y-54890004D01*
X125024830Y-55126281D01*
X125417743Y-55289030D01*
X125834857Y-55372000D01*
X126260143Y-55372000D01*
X126677257Y-55289030D01*
X127070170Y-55126281D01*
X127133751Y-55083798D01*
X127133750Y-65566202D01*
X127070170Y-65523719D01*
X126677257Y-65360970D01*
X126260143Y-65278000D01*
X125834857Y-65278000D01*
X125417743Y-65360970D01*
X125024830Y-65523719D01*
X124671218Y-65759996D01*
X124370496Y-66060718D01*
X124134219Y-66414330D01*
X123971470Y-66807243D01*
X123888500Y-67224357D01*
X123888500Y-67649643D01*
X123971470Y-68066757D01*
X124134219Y-68459670D01*
X124370496Y-68813282D01*
X124671218Y-69114004D01*
X125024830Y-69350281D01*
X125417743Y-69513030D01*
X125834857Y-69596000D01*
X126260143Y-69596000D01*
X126677257Y-69513030D01*
X127070170Y-69350281D01*
X127133750Y-69307798D01*
X127133750Y-89442202D01*
X127070170Y-89399719D01*
X126677257Y-89236970D01*
X126260143Y-89154000D01*
X125834857Y-89154000D01*
X125417743Y-89236970D01*
X125024830Y-89399719D01*
X124671218Y-89635996D01*
X124370496Y-89936718D01*
X124134219Y-90290330D01*
X123971470Y-90683243D01*
X123888500Y-91100357D01*
X123888500Y-91525643D01*
X123971470Y-91942757D01*
X124134219Y-92335670D01*
X124370496Y-92689282D01*
X124671218Y-92990004D01*
X125024830Y-93226281D01*
X125417743Y-93389030D01*
X125834857Y-93472000D01*
X126260143Y-93472000D01*
X126677257Y-93389030D01*
X127070170Y-93226281D01*
X127133750Y-93183798D01*
X127133750Y-97765000D01*
X29235000Y-97765000D01*
X29235000Y-92385478D01*
X29437996Y-92689282D01*
X29738718Y-92990004D01*
X30092330Y-93226281D01*
X30485243Y-93389030D01*
X30902357Y-93472000D01*
X31327643Y-93472000D01*
X31744757Y-93389030D01*
X32137670Y-93226281D01*
X32491282Y-92990004D01*
X32792004Y-92689282D01*
X33028281Y-92335670D01*
X33191030Y-91942757D01*
X33274000Y-91525643D01*
X33274000Y-91100357D01*
X33264795Y-91054076D01*
X43726100Y-91054076D01*
X43726100Y-91571924D01*
X43827127Y-92079822D01*
X44025299Y-92558251D01*
X44313000Y-92988826D01*
X44679174Y-93355000D01*
X45109749Y-93642701D01*
X45588178Y-93840873D01*
X46096076Y-93941900D01*
X46613924Y-93941900D01*
X47121822Y-93840873D01*
X47600251Y-93642701D01*
X48030826Y-93355000D01*
X48397000Y-92988826D01*
X48684701Y-92558251D01*
X48882873Y-92079822D01*
X48983900Y-91571924D01*
X48983900Y-91054076D01*
X55791100Y-91054076D01*
X55791100Y-91571924D01*
X55892127Y-92079822D01*
X56090299Y-92558251D01*
X56378000Y-92988826D01*
X56744174Y-93355000D01*
X57174749Y-93642701D01*
X57653178Y-93840873D01*
X58161076Y-93941900D01*
X58678924Y-93941900D01*
X59186822Y-93840873D01*
X59665251Y-93642701D01*
X60095826Y-93355000D01*
X60462000Y-92988826D01*
X60749701Y-92558251D01*
X60947873Y-92079822D01*
X61048900Y-91571924D01*
X61048900Y-91100357D01*
X71501000Y-91100357D01*
X71501000Y-91525643D01*
X71583970Y-91942757D01*
X71746719Y-92335670D01*
X71982996Y-92689282D01*
X72283718Y-92990004D01*
X72637330Y-93226281D01*
X73030243Y-93389030D01*
X73447357Y-93472000D01*
X73872643Y-93472000D01*
X74289757Y-93389030D01*
X74682670Y-93226281D01*
X75036282Y-92990004D01*
X75337004Y-92689282D01*
X75573281Y-92335670D01*
X75736030Y-91942757D01*
X75819000Y-91525643D01*
X75819000Y-91100357D01*
X81343500Y-91100357D01*
X81343500Y-91525643D01*
X81426470Y-91942757D01*
X81589219Y-92335670D01*
X81825496Y-92689282D01*
X82126218Y-92990004D01*
X82479830Y-93226281D01*
X82872743Y-93389030D01*
X83289857Y-93472000D01*
X83715143Y-93472000D01*
X84132257Y-93389030D01*
X84525170Y-93226281D01*
X84878782Y-92990004D01*
X85179504Y-92689282D01*
X85415781Y-92335670D01*
X85578530Y-91942757D01*
X85661500Y-91525643D01*
X85661500Y-91100357D01*
X85652295Y-91054076D01*
X96113600Y-91054076D01*
X96113600Y-91571924D01*
X96214627Y-92079822D01*
X96412799Y-92558251D01*
X96700500Y-92988826D01*
X97066674Y-93355000D01*
X97497249Y-93642701D01*
X97975678Y-93840873D01*
X98483576Y-93941900D01*
X99001424Y-93941900D01*
X99509322Y-93840873D01*
X99987751Y-93642701D01*
X100418326Y-93355000D01*
X100784500Y-92988826D01*
X101072201Y-92558251D01*
X101270373Y-92079822D01*
X101371400Y-91571924D01*
X101371400Y-91054076D01*
X108178600Y-91054076D01*
X108178600Y-91571924D01*
X108279627Y-92079822D01*
X108477799Y-92558251D01*
X108765500Y-92988826D01*
X109131674Y-93355000D01*
X109562249Y-93642701D01*
X110040678Y-93840873D01*
X110548576Y-93941900D01*
X111066424Y-93941900D01*
X111574322Y-93840873D01*
X112052751Y-93642701D01*
X112483326Y-93355000D01*
X112849500Y-92988826D01*
X113137201Y-92558251D01*
X113335373Y-92079822D01*
X113436400Y-91571924D01*
X113436400Y-91054076D01*
X113335373Y-90546178D01*
X113137201Y-90067749D01*
X112849500Y-89637174D01*
X112483326Y-89271000D01*
X112052751Y-88983299D01*
X111574322Y-88785127D01*
X111066424Y-88684100D01*
X110548576Y-88684100D01*
X110040678Y-88785127D01*
X109562249Y-88983299D01*
X109131674Y-89271000D01*
X108765500Y-89637174D01*
X108477799Y-90067749D01*
X108279627Y-90546178D01*
X108178600Y-91054076D01*
X101371400Y-91054076D01*
X101270373Y-90546178D01*
X101072201Y-90067749D01*
X100784500Y-89637174D01*
X100418326Y-89271000D01*
X99987751Y-88983299D01*
X99509322Y-88785127D01*
X99001424Y-88684100D01*
X98483576Y-88684100D01*
X97975678Y-88785127D01*
X97497249Y-88983299D01*
X97066674Y-89271000D01*
X96700500Y-89637174D01*
X96412799Y-90067749D01*
X96214627Y-90546178D01*
X96113600Y-91054076D01*
X85652295Y-91054076D01*
X85578530Y-90683243D01*
X85415781Y-90290330D01*
X85179504Y-89936718D01*
X84878782Y-89635996D01*
X84525170Y-89399719D01*
X84132257Y-89236970D01*
X83715143Y-89154000D01*
X83289857Y-89154000D01*
X82872743Y-89236970D01*
X82479830Y-89399719D01*
X82126218Y-89635996D01*
X81825496Y-89936718D01*
X81589219Y-90290330D01*
X81426470Y-90683243D01*
X81343500Y-91100357D01*
X75819000Y-91100357D01*
X75736030Y-90683243D01*
X75573281Y-90290330D01*
X75337004Y-89936718D01*
X75036282Y-89635996D01*
X74682670Y-89399719D01*
X74289757Y-89236970D01*
X73872643Y-89154000D01*
X73447357Y-89154000D01*
X73030243Y-89236970D01*
X72637330Y-89399719D01*
X72283718Y-89635996D01*
X71982996Y-89936718D01*
X71746719Y-90290330D01*
X71583970Y-90683243D01*
X71501000Y-91100357D01*
X61048900Y-91100357D01*
X61048900Y-91054076D01*
X60947873Y-90546178D01*
X60749701Y-90067749D01*
X60462000Y-89637174D01*
X60095826Y-89271000D01*
X59665251Y-88983299D01*
X59186822Y-88785127D01*
X58678924Y-88684100D01*
X58161076Y-88684100D01*
X57653178Y-88785127D01*
X57174749Y-88983299D01*
X56744174Y-89271000D01*
X56378000Y-89637174D01*
X56090299Y-90067749D01*
X55892127Y-90546178D01*
X55791100Y-91054076D01*
X48983900Y-91054076D01*
X48882873Y-90546178D01*
X48684701Y-90067749D01*
X48397000Y-89637174D01*
X48030826Y-89271000D01*
X47600251Y-88983299D01*
X47121822Y-88785127D01*
X46613924Y-88684100D01*
X46096076Y-88684100D01*
X45588178Y-88785127D01*
X45109749Y-88983299D01*
X44679174Y-89271000D01*
X44313000Y-89637174D01*
X44025299Y-90067749D01*
X43827127Y-90546178D01*
X43726100Y-91054076D01*
X33264795Y-91054076D01*
X33191030Y-90683243D01*
X33028281Y-90290330D01*
X32792004Y-89936718D01*
X32491282Y-89635996D01*
X32137670Y-89399719D01*
X31744757Y-89236970D01*
X31327643Y-89154000D01*
X30902357Y-89154000D01*
X30485243Y-89236970D01*
X30092330Y-89399719D01*
X29738718Y-89635996D01*
X29437996Y-89936718D01*
X29235000Y-90240522D01*
X29235000Y-83011655D01*
X33800000Y-83011655D01*
X33800000Y-83358345D01*
X33867636Y-83698373D01*
X34000308Y-84018673D01*
X34192919Y-84306935D01*
X34438065Y-84552081D01*
X34726327Y-84744692D01*
X35046627Y-84877364D01*
X35386655Y-84945000D01*
X35733345Y-84945000D01*
X36073373Y-84877364D01*
X36393673Y-84744692D01*
X36591719Y-84612362D01*
X36648029Y-84895451D01*
X36761856Y-85170253D01*
X36927107Y-85417569D01*
X37137431Y-85627893D01*
X37384747Y-85793144D01*
X37659549Y-85906971D01*
X37951278Y-85965000D01*
X38248722Y-85965000D01*
X38540451Y-85906971D01*
X38815253Y-85793144D01*
X39062569Y-85627893D01*
X39272893Y-85417569D01*
X39438144Y-85170253D01*
X39551971Y-84895451D01*
X39610000Y-84603722D01*
X39610000Y-84306278D01*
X65165000Y-84306278D01*
X65165000Y-84603722D01*
X65223029Y-84895451D01*
X65336856Y-85170253D01*
X65502107Y-85417569D01*
X65712431Y-85627893D01*
X65959747Y-85793144D01*
X66234549Y-85906971D01*
X66526278Y-85965000D01*
X66823722Y-85965000D01*
X67115451Y-85906971D01*
X67390253Y-85793144D01*
X67637569Y-85627893D01*
X67847893Y-85417569D01*
X68013144Y-85170253D01*
X68126971Y-84895451D01*
X68185000Y-84603722D01*
X68185000Y-84306278D01*
X68126971Y-84014549D01*
X68013144Y-83739747D01*
X67847893Y-83492431D01*
X67637569Y-83282107D01*
X67424189Y-83139531D01*
X70710074Y-83139531D01*
X70820921Y-83416714D01*
X71131840Y-83570089D01*
X71466705Y-83659860D01*
X71812650Y-83682576D01*
X72156380Y-83637366D01*
X72484685Y-83525966D01*
X72689079Y-83416714D01*
X72799926Y-83139531D01*
X71755000Y-82094605D01*
X70710074Y-83139531D01*
X67424189Y-83139531D01*
X67390253Y-83116856D01*
X67115451Y-83003029D01*
X66823722Y-82945000D01*
X66526278Y-82945000D01*
X66234549Y-83003029D01*
X65959747Y-83116856D01*
X65712431Y-83282107D01*
X65502107Y-83492431D01*
X65336856Y-83739747D01*
X65223029Y-84014549D01*
X65165000Y-84306278D01*
X39610000Y-84306278D01*
X39551971Y-84014549D01*
X39438144Y-83739747D01*
X39272893Y-83492431D01*
X39062569Y-83282107D01*
X38815253Y-83116856D01*
X38540451Y-83003029D01*
X38248722Y-82945000D01*
X37951278Y-82945000D01*
X37659549Y-83003029D01*
X37384747Y-83116856D01*
X37320000Y-83160118D01*
X37320000Y-83011655D01*
X37252364Y-82671627D01*
X37119692Y-82351327D01*
X36927081Y-82063065D01*
X36681935Y-81817919D01*
X36393673Y-81625308D01*
X36320000Y-81594792D01*
X36320000Y-81312826D01*
X36424174Y-81417000D01*
X36854749Y-81704701D01*
X37333178Y-81902873D01*
X37841076Y-82003900D01*
X38358924Y-82003900D01*
X38866822Y-81902873D01*
X39345251Y-81704701D01*
X39775826Y-81417000D01*
X40142000Y-81050826D01*
X40429701Y-80620251D01*
X40627873Y-80141822D01*
X40728900Y-79633924D01*
X40728900Y-79116076D01*
X64046100Y-79116076D01*
X64046100Y-79633924D01*
X64147127Y-80141822D01*
X64345299Y-80620251D01*
X64633000Y-81050826D01*
X64999174Y-81417000D01*
X65429749Y-81704701D01*
X65908178Y-81902873D01*
X66416076Y-82003900D01*
X66933924Y-82003900D01*
X67091028Y-81972650D01*
X69987424Y-81972650D01*
X70032634Y-82316380D01*
X70144034Y-82644685D01*
X70253286Y-82849079D01*
X70530469Y-82959926D01*
X71575395Y-81915000D01*
X71934605Y-81915000D01*
X72979531Y-82959926D01*
X73256714Y-82849079D01*
X73410089Y-82538160D01*
X73499860Y-82203295D01*
X73522576Y-81857350D01*
X73477366Y-81513620D01*
X73365966Y-81185315D01*
X73256714Y-80980921D01*
X72979531Y-80870074D01*
X71934605Y-81915000D01*
X71575395Y-81915000D01*
X70530469Y-80870074D01*
X70253286Y-80980921D01*
X70099911Y-81291840D01*
X70010140Y-81626705D01*
X69987424Y-81972650D01*
X67091028Y-81972650D01*
X67441822Y-81902873D01*
X67920251Y-81704701D01*
X68350826Y-81417000D01*
X68717000Y-81050826D01*
X68957782Y-80690469D01*
X70710074Y-80690469D01*
X71755000Y-81735395D01*
X72799926Y-80690469D01*
X72689079Y-80413286D01*
X72378160Y-80259911D01*
X72043295Y-80170140D01*
X71697350Y-80147424D01*
X71353620Y-80192634D01*
X71025315Y-80304034D01*
X70820921Y-80413286D01*
X70710074Y-80690469D01*
X68957782Y-80690469D01*
X69004701Y-80620251D01*
X69202873Y-80141822D01*
X69303900Y-79633924D01*
X69303900Y-79116076D01*
X69202873Y-78608178D01*
X69004701Y-78129749D01*
X68717000Y-77699174D01*
X68350826Y-77333000D01*
X67920251Y-77045299D01*
X67441822Y-76847127D01*
X66933924Y-76746100D01*
X66416076Y-76746100D01*
X65908178Y-76847127D01*
X65429749Y-77045299D01*
X64999174Y-77333000D01*
X64633000Y-77699174D01*
X64345299Y-78129749D01*
X64147127Y-78608178D01*
X64046100Y-79116076D01*
X40728900Y-79116076D01*
X40627873Y-78608178D01*
X40429701Y-78129749D01*
X40142000Y-77699174D01*
X39775826Y-77333000D01*
X39345251Y-77045299D01*
X38866822Y-76847127D01*
X38358924Y-76746100D01*
X37841076Y-76746100D01*
X37333178Y-76847127D01*
X36854749Y-77045299D01*
X36424174Y-77333000D01*
X36320000Y-77437174D01*
X36320000Y-74146278D01*
X36590000Y-74146278D01*
X36590000Y-74443722D01*
X36648029Y-74735451D01*
X36761856Y-75010253D01*
X36927107Y-75257569D01*
X37137431Y-75467893D01*
X37384747Y-75633144D01*
X37659549Y-75746971D01*
X37951278Y-75805000D01*
X38248722Y-75805000D01*
X38540451Y-75746971D01*
X38815253Y-75633144D01*
X39062569Y-75467893D01*
X39272893Y-75257569D01*
X39438144Y-75010253D01*
X39551971Y-74735451D01*
X39610000Y-74443722D01*
X39610000Y-74146278D01*
X39551971Y-73854549D01*
X39438144Y-73579747D01*
X39272893Y-73332431D01*
X39062569Y-73122107D01*
X38815253Y-72956856D01*
X38540451Y-72843029D01*
X38248722Y-72785000D01*
X37951278Y-72785000D01*
X37659549Y-72843029D01*
X37384747Y-72956856D01*
X37137431Y-73122107D01*
X36927107Y-73332431D01*
X36761856Y-73579747D01*
X36648029Y-73854549D01*
X36590000Y-74146278D01*
X36320000Y-74146278D01*
X36320000Y-67754775D01*
X36896699Y-67178076D01*
X43726100Y-67178076D01*
X43726100Y-67695924D01*
X43827127Y-68203822D01*
X44025299Y-68682251D01*
X44313000Y-69112826D01*
X44679174Y-69479000D01*
X45109749Y-69766701D01*
X45588178Y-69964873D01*
X46096076Y-70065900D01*
X46613924Y-70065900D01*
X47121822Y-69964873D01*
X47600251Y-69766701D01*
X48030826Y-69479000D01*
X48397000Y-69112826D01*
X48684701Y-68682251D01*
X48882873Y-68203822D01*
X48983900Y-67695924D01*
X48983900Y-67178076D01*
X55791100Y-67178076D01*
X55791100Y-67695924D01*
X55892127Y-68203822D01*
X56090299Y-68682251D01*
X56378000Y-69112826D01*
X56744174Y-69479000D01*
X57174749Y-69766701D01*
X57653178Y-69964873D01*
X58161076Y-70065900D01*
X58678924Y-70065900D01*
X59186822Y-69964873D01*
X59665251Y-69766701D01*
X60095826Y-69479000D01*
X60462000Y-69112826D01*
X60749701Y-68682251D01*
X60947873Y-68203822D01*
X61048900Y-67695924D01*
X61048900Y-67178076D01*
X60947873Y-66670178D01*
X60749701Y-66191749D01*
X60462000Y-65761174D01*
X60095826Y-65395000D01*
X59665251Y-65107299D01*
X59186822Y-64909127D01*
X58678924Y-64808100D01*
X58161076Y-64808100D01*
X57653178Y-64909127D01*
X57174749Y-65107299D01*
X56744174Y-65395000D01*
X56378000Y-65761174D01*
X56090299Y-66191749D01*
X55892127Y-66670178D01*
X55791100Y-67178076D01*
X48983900Y-67178076D01*
X48882873Y-66670178D01*
X48684701Y-66191749D01*
X48397000Y-65761174D01*
X48030826Y-65395000D01*
X47600251Y-65107299D01*
X47121822Y-64909127D01*
X46613924Y-64808100D01*
X46096076Y-64808100D01*
X45588178Y-64909127D01*
X45109749Y-65107299D01*
X44679174Y-65395000D01*
X44313000Y-65761174D01*
X44025299Y-66191749D01*
X43827127Y-66670178D01*
X43726100Y-67178076D01*
X36896699Y-67178076D01*
X52898504Y-51176272D01*
X52927501Y-51152475D01*
X53022474Y-51036750D01*
X53093046Y-50904721D01*
X53136503Y-50761460D01*
X53147500Y-50649807D01*
X53147500Y-50649799D01*
X53151176Y-50612474D01*
X53147500Y-50575149D01*
X53147500Y-50204810D01*
X53350898Y-50068904D01*
X53561404Y-49858398D01*
X53657500Y-49714580D01*
X53753596Y-49858398D01*
X53964102Y-50068904D01*
X54167501Y-50204810D01*
X54167500Y-53115151D01*
X54163824Y-53152474D01*
X54167500Y-53189796D01*
X54167500Y-53189806D01*
X54178497Y-53301459D01*
X54216167Y-53425643D01*
X54221954Y-53444720D01*
X54292526Y-53576750D01*
X54332371Y-53625300D01*
X54387499Y-53692475D01*
X54416503Y-53716278D01*
X68455001Y-67754777D01*
X68455000Y-73974792D01*
X68381327Y-74005308D01*
X68183281Y-74137638D01*
X68126971Y-73854549D01*
X68013144Y-73579747D01*
X67847893Y-73332431D01*
X67637569Y-73122107D01*
X67390253Y-72956856D01*
X67115451Y-72843029D01*
X66823722Y-72785000D01*
X66526278Y-72785000D01*
X66234549Y-72843029D01*
X65959747Y-72956856D01*
X65712431Y-73122107D01*
X65502107Y-73332431D01*
X65336856Y-73579747D01*
X65223029Y-73854549D01*
X65165000Y-74146278D01*
X65165000Y-74443722D01*
X65223029Y-74735451D01*
X65336856Y-75010253D01*
X65502107Y-75257569D01*
X65712431Y-75467893D01*
X65959747Y-75633144D01*
X66234549Y-75746971D01*
X66526278Y-75805000D01*
X66823722Y-75805000D01*
X67115451Y-75746971D01*
X67390253Y-75633144D01*
X67455000Y-75589882D01*
X67455000Y-75738345D01*
X67522636Y-76078373D01*
X67655308Y-76398673D01*
X67847919Y-76686935D01*
X68093065Y-76932081D01*
X68381327Y-77124692D01*
X68701627Y-77257364D01*
X69041655Y-77325000D01*
X69388345Y-77325000D01*
X69728373Y-77257364D01*
X70048673Y-77124692D01*
X70336935Y-76932081D01*
X70582081Y-76686935D01*
X70774692Y-76398673D01*
X70907364Y-76078373D01*
X70975000Y-75738345D01*
X70975000Y-75391655D01*
X70907364Y-75051627D01*
X70774692Y-74731327D01*
X70582081Y-74443065D01*
X70336935Y-74197919D01*
X70048673Y-74005308D01*
X69975000Y-73974792D01*
X69975000Y-67477296D01*
X69978676Y-67439973D01*
X69975000Y-67402650D01*
X69975000Y-67402641D01*
X69964003Y-67290988D01*
X69920546Y-67147727D01*
X69849974Y-67015698D01*
X69755001Y-66899973D01*
X69726003Y-66876175D01*
X58689603Y-55839776D01*
X59186822Y-55740873D01*
X59665251Y-55542701D01*
X60095826Y-55255000D01*
X60462000Y-54888826D01*
X60749701Y-54458251D01*
X60947873Y-53979822D01*
X61048900Y-53471924D01*
X61048900Y-53164179D01*
X73209945Y-65325225D01*
X73030243Y-65360970D01*
X72637330Y-65523719D01*
X72283718Y-65759996D01*
X71982996Y-66060718D01*
X71746719Y-66414330D01*
X71583970Y-66807243D01*
X71501000Y-67224357D01*
X71501000Y-67649643D01*
X71583970Y-68066757D01*
X71746719Y-68459670D01*
X71982996Y-68813282D01*
X72283718Y-69114004D01*
X72637330Y-69350281D01*
X73030243Y-69513030D01*
X73447357Y-69596000D01*
X73872643Y-69596000D01*
X74289757Y-69513030D01*
X74682670Y-69350281D01*
X75036282Y-69114004D01*
X75337004Y-68813282D01*
X75573281Y-68459670D01*
X75736030Y-68066757D01*
X75771775Y-67887055D01*
X77027501Y-69142781D01*
X77027500Y-76162678D01*
X77023824Y-76200000D01*
X77027500Y-76237322D01*
X77027500Y-76237332D01*
X77038497Y-76348985D01*
X77081954Y-76492246D01*
X77152526Y-76624276D01*
X77178065Y-76655395D01*
X77247499Y-76740001D01*
X77276503Y-76763804D01*
X84208701Y-83696003D01*
X84232499Y-83725001D01*
X84348224Y-83819974D01*
X84480253Y-83890546D01*
X84623514Y-83934003D01*
X84735167Y-83945000D01*
X84735175Y-83945000D01*
X84772500Y-83948676D01*
X84809825Y-83945000D01*
X86357292Y-83945000D01*
X86387808Y-84018673D01*
X86580419Y-84306935D01*
X86825565Y-84552081D01*
X87113827Y-84744692D01*
X87434127Y-84877364D01*
X87774155Y-84945000D01*
X88120845Y-84945000D01*
X88460873Y-84877364D01*
X88781173Y-84744692D01*
X88979219Y-84612362D01*
X89035529Y-84895451D01*
X89149356Y-85170253D01*
X89314607Y-85417569D01*
X89524931Y-85627893D01*
X89772247Y-85793144D01*
X90047049Y-85906971D01*
X90338778Y-85965000D01*
X90636222Y-85965000D01*
X90927951Y-85906971D01*
X91202753Y-85793144D01*
X91450069Y-85627893D01*
X91660393Y-85417569D01*
X91825644Y-85170253D01*
X91939471Y-84895451D01*
X91997500Y-84603722D01*
X91997500Y-84306278D01*
X117552500Y-84306278D01*
X117552500Y-84603722D01*
X117610529Y-84895451D01*
X117724356Y-85170253D01*
X117889607Y-85417569D01*
X118099931Y-85627893D01*
X118347247Y-85793144D01*
X118622049Y-85906971D01*
X118913778Y-85965000D01*
X119211222Y-85965000D01*
X119502951Y-85906971D01*
X119777753Y-85793144D01*
X120025069Y-85627893D01*
X120235393Y-85417569D01*
X120400644Y-85170253D01*
X120514471Y-84895451D01*
X120572500Y-84603722D01*
X120572500Y-84306278D01*
X120514471Y-84014549D01*
X120400644Y-83739747D01*
X120235393Y-83492431D01*
X120025069Y-83282107D01*
X119811689Y-83139531D01*
X123097574Y-83139531D01*
X123208421Y-83416714D01*
X123519340Y-83570089D01*
X123854205Y-83659860D01*
X124200150Y-83682576D01*
X124543880Y-83637366D01*
X124872185Y-83525966D01*
X125076579Y-83416714D01*
X125187426Y-83139531D01*
X124142500Y-82094605D01*
X123097574Y-83139531D01*
X119811689Y-83139531D01*
X119777753Y-83116856D01*
X119502951Y-83003029D01*
X119211222Y-82945000D01*
X118913778Y-82945000D01*
X118622049Y-83003029D01*
X118347247Y-83116856D01*
X118099931Y-83282107D01*
X117889607Y-83492431D01*
X117724356Y-83739747D01*
X117610529Y-84014549D01*
X117552500Y-84306278D01*
X91997500Y-84306278D01*
X91939471Y-84014549D01*
X91825644Y-83739747D01*
X91660393Y-83492431D01*
X91450069Y-83282107D01*
X91202753Y-83116856D01*
X90927951Y-83003029D01*
X90636222Y-82945000D01*
X90338778Y-82945000D01*
X90047049Y-83003029D01*
X89772247Y-83116856D01*
X89707500Y-83160118D01*
X89707500Y-83011655D01*
X89639864Y-82671627D01*
X89507192Y-82351327D01*
X89314581Y-82063065D01*
X89069435Y-81817919D01*
X88781173Y-81625308D01*
X88460873Y-81492636D01*
X88120845Y-81425000D01*
X87774155Y-81425000D01*
X87434127Y-81492636D01*
X87113827Y-81625308D01*
X86825565Y-81817919D01*
X86580419Y-82063065D01*
X86387808Y-82351327D01*
X86357292Y-82425000D01*
X85087302Y-82425000D01*
X81778378Y-79116076D01*
X87858600Y-79116076D01*
X87858600Y-79633924D01*
X87959627Y-80141822D01*
X88157799Y-80620251D01*
X88445500Y-81050826D01*
X88811674Y-81417000D01*
X89242249Y-81704701D01*
X89720678Y-81902873D01*
X90228576Y-82003900D01*
X90746424Y-82003900D01*
X91254322Y-81902873D01*
X91732751Y-81704701D01*
X92163326Y-81417000D01*
X92529500Y-81050826D01*
X92817201Y-80620251D01*
X93015373Y-80141822D01*
X93116400Y-79633924D01*
X93116400Y-79116076D01*
X116433600Y-79116076D01*
X116433600Y-79633924D01*
X116534627Y-80141822D01*
X116732799Y-80620251D01*
X117020500Y-81050826D01*
X117386674Y-81417000D01*
X117817249Y-81704701D01*
X118295678Y-81902873D01*
X118803576Y-82003900D01*
X119321424Y-82003900D01*
X119478528Y-81972650D01*
X122374924Y-81972650D01*
X122420134Y-82316380D01*
X122531534Y-82644685D01*
X122640786Y-82849079D01*
X122917969Y-82959926D01*
X123962895Y-81915000D01*
X124322105Y-81915000D01*
X125367031Y-82959926D01*
X125644214Y-82849079D01*
X125797589Y-82538160D01*
X125887360Y-82203295D01*
X125910076Y-81857350D01*
X125864866Y-81513620D01*
X125753466Y-81185315D01*
X125644214Y-80980921D01*
X125367031Y-80870074D01*
X124322105Y-81915000D01*
X123962895Y-81915000D01*
X122917969Y-80870074D01*
X122640786Y-80980921D01*
X122487411Y-81291840D01*
X122397640Y-81626705D01*
X122374924Y-81972650D01*
X119478528Y-81972650D01*
X119829322Y-81902873D01*
X120307751Y-81704701D01*
X120738326Y-81417000D01*
X121104500Y-81050826D01*
X121345282Y-80690469D01*
X123097574Y-80690469D01*
X124142500Y-81735395D01*
X125187426Y-80690469D01*
X125076579Y-80413286D01*
X124765660Y-80259911D01*
X124430795Y-80170140D01*
X124084850Y-80147424D01*
X123741120Y-80192634D01*
X123412815Y-80304034D01*
X123208421Y-80413286D01*
X123097574Y-80690469D01*
X121345282Y-80690469D01*
X121392201Y-80620251D01*
X121590373Y-80141822D01*
X121691400Y-79633924D01*
X121691400Y-79116076D01*
X121590373Y-78608178D01*
X121392201Y-78129749D01*
X121104500Y-77699174D01*
X120738326Y-77333000D01*
X120307751Y-77045299D01*
X119829322Y-76847127D01*
X119321424Y-76746100D01*
X118803576Y-76746100D01*
X118295678Y-76847127D01*
X117817249Y-77045299D01*
X117386674Y-77333000D01*
X117020500Y-77699174D01*
X116732799Y-78129749D01*
X116534627Y-78608178D01*
X116433600Y-79116076D01*
X93116400Y-79116076D01*
X93015373Y-78608178D01*
X92817201Y-78129749D01*
X92529500Y-77699174D01*
X92163326Y-77333000D01*
X91732751Y-77045299D01*
X91254322Y-76847127D01*
X90746424Y-76746100D01*
X90228576Y-76746100D01*
X89720678Y-76847127D01*
X89242249Y-77045299D01*
X88811674Y-77333000D01*
X88445500Y-77699174D01*
X88157799Y-78129749D01*
X87959627Y-78608178D01*
X87858600Y-79116076D01*
X81778378Y-79116076D01*
X80721833Y-78059531D01*
X84362574Y-78059531D01*
X84473421Y-78336714D01*
X84784340Y-78490089D01*
X85119205Y-78579860D01*
X85465150Y-78602576D01*
X85808880Y-78557366D01*
X86137185Y-78445966D01*
X86341579Y-78336714D01*
X86452426Y-78059531D01*
X85407500Y-77014605D01*
X84362574Y-78059531D01*
X80721833Y-78059531D01*
X79554952Y-76892650D01*
X83639924Y-76892650D01*
X83685134Y-77236380D01*
X83796534Y-77564685D01*
X83905786Y-77769079D01*
X84182969Y-77879926D01*
X85227895Y-76835000D01*
X85587105Y-76835000D01*
X86632031Y-77879926D01*
X86909214Y-77769079D01*
X87062589Y-77458160D01*
X87152360Y-77123295D01*
X87175076Y-76777350D01*
X87129866Y-76433620D01*
X87018466Y-76105315D01*
X86909214Y-75900921D01*
X86632031Y-75790074D01*
X85587105Y-76835000D01*
X85227895Y-76835000D01*
X84182969Y-75790074D01*
X83905786Y-75900921D01*
X83752411Y-76211840D01*
X83662640Y-76546705D01*
X83639924Y-76892650D01*
X79554952Y-76892650D01*
X78547500Y-75885199D01*
X78547500Y-75610469D01*
X84362574Y-75610469D01*
X85407500Y-76655395D01*
X86452426Y-75610469D01*
X86341579Y-75333286D01*
X86030660Y-75179911D01*
X85695795Y-75090140D01*
X85349850Y-75067424D01*
X85006120Y-75112634D01*
X84677815Y-75224034D01*
X84473421Y-75333286D01*
X84362574Y-75610469D01*
X78547500Y-75610469D01*
X78547500Y-74146278D01*
X88977500Y-74146278D01*
X88977500Y-74443722D01*
X89035529Y-74735451D01*
X89149356Y-75010253D01*
X89314607Y-75257569D01*
X89524931Y-75467893D01*
X89772247Y-75633144D01*
X90047049Y-75746971D01*
X90338778Y-75805000D01*
X90636222Y-75805000D01*
X90927951Y-75746971D01*
X91202753Y-75633144D01*
X91450069Y-75467893D01*
X91660393Y-75257569D01*
X91825644Y-75010253D01*
X91939471Y-74735451D01*
X91997500Y-74443722D01*
X91997500Y-74146278D01*
X91939471Y-73854549D01*
X91825644Y-73579747D01*
X91660393Y-73332431D01*
X91450069Y-73122107D01*
X91202753Y-72956856D01*
X90927951Y-72843029D01*
X90636222Y-72785000D01*
X90338778Y-72785000D01*
X90047049Y-72843029D01*
X89772247Y-72956856D01*
X89524931Y-73122107D01*
X89314607Y-73332431D01*
X89149356Y-73579747D01*
X89035529Y-73854549D01*
X88977500Y-74146278D01*
X78547500Y-74146278D01*
X78547500Y-68865301D01*
X78551176Y-68827978D01*
X78547500Y-68790655D01*
X78547500Y-68790645D01*
X78536503Y-68678992D01*
X78493046Y-68535731D01*
X78422474Y-68403702D01*
X78335857Y-68298159D01*
X81986200Y-71948502D01*
X82009999Y-71977501D01*
X82125724Y-72072474D01*
X82257753Y-72143046D01*
X82401014Y-72186503D01*
X82512667Y-72197500D01*
X82512676Y-72197500D01*
X82549999Y-72201176D01*
X82587322Y-72197500D01*
X119541449Y-72197500D01*
X120842500Y-73498553D01*
X120842500Y-73974792D01*
X120768827Y-74005308D01*
X120570781Y-74137638D01*
X120514471Y-73854549D01*
X120400644Y-73579747D01*
X120235393Y-73332431D01*
X120025069Y-73122107D01*
X119777753Y-72956856D01*
X119502951Y-72843029D01*
X119211222Y-72785000D01*
X118913778Y-72785000D01*
X118622049Y-72843029D01*
X118347247Y-72956856D01*
X118099931Y-73122107D01*
X117889607Y-73332431D01*
X117724356Y-73579747D01*
X117610529Y-73854549D01*
X117552500Y-74146278D01*
X117552500Y-74443722D01*
X117610529Y-74735451D01*
X117724356Y-75010253D01*
X117889607Y-75257569D01*
X118099931Y-75467893D01*
X118347247Y-75633144D01*
X118622049Y-75746971D01*
X118913778Y-75805000D01*
X119211222Y-75805000D01*
X119502951Y-75746971D01*
X119777753Y-75633144D01*
X119842500Y-75589882D01*
X119842500Y-75738345D01*
X119910136Y-76078373D01*
X120042808Y-76398673D01*
X120235419Y-76686935D01*
X120480565Y-76932081D01*
X120768827Y-77124692D01*
X121089127Y-77257364D01*
X121429155Y-77325000D01*
X121775845Y-77325000D01*
X122115873Y-77257364D01*
X122436173Y-77124692D01*
X122724435Y-76932081D01*
X122969581Y-76686935D01*
X123162192Y-76398673D01*
X123294864Y-76078373D01*
X123362500Y-75738345D01*
X123362500Y-75391655D01*
X123294864Y-75051627D01*
X123162192Y-74731327D01*
X122969581Y-74443065D01*
X122724435Y-74197919D01*
X122436173Y-74005308D01*
X122362500Y-73974792D01*
X122362500Y-73221072D01*
X122366176Y-73183749D01*
X122362500Y-73146426D01*
X122362500Y-73146417D01*
X122351503Y-73034764D01*
X122308046Y-72891503D01*
X122237474Y-72759474D01*
X122224311Y-72743435D01*
X122166299Y-72672746D01*
X122166295Y-72672742D01*
X122142501Y-72643749D01*
X122113509Y-72619956D01*
X120420053Y-70926502D01*
X120396251Y-70897499D01*
X120280526Y-70802526D01*
X120148497Y-70731954D01*
X120005236Y-70688497D01*
X119893583Y-70677500D01*
X119893572Y-70677500D01*
X119856250Y-70673824D01*
X119818928Y-70677500D01*
X82864802Y-70677500D01*
X79411659Y-67224357D01*
X81343500Y-67224357D01*
X81343500Y-67649643D01*
X81426470Y-68066757D01*
X81589219Y-68459670D01*
X81825496Y-68813282D01*
X82126218Y-69114004D01*
X82479830Y-69350281D01*
X82872743Y-69513030D01*
X83289857Y-69596000D01*
X83715143Y-69596000D01*
X84132257Y-69513030D01*
X84525170Y-69350281D01*
X84878782Y-69114004D01*
X85179504Y-68813282D01*
X85415781Y-68459670D01*
X85578530Y-68066757D01*
X85661500Y-67649643D01*
X85661500Y-67224357D01*
X85652295Y-67178076D01*
X96113600Y-67178076D01*
X96113600Y-67695924D01*
X96214627Y-68203822D01*
X96412799Y-68682251D01*
X96700500Y-69112826D01*
X97066674Y-69479000D01*
X97497249Y-69766701D01*
X97975678Y-69964873D01*
X98483576Y-70065900D01*
X99001424Y-70065900D01*
X99509322Y-69964873D01*
X99987751Y-69766701D01*
X100418326Y-69479000D01*
X100784500Y-69112826D01*
X101072201Y-68682251D01*
X101270373Y-68203822D01*
X101371400Y-67695924D01*
X101371400Y-67178076D01*
X108178600Y-67178076D01*
X108178600Y-67695924D01*
X108279627Y-68203822D01*
X108477799Y-68682251D01*
X108765500Y-69112826D01*
X109131674Y-69479000D01*
X109562249Y-69766701D01*
X110040678Y-69964873D01*
X110548576Y-70065900D01*
X111066424Y-70065900D01*
X111574322Y-69964873D01*
X112052751Y-69766701D01*
X112483326Y-69479000D01*
X112849500Y-69112826D01*
X113137201Y-68682251D01*
X113335373Y-68203822D01*
X113436400Y-67695924D01*
X113436400Y-67178076D01*
X113335373Y-66670178D01*
X113137201Y-66191749D01*
X112849500Y-65761174D01*
X112483326Y-65395000D01*
X112052751Y-65107299D01*
X111574322Y-64909127D01*
X111066424Y-64808100D01*
X110548576Y-64808100D01*
X110040678Y-64909127D01*
X109562249Y-65107299D01*
X109131674Y-65395000D01*
X108765500Y-65761174D01*
X108477799Y-66191749D01*
X108279627Y-66670178D01*
X108178600Y-67178076D01*
X101371400Y-67178076D01*
X101270373Y-66670178D01*
X101072201Y-66191749D01*
X100784500Y-65761174D01*
X100418326Y-65395000D01*
X99987751Y-65107299D01*
X99509322Y-64909127D01*
X99001424Y-64808100D01*
X98483576Y-64808100D01*
X97975678Y-64909127D01*
X97497249Y-65107299D01*
X97066674Y-65395000D01*
X96700500Y-65761174D01*
X96412799Y-66191749D01*
X96214627Y-66670178D01*
X96113600Y-67178076D01*
X85652295Y-67178076D01*
X85578530Y-66807243D01*
X85415781Y-66414330D01*
X85179504Y-66060718D01*
X84878782Y-65759996D01*
X84525170Y-65523719D01*
X84132257Y-65360970D01*
X83715143Y-65278000D01*
X83289857Y-65278000D01*
X82872743Y-65360970D01*
X82479830Y-65523719D01*
X82126218Y-65759996D01*
X81825496Y-66060718D01*
X81589219Y-66414330D01*
X81426470Y-66807243D01*
X81343500Y-67224357D01*
X79411659Y-67224357D01*
X65187659Y-53000357D01*
X71501000Y-53000357D01*
X71501000Y-53425643D01*
X71583970Y-53842757D01*
X71746719Y-54235670D01*
X71982996Y-54589282D01*
X72283718Y-54890004D01*
X72637330Y-55126281D01*
X73030243Y-55289030D01*
X73447357Y-55372000D01*
X73872643Y-55372000D01*
X74289757Y-55289030D01*
X74682670Y-55126281D01*
X75036282Y-54890004D01*
X75337004Y-54589282D01*
X75573281Y-54235670D01*
X75736030Y-53842757D01*
X75819000Y-53425643D01*
X75819000Y-53000357D01*
X81343500Y-53000357D01*
X81343500Y-53425643D01*
X81426470Y-53842757D01*
X81589219Y-54235670D01*
X81825496Y-54589282D01*
X82126218Y-54890004D01*
X82479830Y-55126281D01*
X82872743Y-55289030D01*
X83289857Y-55372000D01*
X83715143Y-55372000D01*
X84132257Y-55289030D01*
X84525170Y-55126281D01*
X84878782Y-54890004D01*
X85179504Y-54589282D01*
X85415781Y-54235670D01*
X85578530Y-53842757D01*
X85661500Y-53425643D01*
X85661500Y-53000357D01*
X85652295Y-52954076D01*
X96113600Y-52954076D01*
X96113600Y-53471924D01*
X96214627Y-53979822D01*
X96412799Y-54458251D01*
X96700500Y-54888826D01*
X97066674Y-55255000D01*
X97497249Y-55542701D01*
X97975678Y-55740873D01*
X98483576Y-55841900D01*
X99001424Y-55841900D01*
X99509322Y-55740873D01*
X99987751Y-55542701D01*
X100418326Y-55255000D01*
X100784500Y-54888826D01*
X101072201Y-54458251D01*
X101270373Y-53979822D01*
X101371400Y-53471924D01*
X101371400Y-52954076D01*
X108178600Y-52954076D01*
X108178600Y-53471924D01*
X108279627Y-53979822D01*
X108477799Y-54458251D01*
X108765500Y-54888826D01*
X109131674Y-55255000D01*
X109562249Y-55542701D01*
X110040678Y-55740873D01*
X110548576Y-55841900D01*
X111066424Y-55841900D01*
X111574322Y-55740873D01*
X112052751Y-55542701D01*
X112483326Y-55255000D01*
X112849500Y-54888826D01*
X113137201Y-54458251D01*
X113335373Y-53979822D01*
X113436400Y-53471924D01*
X113436400Y-52954076D01*
X113335373Y-52446178D01*
X113137201Y-51967749D01*
X112849500Y-51537174D01*
X112483326Y-51171000D01*
X112052751Y-50883299D01*
X111574322Y-50685127D01*
X111066424Y-50584100D01*
X110548576Y-50584100D01*
X110040678Y-50685127D01*
X109562249Y-50883299D01*
X109131674Y-51171000D01*
X108765500Y-51537174D01*
X108477799Y-51967749D01*
X108279627Y-52446178D01*
X108178600Y-52954076D01*
X101371400Y-52954076D01*
X101270373Y-52446178D01*
X101072201Y-51967749D01*
X100784500Y-51537174D01*
X100418326Y-51171000D01*
X99987751Y-50883299D01*
X99509322Y-50685127D01*
X99001424Y-50584100D01*
X98483576Y-50584100D01*
X97975678Y-50685127D01*
X97497249Y-50883299D01*
X97066674Y-51171000D01*
X96700500Y-51537174D01*
X96412799Y-51967749D01*
X96214627Y-52446178D01*
X96113600Y-52954076D01*
X85652295Y-52954076D01*
X85578530Y-52583243D01*
X85415781Y-52190330D01*
X85179504Y-51836718D01*
X84878782Y-51535996D01*
X84525170Y-51299719D01*
X84132257Y-51136970D01*
X83715143Y-51054000D01*
X83289857Y-51054000D01*
X82872743Y-51136970D01*
X82479830Y-51299719D01*
X82126218Y-51535996D01*
X81825496Y-51836718D01*
X81589219Y-52190330D01*
X81426470Y-52583243D01*
X81343500Y-53000357D01*
X75819000Y-53000357D01*
X75736030Y-52583243D01*
X75573281Y-52190330D01*
X75337004Y-51836718D01*
X75036282Y-51535996D01*
X74682670Y-51299719D01*
X74289757Y-51136970D01*
X73872643Y-51054000D01*
X73447357Y-51054000D01*
X73030243Y-51136970D01*
X72637330Y-51299719D01*
X72283718Y-51535996D01*
X71982996Y-51836718D01*
X71746719Y-52190330D01*
X71583970Y-52583243D01*
X71501000Y-53000357D01*
X65187659Y-53000357D01*
X61471076Y-49283775D01*
X61518800Y-49043850D01*
X61518800Y-48746150D01*
X61460722Y-48454170D01*
X61346797Y-48179131D01*
X61181404Y-47931602D01*
X60970898Y-47721096D01*
X60723369Y-47555703D01*
X60448330Y-47441778D01*
X60156350Y-47383700D01*
X59858650Y-47383700D01*
X59566670Y-47441778D01*
X59291631Y-47555703D01*
X59044102Y-47721096D01*
X58833596Y-47931602D01*
X58737500Y-48075420D01*
X58641404Y-47931602D01*
X58430898Y-47721096D01*
X58183369Y-47555703D01*
X57908330Y-47441778D01*
X57616350Y-47383700D01*
X57318650Y-47383700D01*
X57026670Y-47441778D01*
X56751631Y-47555703D01*
X56504102Y-47721096D01*
X56293596Y-47931602D01*
X56197500Y-48075420D01*
X56101404Y-47931602D01*
X55890898Y-47721096D01*
X55643369Y-47555703D01*
X55368330Y-47441778D01*
X55076350Y-47383700D01*
X54778650Y-47383700D01*
X54486670Y-47441778D01*
X54211631Y-47555703D01*
X53964102Y-47721096D01*
X53753596Y-47931602D01*
X53657500Y-48075420D01*
X53561404Y-47931602D01*
X53350898Y-47721096D01*
X53103369Y-47555703D01*
X52828330Y-47441778D01*
X52536350Y-47383700D01*
X52238650Y-47383700D01*
X51946670Y-47441778D01*
X51671631Y-47555703D01*
X51424102Y-47721096D01*
X51213596Y-47931602D01*
X51117500Y-48075420D01*
X51021404Y-47931602D01*
X50810898Y-47721096D01*
X50563369Y-47555703D01*
X50288330Y-47441778D01*
X49996350Y-47383700D01*
X49698650Y-47383700D01*
X49406670Y-47441778D01*
X49131631Y-47555703D01*
X48884102Y-47721096D01*
X48673596Y-47931602D01*
X48577500Y-48075420D01*
X48481404Y-47931602D01*
X48270898Y-47721096D01*
X48023369Y-47555703D01*
X47748330Y-47441778D01*
X47456350Y-47383700D01*
X47158650Y-47383700D01*
X46866670Y-47441778D01*
X46591631Y-47555703D01*
X46344102Y-47721096D01*
X46133596Y-47931602D01*
X46037500Y-48075420D01*
X45941404Y-47931602D01*
X45730898Y-47721096D01*
X45483369Y-47555703D01*
X45208330Y-47441778D01*
X44916350Y-47383700D01*
X44618650Y-47383700D01*
X44326670Y-47441778D01*
X44051631Y-47555703D01*
X43804102Y-47721096D01*
X43593596Y-47931602D01*
X43497500Y-48075420D01*
X43401404Y-47931602D01*
X43190898Y-47721096D01*
X42943369Y-47555703D01*
X42668330Y-47441778D01*
X42376350Y-47383700D01*
X42078650Y-47383700D01*
X41786670Y-47441778D01*
X41511631Y-47555703D01*
X41264102Y-47721096D01*
X41053596Y-47931602D01*
X40944545Y-48094809D01*
X40734669Y-48027437D01*
X39867105Y-48895000D01*
X40734669Y-49762563D01*
X40944545Y-49695191D01*
X41053596Y-49858398D01*
X41264102Y-50068904D01*
X41511631Y-50234297D01*
X41786670Y-50348222D01*
X42078650Y-50406300D01*
X42376350Y-50406300D01*
X42668330Y-50348222D01*
X42943369Y-50234297D01*
X43190898Y-50068904D01*
X43401404Y-49858398D01*
X43497500Y-49714580D01*
X43593596Y-49858398D01*
X43804102Y-50068904D01*
X44051631Y-50234297D01*
X44326670Y-50348222D01*
X44618650Y-50406300D01*
X44916350Y-50406300D01*
X45208330Y-50348222D01*
X45483369Y-50234297D01*
X45730898Y-50068904D01*
X45941404Y-49858398D01*
X46037500Y-49714580D01*
X46133596Y-49858398D01*
X46344102Y-50068904D01*
X46591631Y-50234297D01*
X46866670Y-50348222D01*
X47158650Y-50406300D01*
X47456350Y-50406300D01*
X47748330Y-50348222D01*
X48023369Y-50234297D01*
X48270898Y-50068904D01*
X48481404Y-49858398D01*
X48577500Y-49714580D01*
X48673596Y-49858398D01*
X48884102Y-50068904D01*
X49131631Y-50234297D01*
X49406670Y-50348222D01*
X49698650Y-50406300D01*
X49996350Y-50406300D01*
X50288330Y-50348222D01*
X50563369Y-50234297D01*
X50810898Y-50068904D01*
X51021404Y-49858398D01*
X51117500Y-49714580D01*
X51213596Y-49858398D01*
X51424102Y-50068904D01*
X51627500Y-50204810D01*
X51627500Y-50297672D01*
X48981776Y-52943396D01*
X48882873Y-52446178D01*
X48684701Y-51967749D01*
X48397000Y-51537174D01*
X48030826Y-51171000D01*
X47600251Y-50883299D01*
X47121822Y-50685127D01*
X46613924Y-50584100D01*
X46096076Y-50584100D01*
X45588178Y-50685127D01*
X45109749Y-50883299D01*
X44679174Y-51171000D01*
X44313000Y-51537174D01*
X44025299Y-51967749D01*
X43827127Y-52446178D01*
X43726100Y-52954076D01*
X43726100Y-53471924D01*
X43827127Y-53979822D01*
X44025299Y-54458251D01*
X44313000Y-54888826D01*
X44679174Y-55255000D01*
X45109749Y-55542701D01*
X45588178Y-55740873D01*
X46085397Y-55839776D01*
X35048998Y-66876175D01*
X35020000Y-66899973D01*
X34996202Y-66928971D01*
X34996201Y-66928972D01*
X34925026Y-67015698D01*
X34854454Y-67147728D01*
X34831210Y-67224357D01*
X34810999Y-67290987D01*
X34810998Y-67290989D01*
X34796324Y-67439974D01*
X34800001Y-67477307D01*
X34800000Y-81594792D01*
X34726327Y-81625308D01*
X34438065Y-81817919D01*
X34192919Y-82063065D01*
X34000308Y-82351327D01*
X33867636Y-82671627D01*
X33800000Y-83011655D01*
X29235000Y-83011655D01*
X29235000Y-78059531D01*
X31975074Y-78059531D01*
X32085921Y-78336714D01*
X32396840Y-78490089D01*
X32731705Y-78579860D01*
X33077650Y-78602576D01*
X33421380Y-78557366D01*
X33749685Y-78445966D01*
X33954079Y-78336714D01*
X34064926Y-78059531D01*
X33020000Y-77014605D01*
X31975074Y-78059531D01*
X29235000Y-78059531D01*
X29235000Y-76892650D01*
X31252424Y-76892650D01*
X31297634Y-77236380D01*
X31409034Y-77564685D01*
X31518286Y-77769079D01*
X31795469Y-77879926D01*
X32840395Y-76835000D01*
X33199605Y-76835000D01*
X34244531Y-77879926D01*
X34521714Y-77769079D01*
X34675089Y-77458160D01*
X34764860Y-77123295D01*
X34787576Y-76777350D01*
X34742366Y-76433620D01*
X34630966Y-76105315D01*
X34521714Y-75900921D01*
X34244531Y-75790074D01*
X33199605Y-76835000D01*
X32840395Y-76835000D01*
X31795469Y-75790074D01*
X31518286Y-75900921D01*
X31364911Y-76211840D01*
X31275140Y-76546705D01*
X31252424Y-76892650D01*
X29235000Y-76892650D01*
X29235000Y-75610469D01*
X31975074Y-75610469D01*
X33020000Y-76655395D01*
X34064926Y-75610469D01*
X33954079Y-75333286D01*
X33643160Y-75179911D01*
X33308295Y-75090140D01*
X32962350Y-75067424D01*
X32618620Y-75112634D01*
X32290315Y-75224034D01*
X32085921Y-75333286D01*
X31975074Y-75610469D01*
X29235000Y-75610469D01*
X29235000Y-68509478D01*
X29437996Y-68813282D01*
X29738718Y-69114004D01*
X30092330Y-69350281D01*
X30485243Y-69513030D01*
X30902357Y-69596000D01*
X31327643Y-69596000D01*
X31744757Y-69513030D01*
X32137670Y-69350281D01*
X32491282Y-69114004D01*
X32792004Y-68813282D01*
X33028281Y-68459670D01*
X33191030Y-68066757D01*
X33274000Y-67649643D01*
X33274000Y-67224357D01*
X33191030Y-66807243D01*
X33028281Y-66414330D01*
X32792004Y-66060718D01*
X32491282Y-65759996D01*
X32137670Y-65523719D01*
X31744757Y-65360970D01*
X31327643Y-65278000D01*
X30902357Y-65278000D01*
X30485243Y-65360970D01*
X30092330Y-65523719D01*
X29738718Y-65759996D01*
X29437996Y-66060718D01*
X29235000Y-66364522D01*
X29235000Y-54285478D01*
X29437996Y-54589282D01*
X29738718Y-54890004D01*
X30092330Y-55126281D01*
X30485243Y-55289030D01*
X30902357Y-55372000D01*
X31327643Y-55372000D01*
X31744757Y-55289030D01*
X32137670Y-55126281D01*
X32491282Y-54890004D01*
X32792004Y-54589282D01*
X33028281Y-54235670D01*
X33191030Y-53842757D01*
X33274000Y-53425643D01*
X33274000Y-53000357D01*
X33191030Y-52583243D01*
X33028281Y-52190330D01*
X32792004Y-51836718D01*
X32491282Y-51535996D01*
X32137670Y-51299719D01*
X31744757Y-51136970D01*
X31327643Y-51054000D01*
X30902357Y-51054000D01*
X30485243Y-51136970D01*
X30092330Y-51299719D01*
X29738718Y-51535996D01*
X29437996Y-51836718D01*
X29235000Y-52140522D01*
X29235000Y-48018700D01*
X30553128Y-48018700D01*
X30553128Y-49771300D01*
X30565388Y-49895782D01*
X30601698Y-50015480D01*
X30660663Y-50125794D01*
X30740015Y-50222485D01*
X30836706Y-50301837D01*
X30947020Y-50360802D01*
X31066718Y-50397112D01*
X31191200Y-50409372D01*
X32943800Y-50409372D01*
X33068282Y-50397112D01*
X33187980Y-50360802D01*
X33298294Y-50301837D01*
X33394985Y-50222485D01*
X33474337Y-50125794D01*
X33533302Y-50015480D01*
X33546656Y-49971458D01*
X33644102Y-50068904D01*
X33891631Y-50234297D01*
X34166670Y-50348222D01*
X34458650Y-50406300D01*
X34756350Y-50406300D01*
X35048330Y-50348222D01*
X35323369Y-50234297D01*
X35570898Y-50068904D01*
X35697633Y-49942169D01*
X36279937Y-49942169D01*
X36360754Y-50193929D01*
X36629279Y-50322457D01*
X36917719Y-50396129D01*
X37214991Y-50412113D01*
X37509667Y-50369796D01*
X37790427Y-50270802D01*
X37934246Y-50193929D01*
X38015063Y-49942169D01*
X38819937Y-49942169D01*
X38900754Y-50193929D01*
X39169279Y-50322457D01*
X39457719Y-50396129D01*
X39754991Y-50412113D01*
X40049667Y-50369796D01*
X40330427Y-50270802D01*
X40474246Y-50193929D01*
X40555063Y-49942169D01*
X39687500Y-49074605D01*
X38819937Y-49942169D01*
X38015063Y-49942169D01*
X37147500Y-49074605D01*
X36279937Y-49942169D01*
X35697633Y-49942169D01*
X35781404Y-49858398D01*
X35890455Y-49695191D01*
X36100331Y-49762563D01*
X36967895Y-48895000D01*
X36100331Y-48027437D01*
X35890455Y-48094809D01*
X35781404Y-47931602D01*
X35570898Y-47721096D01*
X35323369Y-47555703D01*
X35048330Y-47441778D01*
X34756350Y-47383700D01*
X34458650Y-47383700D01*
X34166670Y-47441778D01*
X33891631Y-47555703D01*
X33644102Y-47721096D01*
X33546656Y-47818542D01*
X33533302Y-47774520D01*
X33474337Y-47664206D01*
X33394985Y-47567515D01*
X33298294Y-47488163D01*
X33187980Y-47429198D01*
X33068282Y-47392888D01*
X32943800Y-47380628D01*
X31191200Y-47380628D01*
X31066718Y-47392888D01*
X30947020Y-47429198D01*
X30836706Y-47488163D01*
X30740015Y-47567515D01*
X30660663Y-47664206D01*
X30601698Y-47774520D01*
X30565388Y-47894218D01*
X30553128Y-48018700D01*
X29235000Y-48018700D01*
X29235000Y-44911655D01*
X33800000Y-44911655D01*
X33800000Y-45258345D01*
X33867636Y-45598373D01*
X34000308Y-45918673D01*
X34192919Y-46206935D01*
X34438065Y-46452081D01*
X34726327Y-46644692D01*
X35046627Y-46777364D01*
X35386655Y-46845000D01*
X35733345Y-46845000D01*
X36073373Y-46777364D01*
X36393673Y-46644692D01*
X36591719Y-46512362D01*
X36648029Y-46795451D01*
X36761856Y-47070253D01*
X36927107Y-47317569D01*
X36999051Y-47389513D01*
X36785333Y-47420204D01*
X36504573Y-47519198D01*
X36360754Y-47596071D01*
X36279937Y-47847831D01*
X37147500Y-48715395D01*
X37161642Y-48701252D01*
X37341248Y-48880858D01*
X37327105Y-48895000D01*
X38194669Y-49762563D01*
X38417500Y-49691032D01*
X38640331Y-49762563D01*
X39507895Y-48895000D01*
X38640331Y-48027437D01*
X38417500Y-48098968D01*
X38194671Y-48027437D01*
X38310691Y-47911417D01*
X38261694Y-47862420D01*
X38540451Y-47806971D01*
X38815253Y-47693144D01*
X38884431Y-47646921D01*
X38819937Y-47847831D01*
X39687500Y-48715395D01*
X40555063Y-47847831D01*
X40474246Y-47596071D01*
X40205721Y-47467543D01*
X39917281Y-47393871D01*
X39620009Y-47377887D01*
X39325333Y-47420204D01*
X39085801Y-47504661D01*
X39272893Y-47317569D01*
X39438144Y-47070253D01*
X39551971Y-46795451D01*
X39610000Y-46503722D01*
X39610000Y-46206278D01*
X39551971Y-45914549D01*
X39523163Y-45845000D01*
X40920178Y-45845000D01*
X40957500Y-45848676D01*
X40994822Y-45845000D01*
X40994833Y-45845000D01*
X41106486Y-45834003D01*
X41249747Y-45790546D01*
X41381776Y-45719974D01*
X41497501Y-45625001D01*
X41521304Y-45595997D01*
X51998726Y-35118576D01*
X52238650Y-35166300D01*
X52536350Y-35166300D01*
X52828330Y-35108222D01*
X53103369Y-34994297D01*
X53350898Y-34828904D01*
X53561404Y-34618398D01*
X53657500Y-34474580D01*
X53753596Y-34618398D01*
X53964102Y-34828904D01*
X54167500Y-34964810D01*
X54167501Y-38221418D01*
X54163824Y-38258750D01*
X54167501Y-38296083D01*
X54176973Y-38392247D01*
X54178498Y-38407735D01*
X54221954Y-38550996D01*
X54292526Y-38683026D01*
X54345133Y-38747127D01*
X54387500Y-38798751D01*
X54416498Y-38822549D01*
X64523701Y-48929753D01*
X64547499Y-48958751D01*
X64663224Y-49053724D01*
X64795253Y-49124296D01*
X64938514Y-49167753D01*
X65050167Y-49178750D01*
X65050175Y-49178750D01*
X65087500Y-49182426D01*
X65124825Y-49178750D01*
X103150178Y-49178750D01*
X103187500Y-49182426D01*
X103224822Y-49178750D01*
X103224833Y-49178750D01*
X103336486Y-49167753D01*
X103479747Y-49124296D01*
X103611776Y-49053724D01*
X103727501Y-48958751D01*
X103751304Y-48929747D01*
X106474773Y-46206278D01*
X117552500Y-46206278D01*
X117552500Y-46503722D01*
X117610529Y-46795451D01*
X117724356Y-47070253D01*
X117889607Y-47317569D01*
X118099931Y-47527893D01*
X118347247Y-47693144D01*
X118622049Y-47806971D01*
X118913778Y-47865000D01*
X119211222Y-47865000D01*
X119502951Y-47806971D01*
X119777753Y-47693144D01*
X120025069Y-47527893D01*
X120235393Y-47317569D01*
X120400644Y-47070253D01*
X120514471Y-46795451D01*
X120572500Y-46503722D01*
X120572500Y-46206278D01*
X120514471Y-45914549D01*
X120400644Y-45639747D01*
X120235393Y-45392431D01*
X120025069Y-45182107D01*
X119811689Y-45039531D01*
X123097574Y-45039531D01*
X123208421Y-45316714D01*
X123519340Y-45470089D01*
X123854205Y-45559860D01*
X124200150Y-45582576D01*
X124543880Y-45537366D01*
X124872185Y-45425966D01*
X125076579Y-45316714D01*
X125187426Y-45039531D01*
X124142500Y-43994605D01*
X123097574Y-45039531D01*
X119811689Y-45039531D01*
X119777753Y-45016856D01*
X119502951Y-44903029D01*
X119211222Y-44845000D01*
X118913778Y-44845000D01*
X118622049Y-44903029D01*
X118347247Y-45016856D01*
X118099931Y-45182107D01*
X117889607Y-45392431D01*
X117724356Y-45639747D01*
X117610529Y-45914549D01*
X117552500Y-46206278D01*
X106474773Y-46206278D01*
X113821052Y-38860000D01*
X118023179Y-38860000D01*
X117817249Y-38945299D01*
X117386674Y-39233000D01*
X117020500Y-39599174D01*
X116732799Y-40029749D01*
X116534627Y-40508178D01*
X116433600Y-41016076D01*
X116433600Y-41533924D01*
X116534627Y-42041822D01*
X116732799Y-42520251D01*
X117020500Y-42950826D01*
X117386674Y-43317000D01*
X117817249Y-43604701D01*
X118295678Y-43802873D01*
X118803576Y-43903900D01*
X119321424Y-43903900D01*
X119478528Y-43872650D01*
X122374924Y-43872650D01*
X122420134Y-44216380D01*
X122531534Y-44544685D01*
X122640786Y-44749079D01*
X122917969Y-44859926D01*
X123962895Y-43815000D01*
X124322105Y-43815000D01*
X125367031Y-44859926D01*
X125644214Y-44749079D01*
X125797589Y-44438160D01*
X125887360Y-44103295D01*
X125910076Y-43757350D01*
X125864866Y-43413620D01*
X125753466Y-43085315D01*
X125644214Y-42880921D01*
X125367031Y-42770074D01*
X124322105Y-43815000D01*
X123962895Y-43815000D01*
X122917969Y-42770074D01*
X122640786Y-42880921D01*
X122487411Y-43191840D01*
X122397640Y-43526705D01*
X122374924Y-43872650D01*
X119478528Y-43872650D01*
X119829322Y-43802873D01*
X120307751Y-43604701D01*
X120738326Y-43317000D01*
X121104500Y-42950826D01*
X121345282Y-42590469D01*
X123097574Y-42590469D01*
X124142500Y-43635395D01*
X125187426Y-42590469D01*
X125076579Y-42313286D01*
X124765660Y-42159911D01*
X124430795Y-42070140D01*
X124084850Y-42047424D01*
X123741120Y-42092634D01*
X123412815Y-42204034D01*
X123208421Y-42313286D01*
X123097574Y-42590469D01*
X121345282Y-42590469D01*
X121392201Y-42520251D01*
X121590373Y-42041822D01*
X121691400Y-41533924D01*
X121691400Y-41016076D01*
X121590373Y-40508178D01*
X121392201Y-40029749D01*
X121104500Y-39599174D01*
X120738326Y-39233000D01*
X120307751Y-38945299D01*
X120101821Y-38860000D01*
X120522349Y-38860000D01*
X120768827Y-39024692D01*
X121089127Y-39157364D01*
X121429155Y-39225000D01*
X121775845Y-39225000D01*
X122115873Y-39157364D01*
X122436173Y-39024692D01*
X122724435Y-38832081D01*
X122969581Y-38586935D01*
X123162192Y-38298673D01*
X123294864Y-37978373D01*
X123362500Y-37638345D01*
X123362500Y-37291655D01*
X123294864Y-36951627D01*
X123162192Y-36631327D01*
X122969581Y-36343065D01*
X122724435Y-36097919D01*
X122436173Y-35905308D01*
X122115873Y-35772636D01*
X121775845Y-35705000D01*
X121429155Y-35705000D01*
X121089127Y-35772636D01*
X120768827Y-35905308D01*
X120570781Y-36037638D01*
X120514471Y-35754549D01*
X120400644Y-35479747D01*
X120235393Y-35232431D01*
X120025069Y-35022107D01*
X119777753Y-34856856D01*
X119502951Y-34743029D01*
X119211222Y-34685000D01*
X118913778Y-34685000D01*
X118622049Y-34743029D01*
X118347247Y-34856856D01*
X118099931Y-35022107D01*
X117889607Y-35232431D01*
X117724356Y-35479747D01*
X117610529Y-35754549D01*
X117552500Y-36046278D01*
X117552500Y-36343722D01*
X117610529Y-36635451D01*
X117724356Y-36910253D01*
X117889607Y-37157569D01*
X118072038Y-37340000D01*
X113543572Y-37340000D01*
X113506249Y-37336324D01*
X113468926Y-37340000D01*
X113468917Y-37340000D01*
X113357264Y-37350997D01*
X113214003Y-37394454D01*
X113081974Y-37465026D01*
X112966249Y-37559999D01*
X112942451Y-37588997D01*
X102872699Y-47658750D01*
X91254227Y-47658750D01*
X91450069Y-47527893D01*
X91660393Y-47317569D01*
X91825644Y-47070253D01*
X91939471Y-46795451D01*
X91997500Y-46503722D01*
X91997500Y-46206278D01*
X91939471Y-45914549D01*
X91825644Y-45639747D01*
X91660393Y-45392431D01*
X91450069Y-45182107D01*
X91202753Y-45016856D01*
X90927951Y-44903029D01*
X90636222Y-44845000D01*
X90338778Y-44845000D01*
X90047049Y-44903029D01*
X89772247Y-45016856D01*
X89707500Y-45060118D01*
X89707500Y-44911655D01*
X89639864Y-44571627D01*
X89507192Y-44251327D01*
X89314581Y-43963065D01*
X89069435Y-43717919D01*
X88781173Y-43525308D01*
X88460873Y-43392636D01*
X88120845Y-43325000D01*
X87774155Y-43325000D01*
X87434127Y-43392636D01*
X87360454Y-43423152D01*
X84953378Y-41016076D01*
X87858600Y-41016076D01*
X87858600Y-41533924D01*
X87959627Y-42041822D01*
X88157799Y-42520251D01*
X88445500Y-42950826D01*
X88811674Y-43317000D01*
X89242249Y-43604701D01*
X89720678Y-43802873D01*
X90228576Y-43903900D01*
X90746424Y-43903900D01*
X91254322Y-43802873D01*
X91732751Y-43604701D01*
X92163326Y-43317000D01*
X92529500Y-42950826D01*
X92817201Y-42520251D01*
X93015373Y-42041822D01*
X93116400Y-41533924D01*
X93116400Y-41016076D01*
X93015373Y-40508178D01*
X92817201Y-40029749D01*
X92529500Y-39599174D01*
X92163326Y-39233000D01*
X91732751Y-38945299D01*
X91254322Y-38747127D01*
X90746424Y-38646100D01*
X90228576Y-38646100D01*
X89720678Y-38747127D01*
X89242249Y-38945299D01*
X88811674Y-39233000D01*
X88445500Y-39599174D01*
X88157799Y-40029749D01*
X87959627Y-40508178D01*
X87858600Y-41016076D01*
X84953378Y-41016076D01*
X83896833Y-39959531D01*
X84362574Y-39959531D01*
X84473421Y-40236714D01*
X84784340Y-40390089D01*
X85119205Y-40479860D01*
X85465150Y-40502576D01*
X85808880Y-40457366D01*
X86137185Y-40345966D01*
X86341579Y-40236714D01*
X86452426Y-39959531D01*
X85407500Y-38914605D01*
X84362574Y-39959531D01*
X83896833Y-39959531D01*
X82729952Y-38792650D01*
X83639924Y-38792650D01*
X83685134Y-39136380D01*
X83796534Y-39464685D01*
X83905786Y-39669079D01*
X84182969Y-39779926D01*
X85227895Y-38735000D01*
X85587105Y-38735000D01*
X86632031Y-39779926D01*
X86909214Y-39669079D01*
X87062589Y-39358160D01*
X87152360Y-39023295D01*
X87175076Y-38677350D01*
X87129866Y-38333620D01*
X87018466Y-38005315D01*
X86909214Y-37800921D01*
X86632031Y-37690074D01*
X85587105Y-38735000D01*
X85227895Y-38735000D01*
X84182969Y-37690074D01*
X83905786Y-37800921D01*
X83752411Y-38111840D01*
X83662640Y-38446705D01*
X83639924Y-38792650D01*
X82729952Y-38792650D01*
X82382403Y-38445102D01*
X82358600Y-38416098D01*
X82242875Y-38321125D01*
X82110846Y-38250553D01*
X81967585Y-38207096D01*
X81855932Y-38196099D01*
X81855921Y-38196099D01*
X81818599Y-38192423D01*
X81781277Y-38196099D01*
X70817179Y-38196099D01*
X70907364Y-37978373D01*
X70975000Y-37638345D01*
X70975000Y-37510469D01*
X84362574Y-37510469D01*
X85407500Y-38555395D01*
X86452426Y-37510469D01*
X86341579Y-37233286D01*
X86030660Y-37079911D01*
X85695795Y-36990140D01*
X85349850Y-36967424D01*
X85006120Y-37012634D01*
X84677815Y-37124034D01*
X84473421Y-37233286D01*
X84362574Y-37510469D01*
X70975000Y-37510469D01*
X70975000Y-37291655D01*
X70907364Y-36951627D01*
X70774692Y-36631327D01*
X70582081Y-36343065D01*
X70336935Y-36097919D01*
X70259649Y-36046278D01*
X88977500Y-36046278D01*
X88977500Y-36343722D01*
X89035529Y-36635451D01*
X89149356Y-36910253D01*
X89314607Y-37157569D01*
X89524931Y-37367893D01*
X89772247Y-37533144D01*
X90047049Y-37646971D01*
X90338778Y-37705000D01*
X90636222Y-37705000D01*
X90927951Y-37646971D01*
X91202753Y-37533144D01*
X91450069Y-37367893D01*
X91660393Y-37157569D01*
X91825644Y-36910253D01*
X91939471Y-36635451D01*
X91997500Y-36343722D01*
X91997500Y-36046278D01*
X91939471Y-35754549D01*
X91825644Y-35479747D01*
X91660393Y-35232431D01*
X91450069Y-35022107D01*
X91202753Y-34856856D01*
X90927951Y-34743029D01*
X90636222Y-34685000D01*
X90338778Y-34685000D01*
X90047049Y-34743029D01*
X89772247Y-34856856D01*
X89524931Y-35022107D01*
X89314607Y-35232431D01*
X89149356Y-35479747D01*
X89035529Y-35754549D01*
X88977500Y-36046278D01*
X70259649Y-36046278D01*
X70048673Y-35905308D01*
X69728373Y-35772636D01*
X69388345Y-35705000D01*
X69041655Y-35705000D01*
X68701627Y-35772636D01*
X68381327Y-35905308D01*
X68183281Y-36037638D01*
X68126971Y-35754549D01*
X68013144Y-35479747D01*
X67847893Y-35232431D01*
X67637569Y-35022107D01*
X67390253Y-34856856D01*
X67115451Y-34743029D01*
X66823722Y-34685000D01*
X66526278Y-34685000D01*
X66234549Y-34743029D01*
X65959747Y-34856856D01*
X65712431Y-35022107D01*
X65502107Y-35232431D01*
X65336856Y-35479747D01*
X65223029Y-35754549D01*
X65165000Y-36046278D01*
X65165000Y-36343722D01*
X65223029Y-36635451D01*
X65251837Y-36705000D01*
X64132302Y-36705000D01*
X61471076Y-34043775D01*
X61518800Y-33803850D01*
X61518800Y-33506150D01*
X61460722Y-33214170D01*
X61346797Y-32939131D01*
X61181404Y-32691602D01*
X60970898Y-32481096D01*
X60723369Y-32315703D01*
X60448330Y-32201778D01*
X60156350Y-32143700D01*
X59858650Y-32143700D01*
X59566670Y-32201778D01*
X59291631Y-32315703D01*
X59044102Y-32481096D01*
X58833596Y-32691602D01*
X58737500Y-32835420D01*
X58641404Y-32691602D01*
X58430898Y-32481096D01*
X58183369Y-32315703D01*
X57908330Y-32201778D01*
X57616350Y-32143700D01*
X57318650Y-32143700D01*
X57026670Y-32201778D01*
X56751631Y-32315703D01*
X56504102Y-32481096D01*
X56293596Y-32691602D01*
X56197500Y-32835420D01*
X56101404Y-32691602D01*
X55890898Y-32481096D01*
X55643369Y-32315703D01*
X55368330Y-32201778D01*
X55076350Y-32143700D01*
X54778650Y-32143700D01*
X54486670Y-32201778D01*
X54211631Y-32315703D01*
X53964102Y-32481096D01*
X53753596Y-32691602D01*
X53657500Y-32835420D01*
X53561404Y-32691602D01*
X53350898Y-32481096D01*
X53103369Y-32315703D01*
X52828330Y-32201778D01*
X52536350Y-32143700D01*
X52238650Y-32143700D01*
X51946670Y-32201778D01*
X51671631Y-32315703D01*
X51424102Y-32481096D01*
X51213596Y-32691602D01*
X51117500Y-32835420D01*
X51021404Y-32691602D01*
X50810898Y-32481096D01*
X50563369Y-32315703D01*
X50288330Y-32201778D01*
X49996350Y-32143700D01*
X49698650Y-32143700D01*
X49406670Y-32201778D01*
X49131631Y-32315703D01*
X48884102Y-32481096D01*
X48673596Y-32691602D01*
X48577500Y-32835420D01*
X48481404Y-32691602D01*
X48270898Y-32481096D01*
X48023369Y-32315703D01*
X47748330Y-32201778D01*
X47456350Y-32143700D01*
X47158650Y-32143700D01*
X46866670Y-32201778D01*
X46591631Y-32315703D01*
X46344102Y-32481096D01*
X46133596Y-32691602D01*
X46037500Y-32835420D01*
X45941404Y-32691602D01*
X45730898Y-32481096D01*
X45483369Y-32315703D01*
X45208330Y-32201778D01*
X44916350Y-32143700D01*
X44618650Y-32143700D01*
X44326670Y-32201778D01*
X44051631Y-32315703D01*
X43804102Y-32481096D01*
X43593596Y-32691602D01*
X43497500Y-32835420D01*
X43401404Y-32691602D01*
X43190898Y-32481096D01*
X42943369Y-32315703D01*
X42668330Y-32201778D01*
X42376350Y-32143700D01*
X42078650Y-32143700D01*
X41786670Y-32201778D01*
X41511631Y-32315703D01*
X41264102Y-32481096D01*
X41053596Y-32691602D01*
X40957500Y-32835420D01*
X40861404Y-32691602D01*
X40650898Y-32481096D01*
X40403369Y-32315703D01*
X40128330Y-32201778D01*
X39836350Y-32143700D01*
X39538650Y-32143700D01*
X39246670Y-32201778D01*
X38971631Y-32315703D01*
X38724102Y-32481096D01*
X38513596Y-32691602D01*
X38417500Y-32835420D01*
X38321404Y-32691602D01*
X38110898Y-32481096D01*
X37863369Y-32315703D01*
X37588330Y-32201778D01*
X37296350Y-32143700D01*
X36998650Y-32143700D01*
X36706670Y-32201778D01*
X36431631Y-32315703D01*
X36184102Y-32481096D01*
X35973596Y-32691602D01*
X35864545Y-32854809D01*
X35654669Y-32787437D01*
X34787105Y-33655000D01*
X35654669Y-34522563D01*
X35864545Y-34455191D01*
X35973596Y-34618398D01*
X36184102Y-34828904D01*
X36431631Y-34994297D01*
X36706670Y-35108222D01*
X36994136Y-35165402D01*
X36927107Y-35232431D01*
X36761856Y-35479747D01*
X36648029Y-35754549D01*
X36590000Y-36046278D01*
X36590000Y-36343722D01*
X36648029Y-36635451D01*
X36761856Y-36910253D01*
X36927107Y-37157569D01*
X37137431Y-37367893D01*
X37384747Y-37533144D01*
X37659549Y-37646971D01*
X37951278Y-37705000D01*
X38248722Y-37705000D01*
X38540451Y-37646971D01*
X38815253Y-37533144D01*
X39062569Y-37367893D01*
X39272893Y-37157569D01*
X39438144Y-36910253D01*
X39551971Y-36635451D01*
X39610000Y-36343722D01*
X39610000Y-36046278D01*
X39551971Y-35754549D01*
X39438144Y-35479747D01*
X39272893Y-35232431D01*
X39079397Y-35038935D01*
X39246670Y-35108222D01*
X39538650Y-35166300D01*
X39836350Y-35166300D01*
X40128330Y-35108222D01*
X40403369Y-34994297D01*
X40650898Y-34828904D01*
X40861404Y-34618398D01*
X40957500Y-34474580D01*
X41053596Y-34618398D01*
X41264102Y-34828904D01*
X41511631Y-34994297D01*
X41786670Y-35108222D01*
X42078650Y-35166300D01*
X42376350Y-35166300D01*
X42668330Y-35108222D01*
X42943369Y-34994297D01*
X43190898Y-34828904D01*
X43401404Y-34618398D01*
X43497500Y-34474580D01*
X43593596Y-34618398D01*
X43804102Y-34828904D01*
X44051631Y-34994297D01*
X44326670Y-35108222D01*
X44618650Y-35166300D01*
X44916350Y-35166300D01*
X45208330Y-35108222D01*
X45483369Y-34994297D01*
X45730898Y-34828904D01*
X45941404Y-34618398D01*
X46037500Y-34474580D01*
X46133596Y-34618398D01*
X46344102Y-34828904D01*
X46591631Y-34994297D01*
X46866670Y-35108222D01*
X47158650Y-35166300D01*
X47456350Y-35166300D01*
X47748330Y-35108222D01*
X48023369Y-34994297D01*
X48270898Y-34828904D01*
X48481404Y-34618398D01*
X48577500Y-34474580D01*
X48673596Y-34618398D01*
X48884102Y-34828904D01*
X49131631Y-34994297D01*
X49406670Y-35108222D01*
X49698650Y-35166300D01*
X49801398Y-35166300D01*
X40642699Y-44325000D01*
X37150208Y-44325000D01*
X37119692Y-44251327D01*
X36927081Y-43963065D01*
X36681935Y-43717919D01*
X36393673Y-43525308D01*
X36073373Y-43392636D01*
X35733345Y-43325000D01*
X35386655Y-43325000D01*
X35046627Y-43392636D01*
X34726327Y-43525308D01*
X34438065Y-43717919D01*
X34192919Y-43963065D01*
X34000308Y-44251327D01*
X33867636Y-44571627D01*
X33800000Y-44911655D01*
X29235000Y-44911655D01*
X29235000Y-41016076D01*
X35471100Y-41016076D01*
X35471100Y-41533924D01*
X35572127Y-42041822D01*
X35770299Y-42520251D01*
X36058000Y-42950826D01*
X36424174Y-43317000D01*
X36854749Y-43604701D01*
X37333178Y-43802873D01*
X37841076Y-43903900D01*
X38358924Y-43903900D01*
X38866822Y-43802873D01*
X39345251Y-43604701D01*
X39775826Y-43317000D01*
X40142000Y-42950826D01*
X40429701Y-42520251D01*
X40627873Y-42041822D01*
X40728900Y-41533924D01*
X40728900Y-41016076D01*
X40627873Y-40508178D01*
X40429701Y-40029749D01*
X40142000Y-39599174D01*
X39775826Y-39233000D01*
X39345251Y-38945299D01*
X38866822Y-38747127D01*
X38358924Y-38646100D01*
X37841076Y-38646100D01*
X37333178Y-38747127D01*
X36854749Y-38945299D01*
X36424174Y-39233000D01*
X36058000Y-39599174D01*
X35770299Y-40029749D01*
X35572127Y-40508178D01*
X35471100Y-41016076D01*
X29235000Y-41016076D01*
X29235000Y-39959531D01*
X31975074Y-39959531D01*
X32085921Y-40236714D01*
X32396840Y-40390089D01*
X32731705Y-40479860D01*
X33077650Y-40502576D01*
X33421380Y-40457366D01*
X33749685Y-40345966D01*
X33954079Y-40236714D01*
X34064926Y-39959531D01*
X33020000Y-38914605D01*
X31975074Y-39959531D01*
X29235000Y-39959531D01*
X29235000Y-38792650D01*
X31252424Y-38792650D01*
X31297634Y-39136380D01*
X31409034Y-39464685D01*
X31518286Y-39669079D01*
X31795469Y-39779926D01*
X32840395Y-38735000D01*
X33199605Y-38735000D01*
X34244531Y-39779926D01*
X34521714Y-39669079D01*
X34675089Y-39358160D01*
X34764860Y-39023295D01*
X34787576Y-38677350D01*
X34742366Y-38333620D01*
X34630966Y-38005315D01*
X34521714Y-37800921D01*
X34244531Y-37690074D01*
X33199605Y-38735000D01*
X32840395Y-38735000D01*
X31795469Y-37690074D01*
X31518286Y-37800921D01*
X31364911Y-38111840D01*
X31275140Y-38446705D01*
X31252424Y-38792650D01*
X29235000Y-38792650D01*
X29235000Y-37510469D01*
X31975074Y-37510469D01*
X33020000Y-38555395D01*
X34064926Y-37510469D01*
X33954079Y-37233286D01*
X33643160Y-37079911D01*
X33308295Y-36990140D01*
X32962350Y-36967424D01*
X32618620Y-37012634D01*
X32290315Y-37124034D01*
X32085921Y-37233286D01*
X31975074Y-37510469D01*
X29235000Y-37510469D01*
X29235000Y-33506150D01*
X30556200Y-33506150D01*
X30556200Y-33803850D01*
X30614278Y-34095830D01*
X30728203Y-34370869D01*
X30893596Y-34618398D01*
X31104102Y-34828904D01*
X31351631Y-34994297D01*
X31626670Y-35108222D01*
X31918650Y-35166300D01*
X32216350Y-35166300D01*
X32508330Y-35108222D01*
X32783369Y-34994297D01*
X33030898Y-34828904D01*
X33157633Y-34702169D01*
X33739937Y-34702169D01*
X33820754Y-34953929D01*
X34089279Y-35082457D01*
X34377719Y-35156129D01*
X34674991Y-35172113D01*
X34969667Y-35129796D01*
X35250427Y-35030802D01*
X35394246Y-34953929D01*
X35475063Y-34702169D01*
X34607500Y-33834605D01*
X33739937Y-34702169D01*
X33157633Y-34702169D01*
X33241404Y-34618398D01*
X33350455Y-34455191D01*
X33560331Y-34522563D01*
X34427895Y-33655000D01*
X33560331Y-32787437D01*
X33350455Y-32854809D01*
X33241404Y-32691602D01*
X33157633Y-32607831D01*
X33739937Y-32607831D01*
X34607500Y-33475395D01*
X35475063Y-32607831D01*
X35394246Y-32356071D01*
X35125721Y-32227543D01*
X34837281Y-32153871D01*
X34540009Y-32137887D01*
X34245333Y-32180204D01*
X33964573Y-32279198D01*
X33820754Y-32356071D01*
X33739937Y-32607831D01*
X33157633Y-32607831D01*
X33030898Y-32481096D01*
X32783369Y-32315703D01*
X32508330Y-32201778D01*
X32216350Y-32143700D01*
X31918650Y-32143700D01*
X31626670Y-32201778D01*
X31351631Y-32315703D01*
X31104102Y-32481096D01*
X30893596Y-32691602D01*
X30728203Y-32939131D01*
X30614278Y-33214170D01*
X30556200Y-33506150D01*
X29235000Y-33506150D01*
X29235000Y-30409478D01*
X29437996Y-30713282D01*
X29738718Y-31014004D01*
X30092330Y-31250281D01*
X30485243Y-31413030D01*
X30902357Y-31496000D01*
X31327643Y-31496000D01*
X31744757Y-31413030D01*
X32137670Y-31250281D01*
X32491282Y-31014004D01*
X32792004Y-30713282D01*
X33028281Y-30359670D01*
X33191030Y-29966757D01*
X33274000Y-29549643D01*
X33274000Y-29124357D01*
X33264795Y-29078076D01*
X43726100Y-29078076D01*
X43726100Y-29595924D01*
X43827127Y-30103822D01*
X44025299Y-30582251D01*
X44313000Y-31012826D01*
X44679174Y-31379000D01*
X45109749Y-31666701D01*
X45588178Y-31864873D01*
X46096076Y-31965900D01*
X46613924Y-31965900D01*
X47121822Y-31864873D01*
X47600251Y-31666701D01*
X48030826Y-31379000D01*
X48397000Y-31012826D01*
X48684701Y-30582251D01*
X48882873Y-30103822D01*
X48983900Y-29595924D01*
X48983900Y-29078076D01*
X55791100Y-29078076D01*
X55791100Y-29595924D01*
X55892127Y-30103822D01*
X56090299Y-30582251D01*
X56378000Y-31012826D01*
X56744174Y-31379000D01*
X57174749Y-31666701D01*
X57653178Y-31864873D01*
X58161076Y-31965900D01*
X58678924Y-31965900D01*
X59186822Y-31864873D01*
X59665251Y-31666701D01*
X60095826Y-31379000D01*
X60462000Y-31012826D01*
X60749701Y-30582251D01*
X60947873Y-30103822D01*
X61048900Y-29595924D01*
X61048900Y-29124357D01*
X71501000Y-29124357D01*
X71501000Y-29549643D01*
X71583970Y-29966757D01*
X71746719Y-30359670D01*
X71982996Y-30713282D01*
X72283718Y-31014004D01*
X72637330Y-31250281D01*
X73030243Y-31413030D01*
X73447357Y-31496000D01*
X73872643Y-31496000D01*
X74289757Y-31413030D01*
X74682670Y-31250281D01*
X75036282Y-31014004D01*
X75337004Y-30713282D01*
X75573281Y-30359670D01*
X75736030Y-29966757D01*
X75819000Y-29549643D01*
X75819000Y-29124357D01*
X81343500Y-29124357D01*
X81343500Y-29549643D01*
X81426470Y-29966757D01*
X81589219Y-30359670D01*
X81825496Y-30713282D01*
X82126218Y-31014004D01*
X82479830Y-31250281D01*
X82872743Y-31413030D01*
X83289857Y-31496000D01*
X83715143Y-31496000D01*
X84132257Y-31413030D01*
X84525170Y-31250281D01*
X84878782Y-31014004D01*
X85179504Y-30713282D01*
X85415781Y-30359670D01*
X85578530Y-29966757D01*
X85661500Y-29549643D01*
X85661500Y-29124357D01*
X85652295Y-29078076D01*
X96113600Y-29078076D01*
X96113600Y-29595924D01*
X96214627Y-30103822D01*
X96412799Y-30582251D01*
X96700500Y-31012826D01*
X97066674Y-31379000D01*
X97497249Y-31666701D01*
X97975678Y-31864873D01*
X98483576Y-31965900D01*
X99001424Y-31965900D01*
X99509322Y-31864873D01*
X99987751Y-31666701D01*
X100418326Y-31379000D01*
X100784500Y-31012826D01*
X101072201Y-30582251D01*
X101270373Y-30103822D01*
X101371400Y-29595924D01*
X101371400Y-29078076D01*
X108178600Y-29078076D01*
X108178600Y-29595924D01*
X108279627Y-30103822D01*
X108477799Y-30582251D01*
X108765500Y-31012826D01*
X109131674Y-31379000D01*
X109562249Y-31666701D01*
X110040678Y-31864873D01*
X110548576Y-31965900D01*
X111066424Y-31965900D01*
X111574322Y-31864873D01*
X112052751Y-31666701D01*
X112483326Y-31379000D01*
X112849500Y-31012826D01*
X113137201Y-30582251D01*
X113335373Y-30103822D01*
X113436400Y-29595924D01*
X113436400Y-29078076D01*
X113335373Y-28570178D01*
X113137201Y-28091749D01*
X112849500Y-27661174D01*
X112483326Y-27295000D01*
X112052751Y-27007299D01*
X111574322Y-26809127D01*
X111066424Y-26708100D01*
X110548576Y-26708100D01*
X110040678Y-26809127D01*
X109562249Y-27007299D01*
X109131674Y-27295000D01*
X108765500Y-27661174D01*
X108477799Y-28091749D01*
X108279627Y-28570178D01*
X108178600Y-29078076D01*
X101371400Y-29078076D01*
X101270373Y-28570178D01*
X101072201Y-28091749D01*
X100784500Y-27661174D01*
X100418326Y-27295000D01*
X99987751Y-27007299D01*
X99509322Y-26809127D01*
X99001424Y-26708100D01*
X98483576Y-26708100D01*
X97975678Y-26809127D01*
X97497249Y-27007299D01*
X97066674Y-27295000D01*
X96700500Y-27661174D01*
X96412799Y-28091749D01*
X96214627Y-28570178D01*
X96113600Y-29078076D01*
X85652295Y-29078076D01*
X85578530Y-28707243D01*
X85415781Y-28314330D01*
X85179504Y-27960718D01*
X84878782Y-27659996D01*
X84525170Y-27423719D01*
X84132257Y-27260970D01*
X83715143Y-27178000D01*
X83289857Y-27178000D01*
X82872743Y-27260970D01*
X82479830Y-27423719D01*
X82126218Y-27659996D01*
X81825496Y-27960718D01*
X81589219Y-28314330D01*
X81426470Y-28707243D01*
X81343500Y-29124357D01*
X75819000Y-29124357D01*
X75736030Y-28707243D01*
X75573281Y-28314330D01*
X75337004Y-27960718D01*
X75036282Y-27659996D01*
X74682670Y-27423719D01*
X74289757Y-27260970D01*
X73872643Y-27178000D01*
X73447357Y-27178000D01*
X73030243Y-27260970D01*
X72637330Y-27423719D01*
X72283718Y-27659996D01*
X71982996Y-27960718D01*
X71746719Y-28314330D01*
X71583970Y-28707243D01*
X71501000Y-29124357D01*
X61048900Y-29124357D01*
X61048900Y-29078076D01*
X60947873Y-28570178D01*
X60749701Y-28091749D01*
X60462000Y-27661174D01*
X60095826Y-27295000D01*
X59665251Y-27007299D01*
X59186822Y-26809127D01*
X58678924Y-26708100D01*
X58161076Y-26708100D01*
X57653178Y-26809127D01*
X57174749Y-27007299D01*
X56744174Y-27295000D01*
X56378000Y-27661174D01*
X56090299Y-28091749D01*
X55892127Y-28570178D01*
X55791100Y-29078076D01*
X48983900Y-29078076D01*
X48882873Y-28570178D01*
X48684701Y-28091749D01*
X48397000Y-27661174D01*
X48030826Y-27295000D01*
X47600251Y-27007299D01*
X47121822Y-26809127D01*
X46613924Y-26708100D01*
X46096076Y-26708100D01*
X45588178Y-26809127D01*
X45109749Y-27007299D01*
X44679174Y-27295000D01*
X44313000Y-27661174D01*
X44025299Y-28091749D01*
X43827127Y-28570178D01*
X43726100Y-29078076D01*
X33264795Y-29078076D01*
X33191030Y-28707243D01*
X33028281Y-28314330D01*
X32792004Y-27960718D01*
X32491282Y-27659996D01*
X32137670Y-27423719D01*
X31744757Y-27260970D01*
X31327643Y-27178000D01*
X30902357Y-27178000D01*
X30485243Y-27260970D01*
X30092330Y-27423719D01*
X29738718Y-27659996D01*
X29437996Y-27960718D01*
X29235000Y-28264522D01*
X29235000Y-22885000D01*
X127133751Y-22885000D01*
X127133751Y-27466203D01*
%TA.AperFunction,Conductor*%
D15*
G36*
X127133751Y-27466203D02*
G01*
X127070170Y-27423719D01*
X126677257Y-27260970D01*
X126260143Y-27178000D01*
X125834857Y-27178000D01*
X125417743Y-27260970D01*
X125024830Y-27423719D01*
X124671218Y-27659996D01*
X124370496Y-27960718D01*
X124134219Y-28314330D01*
X123971470Y-28707243D01*
X123888500Y-29124357D01*
X123888500Y-29549643D01*
X123971470Y-29966757D01*
X124134219Y-30359670D01*
X124370496Y-30713282D01*
X124671218Y-31014004D01*
X125024830Y-31250281D01*
X125417743Y-31413030D01*
X125834857Y-31496000D01*
X126260143Y-31496000D01*
X126677257Y-31413030D01*
X127070170Y-31250281D01*
X127133751Y-31207797D01*
X127133751Y-51342202D01*
X127070170Y-51299719D01*
X126677257Y-51136970D01*
X126260143Y-51054000D01*
X125834857Y-51054000D01*
X125417743Y-51136970D01*
X125024830Y-51299719D01*
X124671218Y-51535996D01*
X124370496Y-51836718D01*
X124134219Y-52190330D01*
X123971470Y-52583243D01*
X123888500Y-53000357D01*
X123888500Y-53425643D01*
X123971470Y-53842757D01*
X124134219Y-54235670D01*
X124370496Y-54589282D01*
X124671218Y-54890004D01*
X125024830Y-55126281D01*
X125417743Y-55289030D01*
X125834857Y-55372000D01*
X126260143Y-55372000D01*
X126677257Y-55289030D01*
X127070170Y-55126281D01*
X127133751Y-55083798D01*
X127133750Y-65566202D01*
X127070170Y-65523719D01*
X126677257Y-65360970D01*
X126260143Y-65278000D01*
X125834857Y-65278000D01*
X125417743Y-65360970D01*
X125024830Y-65523719D01*
X124671218Y-65759996D01*
X124370496Y-66060718D01*
X124134219Y-66414330D01*
X123971470Y-66807243D01*
X123888500Y-67224357D01*
X123888500Y-67649643D01*
X123971470Y-68066757D01*
X124134219Y-68459670D01*
X124370496Y-68813282D01*
X124671218Y-69114004D01*
X125024830Y-69350281D01*
X125417743Y-69513030D01*
X125834857Y-69596000D01*
X126260143Y-69596000D01*
X126677257Y-69513030D01*
X127070170Y-69350281D01*
X127133750Y-69307798D01*
X127133750Y-89442202D01*
X127070170Y-89399719D01*
X126677257Y-89236970D01*
X126260143Y-89154000D01*
X125834857Y-89154000D01*
X125417743Y-89236970D01*
X125024830Y-89399719D01*
X124671218Y-89635996D01*
X124370496Y-89936718D01*
X124134219Y-90290330D01*
X123971470Y-90683243D01*
X123888500Y-91100357D01*
X123888500Y-91525643D01*
X123971470Y-91942757D01*
X124134219Y-92335670D01*
X124370496Y-92689282D01*
X124671218Y-92990004D01*
X125024830Y-93226281D01*
X125417743Y-93389030D01*
X125834857Y-93472000D01*
X126260143Y-93472000D01*
X126677257Y-93389030D01*
X127070170Y-93226281D01*
X127133750Y-93183798D01*
X127133750Y-97765000D01*
X29235000Y-97765000D01*
X29235000Y-92385478D01*
X29437996Y-92689282D01*
X29738718Y-92990004D01*
X30092330Y-93226281D01*
X30485243Y-93389030D01*
X30902357Y-93472000D01*
X31327643Y-93472000D01*
X31744757Y-93389030D01*
X32137670Y-93226281D01*
X32491282Y-92990004D01*
X32792004Y-92689282D01*
X33028281Y-92335670D01*
X33191030Y-91942757D01*
X33274000Y-91525643D01*
X33274000Y-91100357D01*
X33264795Y-91054076D01*
X43726100Y-91054076D01*
X43726100Y-91571924D01*
X43827127Y-92079822D01*
X44025299Y-92558251D01*
X44313000Y-92988826D01*
X44679174Y-93355000D01*
X45109749Y-93642701D01*
X45588178Y-93840873D01*
X46096076Y-93941900D01*
X46613924Y-93941900D01*
X47121822Y-93840873D01*
X47600251Y-93642701D01*
X48030826Y-93355000D01*
X48397000Y-92988826D01*
X48684701Y-92558251D01*
X48882873Y-92079822D01*
X48983900Y-91571924D01*
X48983900Y-91054076D01*
X55791100Y-91054076D01*
X55791100Y-91571924D01*
X55892127Y-92079822D01*
X56090299Y-92558251D01*
X56378000Y-92988826D01*
X56744174Y-93355000D01*
X57174749Y-93642701D01*
X57653178Y-93840873D01*
X58161076Y-93941900D01*
X58678924Y-93941900D01*
X59186822Y-93840873D01*
X59665251Y-93642701D01*
X60095826Y-93355000D01*
X60462000Y-92988826D01*
X60749701Y-92558251D01*
X60947873Y-92079822D01*
X61048900Y-91571924D01*
X61048900Y-91100357D01*
X71501000Y-91100357D01*
X71501000Y-91525643D01*
X71583970Y-91942757D01*
X71746719Y-92335670D01*
X71982996Y-92689282D01*
X72283718Y-92990004D01*
X72637330Y-93226281D01*
X73030243Y-93389030D01*
X73447357Y-93472000D01*
X73872643Y-93472000D01*
X74289757Y-93389030D01*
X74682670Y-93226281D01*
X75036282Y-92990004D01*
X75337004Y-92689282D01*
X75573281Y-92335670D01*
X75736030Y-91942757D01*
X75819000Y-91525643D01*
X75819000Y-91100357D01*
X81343500Y-91100357D01*
X81343500Y-91525643D01*
X81426470Y-91942757D01*
X81589219Y-92335670D01*
X81825496Y-92689282D01*
X82126218Y-92990004D01*
X82479830Y-93226281D01*
X82872743Y-93389030D01*
X83289857Y-93472000D01*
X83715143Y-93472000D01*
X84132257Y-93389030D01*
X84525170Y-93226281D01*
X84878782Y-92990004D01*
X85179504Y-92689282D01*
X85415781Y-92335670D01*
X85578530Y-91942757D01*
X85661500Y-91525643D01*
X85661500Y-91100357D01*
X85652295Y-91054076D01*
X96113600Y-91054076D01*
X96113600Y-91571924D01*
X96214627Y-92079822D01*
X96412799Y-92558251D01*
X96700500Y-92988826D01*
X97066674Y-93355000D01*
X97497249Y-93642701D01*
X97975678Y-93840873D01*
X98483576Y-93941900D01*
X99001424Y-93941900D01*
X99509322Y-93840873D01*
X99987751Y-93642701D01*
X100418326Y-93355000D01*
X100784500Y-92988826D01*
X101072201Y-92558251D01*
X101270373Y-92079822D01*
X101371400Y-91571924D01*
X101371400Y-91054076D01*
X108178600Y-91054076D01*
X108178600Y-91571924D01*
X108279627Y-92079822D01*
X108477799Y-92558251D01*
X108765500Y-92988826D01*
X109131674Y-93355000D01*
X109562249Y-93642701D01*
X110040678Y-93840873D01*
X110548576Y-93941900D01*
X111066424Y-93941900D01*
X111574322Y-93840873D01*
X112052751Y-93642701D01*
X112483326Y-93355000D01*
X112849500Y-92988826D01*
X113137201Y-92558251D01*
X113335373Y-92079822D01*
X113436400Y-91571924D01*
X113436400Y-91054076D01*
X113335373Y-90546178D01*
X113137201Y-90067749D01*
X112849500Y-89637174D01*
X112483326Y-89271000D01*
X112052751Y-88983299D01*
X111574322Y-88785127D01*
X111066424Y-88684100D01*
X110548576Y-88684100D01*
X110040678Y-88785127D01*
X109562249Y-88983299D01*
X109131674Y-89271000D01*
X108765500Y-89637174D01*
X108477799Y-90067749D01*
X108279627Y-90546178D01*
X108178600Y-91054076D01*
X101371400Y-91054076D01*
X101270373Y-90546178D01*
X101072201Y-90067749D01*
X100784500Y-89637174D01*
X100418326Y-89271000D01*
X99987751Y-88983299D01*
X99509322Y-88785127D01*
X99001424Y-88684100D01*
X98483576Y-88684100D01*
X97975678Y-88785127D01*
X97497249Y-88983299D01*
X97066674Y-89271000D01*
X96700500Y-89637174D01*
X96412799Y-90067749D01*
X96214627Y-90546178D01*
X96113600Y-91054076D01*
X85652295Y-91054076D01*
X85578530Y-90683243D01*
X85415781Y-90290330D01*
X85179504Y-89936718D01*
X84878782Y-89635996D01*
X84525170Y-89399719D01*
X84132257Y-89236970D01*
X83715143Y-89154000D01*
X83289857Y-89154000D01*
X82872743Y-89236970D01*
X82479830Y-89399719D01*
X82126218Y-89635996D01*
X81825496Y-89936718D01*
X81589219Y-90290330D01*
X81426470Y-90683243D01*
X81343500Y-91100357D01*
X75819000Y-91100357D01*
X75736030Y-90683243D01*
X75573281Y-90290330D01*
X75337004Y-89936718D01*
X75036282Y-89635996D01*
X74682670Y-89399719D01*
X74289757Y-89236970D01*
X73872643Y-89154000D01*
X73447357Y-89154000D01*
X73030243Y-89236970D01*
X72637330Y-89399719D01*
X72283718Y-89635996D01*
X71982996Y-89936718D01*
X71746719Y-90290330D01*
X71583970Y-90683243D01*
X71501000Y-91100357D01*
X61048900Y-91100357D01*
X61048900Y-91054076D01*
X60947873Y-90546178D01*
X60749701Y-90067749D01*
X60462000Y-89637174D01*
X60095826Y-89271000D01*
X59665251Y-88983299D01*
X59186822Y-88785127D01*
X58678924Y-88684100D01*
X58161076Y-88684100D01*
X57653178Y-88785127D01*
X57174749Y-88983299D01*
X56744174Y-89271000D01*
X56378000Y-89637174D01*
X56090299Y-90067749D01*
X55892127Y-90546178D01*
X55791100Y-91054076D01*
X48983900Y-91054076D01*
X48882873Y-90546178D01*
X48684701Y-90067749D01*
X48397000Y-89637174D01*
X48030826Y-89271000D01*
X47600251Y-88983299D01*
X47121822Y-88785127D01*
X46613924Y-88684100D01*
X46096076Y-88684100D01*
X45588178Y-88785127D01*
X45109749Y-88983299D01*
X44679174Y-89271000D01*
X44313000Y-89637174D01*
X44025299Y-90067749D01*
X43827127Y-90546178D01*
X43726100Y-91054076D01*
X33264795Y-91054076D01*
X33191030Y-90683243D01*
X33028281Y-90290330D01*
X32792004Y-89936718D01*
X32491282Y-89635996D01*
X32137670Y-89399719D01*
X31744757Y-89236970D01*
X31327643Y-89154000D01*
X30902357Y-89154000D01*
X30485243Y-89236970D01*
X30092330Y-89399719D01*
X29738718Y-89635996D01*
X29437996Y-89936718D01*
X29235000Y-90240522D01*
X29235000Y-83011655D01*
X33800000Y-83011655D01*
X33800000Y-83358345D01*
X33867636Y-83698373D01*
X34000308Y-84018673D01*
X34192919Y-84306935D01*
X34438065Y-84552081D01*
X34726327Y-84744692D01*
X35046627Y-84877364D01*
X35386655Y-84945000D01*
X35733345Y-84945000D01*
X36073373Y-84877364D01*
X36393673Y-84744692D01*
X36591719Y-84612362D01*
X36648029Y-84895451D01*
X36761856Y-85170253D01*
X36927107Y-85417569D01*
X37137431Y-85627893D01*
X37384747Y-85793144D01*
X37659549Y-85906971D01*
X37951278Y-85965000D01*
X38248722Y-85965000D01*
X38540451Y-85906971D01*
X38815253Y-85793144D01*
X39062569Y-85627893D01*
X39272893Y-85417569D01*
X39438144Y-85170253D01*
X39551971Y-84895451D01*
X39610000Y-84603722D01*
X39610000Y-84306278D01*
X65165000Y-84306278D01*
X65165000Y-84603722D01*
X65223029Y-84895451D01*
X65336856Y-85170253D01*
X65502107Y-85417569D01*
X65712431Y-85627893D01*
X65959747Y-85793144D01*
X66234549Y-85906971D01*
X66526278Y-85965000D01*
X66823722Y-85965000D01*
X67115451Y-85906971D01*
X67390253Y-85793144D01*
X67637569Y-85627893D01*
X67847893Y-85417569D01*
X68013144Y-85170253D01*
X68126971Y-84895451D01*
X68185000Y-84603722D01*
X68185000Y-84306278D01*
X68126971Y-84014549D01*
X68013144Y-83739747D01*
X67847893Y-83492431D01*
X67637569Y-83282107D01*
X67424189Y-83139531D01*
X70710074Y-83139531D01*
X70820921Y-83416714D01*
X71131840Y-83570089D01*
X71466705Y-83659860D01*
X71812650Y-83682576D01*
X72156380Y-83637366D01*
X72484685Y-83525966D01*
X72689079Y-83416714D01*
X72799926Y-83139531D01*
X71755000Y-82094605D01*
X70710074Y-83139531D01*
X67424189Y-83139531D01*
X67390253Y-83116856D01*
X67115451Y-83003029D01*
X66823722Y-82945000D01*
X66526278Y-82945000D01*
X66234549Y-83003029D01*
X65959747Y-83116856D01*
X65712431Y-83282107D01*
X65502107Y-83492431D01*
X65336856Y-83739747D01*
X65223029Y-84014549D01*
X65165000Y-84306278D01*
X39610000Y-84306278D01*
X39551971Y-84014549D01*
X39438144Y-83739747D01*
X39272893Y-83492431D01*
X39062569Y-83282107D01*
X38815253Y-83116856D01*
X38540451Y-83003029D01*
X38248722Y-82945000D01*
X37951278Y-82945000D01*
X37659549Y-83003029D01*
X37384747Y-83116856D01*
X37320000Y-83160118D01*
X37320000Y-83011655D01*
X37252364Y-82671627D01*
X37119692Y-82351327D01*
X36927081Y-82063065D01*
X36681935Y-81817919D01*
X36393673Y-81625308D01*
X36320000Y-81594792D01*
X36320000Y-81312826D01*
X36424174Y-81417000D01*
X36854749Y-81704701D01*
X37333178Y-81902873D01*
X37841076Y-82003900D01*
X38358924Y-82003900D01*
X38866822Y-81902873D01*
X39345251Y-81704701D01*
X39775826Y-81417000D01*
X40142000Y-81050826D01*
X40429701Y-80620251D01*
X40627873Y-80141822D01*
X40728900Y-79633924D01*
X40728900Y-79116076D01*
X64046100Y-79116076D01*
X64046100Y-79633924D01*
X64147127Y-80141822D01*
X64345299Y-80620251D01*
X64633000Y-81050826D01*
X64999174Y-81417000D01*
X65429749Y-81704701D01*
X65908178Y-81902873D01*
X66416076Y-82003900D01*
X66933924Y-82003900D01*
X67091028Y-81972650D01*
X69987424Y-81972650D01*
X70032634Y-82316380D01*
X70144034Y-82644685D01*
X70253286Y-82849079D01*
X70530469Y-82959926D01*
X71575395Y-81915000D01*
X71934605Y-81915000D01*
X72979531Y-82959926D01*
X73256714Y-82849079D01*
X73410089Y-82538160D01*
X73499860Y-82203295D01*
X73522576Y-81857350D01*
X73477366Y-81513620D01*
X73365966Y-81185315D01*
X73256714Y-80980921D01*
X72979531Y-80870074D01*
X71934605Y-81915000D01*
X71575395Y-81915000D01*
X70530469Y-80870074D01*
X70253286Y-80980921D01*
X70099911Y-81291840D01*
X70010140Y-81626705D01*
X69987424Y-81972650D01*
X67091028Y-81972650D01*
X67441822Y-81902873D01*
X67920251Y-81704701D01*
X68350826Y-81417000D01*
X68717000Y-81050826D01*
X68957782Y-80690469D01*
X70710074Y-80690469D01*
X71755000Y-81735395D01*
X72799926Y-80690469D01*
X72689079Y-80413286D01*
X72378160Y-80259911D01*
X72043295Y-80170140D01*
X71697350Y-80147424D01*
X71353620Y-80192634D01*
X71025315Y-80304034D01*
X70820921Y-80413286D01*
X70710074Y-80690469D01*
X68957782Y-80690469D01*
X69004701Y-80620251D01*
X69202873Y-80141822D01*
X69303900Y-79633924D01*
X69303900Y-79116076D01*
X69202873Y-78608178D01*
X69004701Y-78129749D01*
X68717000Y-77699174D01*
X68350826Y-77333000D01*
X67920251Y-77045299D01*
X67441822Y-76847127D01*
X66933924Y-76746100D01*
X66416076Y-76746100D01*
X65908178Y-76847127D01*
X65429749Y-77045299D01*
X64999174Y-77333000D01*
X64633000Y-77699174D01*
X64345299Y-78129749D01*
X64147127Y-78608178D01*
X64046100Y-79116076D01*
X40728900Y-79116076D01*
X40627873Y-78608178D01*
X40429701Y-78129749D01*
X40142000Y-77699174D01*
X39775826Y-77333000D01*
X39345251Y-77045299D01*
X38866822Y-76847127D01*
X38358924Y-76746100D01*
X37841076Y-76746100D01*
X37333178Y-76847127D01*
X36854749Y-77045299D01*
X36424174Y-77333000D01*
X36320000Y-77437174D01*
X36320000Y-74146278D01*
X36590000Y-74146278D01*
X36590000Y-74443722D01*
X36648029Y-74735451D01*
X36761856Y-75010253D01*
X36927107Y-75257569D01*
X37137431Y-75467893D01*
X37384747Y-75633144D01*
X37659549Y-75746971D01*
X37951278Y-75805000D01*
X38248722Y-75805000D01*
X38540451Y-75746971D01*
X38815253Y-75633144D01*
X39062569Y-75467893D01*
X39272893Y-75257569D01*
X39438144Y-75010253D01*
X39551971Y-74735451D01*
X39610000Y-74443722D01*
X39610000Y-74146278D01*
X39551971Y-73854549D01*
X39438144Y-73579747D01*
X39272893Y-73332431D01*
X39062569Y-73122107D01*
X38815253Y-72956856D01*
X38540451Y-72843029D01*
X38248722Y-72785000D01*
X37951278Y-72785000D01*
X37659549Y-72843029D01*
X37384747Y-72956856D01*
X37137431Y-73122107D01*
X36927107Y-73332431D01*
X36761856Y-73579747D01*
X36648029Y-73854549D01*
X36590000Y-74146278D01*
X36320000Y-74146278D01*
X36320000Y-67754775D01*
X36896699Y-67178076D01*
X43726100Y-67178076D01*
X43726100Y-67695924D01*
X43827127Y-68203822D01*
X44025299Y-68682251D01*
X44313000Y-69112826D01*
X44679174Y-69479000D01*
X45109749Y-69766701D01*
X45588178Y-69964873D01*
X46096076Y-70065900D01*
X46613924Y-70065900D01*
X47121822Y-69964873D01*
X47600251Y-69766701D01*
X48030826Y-69479000D01*
X48397000Y-69112826D01*
X48684701Y-68682251D01*
X48882873Y-68203822D01*
X48983900Y-67695924D01*
X48983900Y-67178076D01*
X55791100Y-67178076D01*
X55791100Y-67695924D01*
X55892127Y-68203822D01*
X56090299Y-68682251D01*
X56378000Y-69112826D01*
X56744174Y-69479000D01*
X57174749Y-69766701D01*
X57653178Y-69964873D01*
X58161076Y-70065900D01*
X58678924Y-70065900D01*
X59186822Y-69964873D01*
X59665251Y-69766701D01*
X60095826Y-69479000D01*
X60462000Y-69112826D01*
X60749701Y-68682251D01*
X60947873Y-68203822D01*
X61048900Y-67695924D01*
X61048900Y-67178076D01*
X60947873Y-66670178D01*
X60749701Y-66191749D01*
X60462000Y-65761174D01*
X60095826Y-65395000D01*
X59665251Y-65107299D01*
X59186822Y-64909127D01*
X58678924Y-64808100D01*
X58161076Y-64808100D01*
X57653178Y-64909127D01*
X57174749Y-65107299D01*
X56744174Y-65395000D01*
X56378000Y-65761174D01*
X56090299Y-66191749D01*
X55892127Y-66670178D01*
X55791100Y-67178076D01*
X48983900Y-67178076D01*
X48882873Y-66670178D01*
X48684701Y-66191749D01*
X48397000Y-65761174D01*
X48030826Y-65395000D01*
X47600251Y-65107299D01*
X47121822Y-64909127D01*
X46613924Y-64808100D01*
X46096076Y-64808100D01*
X45588178Y-64909127D01*
X45109749Y-65107299D01*
X44679174Y-65395000D01*
X44313000Y-65761174D01*
X44025299Y-66191749D01*
X43827127Y-66670178D01*
X43726100Y-67178076D01*
X36896699Y-67178076D01*
X52898504Y-51176272D01*
X52927501Y-51152475D01*
X53022474Y-51036750D01*
X53093046Y-50904721D01*
X53136503Y-50761460D01*
X53147500Y-50649807D01*
X53147500Y-50649799D01*
X53151176Y-50612474D01*
X53147500Y-50575149D01*
X53147500Y-50204810D01*
X53350898Y-50068904D01*
X53561404Y-49858398D01*
X53657500Y-49714580D01*
X53753596Y-49858398D01*
X53964102Y-50068904D01*
X54167501Y-50204810D01*
X54167500Y-53115151D01*
X54163824Y-53152474D01*
X54167500Y-53189796D01*
X54167500Y-53189806D01*
X54178497Y-53301459D01*
X54216167Y-53425643D01*
X54221954Y-53444720D01*
X54292526Y-53576750D01*
X54332371Y-53625300D01*
X54387499Y-53692475D01*
X54416503Y-53716278D01*
X68455001Y-67754777D01*
X68455000Y-73974792D01*
X68381327Y-74005308D01*
X68183281Y-74137638D01*
X68126971Y-73854549D01*
X68013144Y-73579747D01*
X67847893Y-73332431D01*
X67637569Y-73122107D01*
X67390253Y-72956856D01*
X67115451Y-72843029D01*
X66823722Y-72785000D01*
X66526278Y-72785000D01*
X66234549Y-72843029D01*
X65959747Y-72956856D01*
X65712431Y-73122107D01*
X65502107Y-73332431D01*
X65336856Y-73579747D01*
X65223029Y-73854549D01*
X65165000Y-74146278D01*
X65165000Y-74443722D01*
X65223029Y-74735451D01*
X65336856Y-75010253D01*
X65502107Y-75257569D01*
X65712431Y-75467893D01*
X65959747Y-75633144D01*
X66234549Y-75746971D01*
X66526278Y-75805000D01*
X66823722Y-75805000D01*
X67115451Y-75746971D01*
X67390253Y-75633144D01*
X67455000Y-75589882D01*
X67455000Y-75738345D01*
X67522636Y-76078373D01*
X67655308Y-76398673D01*
X67847919Y-76686935D01*
X68093065Y-76932081D01*
X68381327Y-77124692D01*
X68701627Y-77257364D01*
X69041655Y-77325000D01*
X69388345Y-77325000D01*
X69728373Y-77257364D01*
X70048673Y-77124692D01*
X70336935Y-76932081D01*
X70582081Y-76686935D01*
X70774692Y-76398673D01*
X70907364Y-76078373D01*
X70975000Y-75738345D01*
X70975000Y-75391655D01*
X70907364Y-75051627D01*
X70774692Y-74731327D01*
X70582081Y-74443065D01*
X70336935Y-74197919D01*
X70048673Y-74005308D01*
X69975000Y-73974792D01*
X69975000Y-67477296D01*
X69978676Y-67439973D01*
X69975000Y-67402650D01*
X69975000Y-67402641D01*
X69964003Y-67290988D01*
X69920546Y-67147727D01*
X69849974Y-67015698D01*
X69755001Y-66899973D01*
X69726003Y-66876175D01*
X58689603Y-55839776D01*
X59186822Y-55740873D01*
X59665251Y-55542701D01*
X60095826Y-55255000D01*
X60462000Y-54888826D01*
X60749701Y-54458251D01*
X60947873Y-53979822D01*
X61048900Y-53471924D01*
X61048900Y-53164179D01*
X73209945Y-65325225D01*
X73030243Y-65360970D01*
X72637330Y-65523719D01*
X72283718Y-65759996D01*
X71982996Y-66060718D01*
X71746719Y-66414330D01*
X71583970Y-66807243D01*
X71501000Y-67224357D01*
X71501000Y-67649643D01*
X71583970Y-68066757D01*
X71746719Y-68459670D01*
X71982996Y-68813282D01*
X72283718Y-69114004D01*
X72637330Y-69350281D01*
X73030243Y-69513030D01*
X73447357Y-69596000D01*
X73872643Y-69596000D01*
X74289757Y-69513030D01*
X74682670Y-69350281D01*
X75036282Y-69114004D01*
X75337004Y-68813282D01*
X75573281Y-68459670D01*
X75736030Y-68066757D01*
X75771775Y-67887055D01*
X77027501Y-69142781D01*
X77027500Y-76162678D01*
X77023824Y-76200000D01*
X77027500Y-76237322D01*
X77027500Y-76237332D01*
X77038497Y-76348985D01*
X77081954Y-76492246D01*
X77152526Y-76624276D01*
X77178065Y-76655395D01*
X77247499Y-76740001D01*
X77276503Y-76763804D01*
X84208701Y-83696003D01*
X84232499Y-83725001D01*
X84348224Y-83819974D01*
X84480253Y-83890546D01*
X84623514Y-83934003D01*
X84735167Y-83945000D01*
X84735175Y-83945000D01*
X84772500Y-83948676D01*
X84809825Y-83945000D01*
X86357292Y-83945000D01*
X86387808Y-84018673D01*
X86580419Y-84306935D01*
X86825565Y-84552081D01*
X87113827Y-84744692D01*
X87434127Y-84877364D01*
X87774155Y-84945000D01*
X88120845Y-84945000D01*
X88460873Y-84877364D01*
X88781173Y-84744692D01*
X88979219Y-84612362D01*
X89035529Y-84895451D01*
X89149356Y-85170253D01*
X89314607Y-85417569D01*
X89524931Y-85627893D01*
X89772247Y-85793144D01*
X90047049Y-85906971D01*
X90338778Y-85965000D01*
X90636222Y-85965000D01*
X90927951Y-85906971D01*
X91202753Y-85793144D01*
X91450069Y-85627893D01*
X91660393Y-85417569D01*
X91825644Y-85170253D01*
X91939471Y-84895451D01*
X91997500Y-84603722D01*
X91997500Y-84306278D01*
X117552500Y-84306278D01*
X117552500Y-84603722D01*
X117610529Y-84895451D01*
X117724356Y-85170253D01*
X117889607Y-85417569D01*
X118099931Y-85627893D01*
X118347247Y-85793144D01*
X118622049Y-85906971D01*
X118913778Y-85965000D01*
X119211222Y-85965000D01*
X119502951Y-85906971D01*
X119777753Y-85793144D01*
X120025069Y-85627893D01*
X120235393Y-85417569D01*
X120400644Y-85170253D01*
X120514471Y-84895451D01*
X120572500Y-84603722D01*
X120572500Y-84306278D01*
X120514471Y-84014549D01*
X120400644Y-83739747D01*
X120235393Y-83492431D01*
X120025069Y-83282107D01*
X119811689Y-83139531D01*
X123097574Y-83139531D01*
X123208421Y-83416714D01*
X123519340Y-83570089D01*
X123854205Y-83659860D01*
X124200150Y-83682576D01*
X124543880Y-83637366D01*
X124872185Y-83525966D01*
X125076579Y-83416714D01*
X125187426Y-83139531D01*
X124142500Y-82094605D01*
X123097574Y-83139531D01*
X119811689Y-83139531D01*
X119777753Y-83116856D01*
X119502951Y-83003029D01*
X119211222Y-82945000D01*
X118913778Y-82945000D01*
X118622049Y-83003029D01*
X118347247Y-83116856D01*
X118099931Y-83282107D01*
X117889607Y-83492431D01*
X117724356Y-83739747D01*
X117610529Y-84014549D01*
X117552500Y-84306278D01*
X91997500Y-84306278D01*
X91939471Y-84014549D01*
X91825644Y-83739747D01*
X91660393Y-83492431D01*
X91450069Y-83282107D01*
X91202753Y-83116856D01*
X90927951Y-83003029D01*
X90636222Y-82945000D01*
X90338778Y-82945000D01*
X90047049Y-83003029D01*
X89772247Y-83116856D01*
X89707500Y-83160118D01*
X89707500Y-83011655D01*
X89639864Y-82671627D01*
X89507192Y-82351327D01*
X89314581Y-82063065D01*
X89069435Y-81817919D01*
X88781173Y-81625308D01*
X88460873Y-81492636D01*
X88120845Y-81425000D01*
X87774155Y-81425000D01*
X87434127Y-81492636D01*
X87113827Y-81625308D01*
X86825565Y-81817919D01*
X86580419Y-82063065D01*
X86387808Y-82351327D01*
X86357292Y-82425000D01*
X85087302Y-82425000D01*
X81778378Y-79116076D01*
X87858600Y-79116076D01*
X87858600Y-79633924D01*
X87959627Y-80141822D01*
X88157799Y-80620251D01*
X88445500Y-81050826D01*
X88811674Y-81417000D01*
X89242249Y-81704701D01*
X89720678Y-81902873D01*
X90228576Y-82003900D01*
X90746424Y-82003900D01*
X91254322Y-81902873D01*
X91732751Y-81704701D01*
X92163326Y-81417000D01*
X92529500Y-81050826D01*
X92817201Y-80620251D01*
X93015373Y-80141822D01*
X93116400Y-79633924D01*
X93116400Y-79116076D01*
X116433600Y-79116076D01*
X116433600Y-79633924D01*
X116534627Y-80141822D01*
X116732799Y-80620251D01*
X117020500Y-81050826D01*
X117386674Y-81417000D01*
X117817249Y-81704701D01*
X118295678Y-81902873D01*
X118803576Y-82003900D01*
X119321424Y-82003900D01*
X119478528Y-81972650D01*
X122374924Y-81972650D01*
X122420134Y-82316380D01*
X122531534Y-82644685D01*
X122640786Y-82849079D01*
X122917969Y-82959926D01*
X123962895Y-81915000D01*
X124322105Y-81915000D01*
X125367031Y-82959926D01*
X125644214Y-82849079D01*
X125797589Y-82538160D01*
X125887360Y-82203295D01*
X125910076Y-81857350D01*
X125864866Y-81513620D01*
X125753466Y-81185315D01*
X125644214Y-80980921D01*
X125367031Y-80870074D01*
X124322105Y-81915000D01*
X123962895Y-81915000D01*
X122917969Y-80870074D01*
X122640786Y-80980921D01*
X122487411Y-81291840D01*
X122397640Y-81626705D01*
X122374924Y-81972650D01*
X119478528Y-81972650D01*
X119829322Y-81902873D01*
X120307751Y-81704701D01*
X120738326Y-81417000D01*
X121104500Y-81050826D01*
X121345282Y-80690469D01*
X123097574Y-80690469D01*
X124142500Y-81735395D01*
X125187426Y-80690469D01*
X125076579Y-80413286D01*
X124765660Y-80259911D01*
X124430795Y-80170140D01*
X124084850Y-80147424D01*
X123741120Y-80192634D01*
X123412815Y-80304034D01*
X123208421Y-80413286D01*
X123097574Y-80690469D01*
X121345282Y-80690469D01*
X121392201Y-80620251D01*
X121590373Y-80141822D01*
X121691400Y-79633924D01*
X121691400Y-79116076D01*
X121590373Y-78608178D01*
X121392201Y-78129749D01*
X121104500Y-77699174D01*
X120738326Y-77333000D01*
X120307751Y-77045299D01*
X119829322Y-76847127D01*
X119321424Y-76746100D01*
X118803576Y-76746100D01*
X118295678Y-76847127D01*
X117817249Y-77045299D01*
X117386674Y-77333000D01*
X117020500Y-77699174D01*
X116732799Y-78129749D01*
X116534627Y-78608178D01*
X116433600Y-79116076D01*
X93116400Y-79116076D01*
X93015373Y-78608178D01*
X92817201Y-78129749D01*
X92529500Y-77699174D01*
X92163326Y-77333000D01*
X91732751Y-77045299D01*
X91254322Y-76847127D01*
X90746424Y-76746100D01*
X90228576Y-76746100D01*
X89720678Y-76847127D01*
X89242249Y-77045299D01*
X88811674Y-77333000D01*
X88445500Y-77699174D01*
X88157799Y-78129749D01*
X87959627Y-78608178D01*
X87858600Y-79116076D01*
X81778378Y-79116076D01*
X80721833Y-78059531D01*
X84362574Y-78059531D01*
X84473421Y-78336714D01*
X84784340Y-78490089D01*
X85119205Y-78579860D01*
X85465150Y-78602576D01*
X85808880Y-78557366D01*
X86137185Y-78445966D01*
X86341579Y-78336714D01*
X86452426Y-78059531D01*
X85407500Y-77014605D01*
X84362574Y-78059531D01*
X80721833Y-78059531D01*
X79554952Y-76892650D01*
X83639924Y-76892650D01*
X83685134Y-77236380D01*
X83796534Y-77564685D01*
X83905786Y-77769079D01*
X84182969Y-77879926D01*
X85227895Y-76835000D01*
X85587105Y-76835000D01*
X86632031Y-77879926D01*
X86909214Y-77769079D01*
X87062589Y-77458160D01*
X87152360Y-77123295D01*
X87175076Y-76777350D01*
X87129866Y-76433620D01*
X87018466Y-76105315D01*
X86909214Y-75900921D01*
X86632031Y-75790074D01*
X85587105Y-76835000D01*
X85227895Y-76835000D01*
X84182969Y-75790074D01*
X83905786Y-75900921D01*
X83752411Y-76211840D01*
X83662640Y-76546705D01*
X83639924Y-76892650D01*
X79554952Y-76892650D01*
X78547500Y-75885199D01*
X78547500Y-75610469D01*
X84362574Y-75610469D01*
X85407500Y-76655395D01*
X86452426Y-75610469D01*
X86341579Y-75333286D01*
X86030660Y-75179911D01*
X85695795Y-75090140D01*
X85349850Y-75067424D01*
X85006120Y-75112634D01*
X84677815Y-75224034D01*
X84473421Y-75333286D01*
X84362574Y-75610469D01*
X78547500Y-75610469D01*
X78547500Y-74146278D01*
X88977500Y-74146278D01*
X88977500Y-74443722D01*
X89035529Y-74735451D01*
X89149356Y-75010253D01*
X89314607Y-75257569D01*
X89524931Y-75467893D01*
X89772247Y-75633144D01*
X90047049Y-75746971D01*
X90338778Y-75805000D01*
X90636222Y-75805000D01*
X90927951Y-75746971D01*
X91202753Y-75633144D01*
X91450069Y-75467893D01*
X91660393Y-75257569D01*
X91825644Y-75010253D01*
X91939471Y-74735451D01*
X91997500Y-74443722D01*
X91997500Y-74146278D01*
X91939471Y-73854549D01*
X91825644Y-73579747D01*
X91660393Y-73332431D01*
X91450069Y-73122107D01*
X91202753Y-72956856D01*
X90927951Y-72843029D01*
X90636222Y-72785000D01*
X90338778Y-72785000D01*
X90047049Y-72843029D01*
X89772247Y-72956856D01*
X89524931Y-73122107D01*
X89314607Y-73332431D01*
X89149356Y-73579747D01*
X89035529Y-73854549D01*
X88977500Y-74146278D01*
X78547500Y-74146278D01*
X78547500Y-68865301D01*
X78551176Y-68827978D01*
X78547500Y-68790655D01*
X78547500Y-68790645D01*
X78536503Y-68678992D01*
X78493046Y-68535731D01*
X78422474Y-68403702D01*
X78335857Y-68298159D01*
X81986200Y-71948502D01*
X82009999Y-71977501D01*
X82125724Y-72072474D01*
X82257753Y-72143046D01*
X82401014Y-72186503D01*
X82512667Y-72197500D01*
X82512676Y-72197500D01*
X82549999Y-72201176D01*
X82587322Y-72197500D01*
X119541449Y-72197500D01*
X120842500Y-73498553D01*
X120842500Y-73974792D01*
X120768827Y-74005308D01*
X120570781Y-74137638D01*
X120514471Y-73854549D01*
X120400644Y-73579747D01*
X120235393Y-73332431D01*
X120025069Y-73122107D01*
X119777753Y-72956856D01*
X119502951Y-72843029D01*
X119211222Y-72785000D01*
X118913778Y-72785000D01*
X118622049Y-72843029D01*
X118347247Y-72956856D01*
X118099931Y-73122107D01*
X117889607Y-73332431D01*
X117724356Y-73579747D01*
X117610529Y-73854549D01*
X117552500Y-74146278D01*
X117552500Y-74443722D01*
X117610529Y-74735451D01*
X117724356Y-75010253D01*
X117889607Y-75257569D01*
X118099931Y-75467893D01*
X118347247Y-75633144D01*
X118622049Y-75746971D01*
X118913778Y-75805000D01*
X119211222Y-75805000D01*
X119502951Y-75746971D01*
X119777753Y-75633144D01*
X119842500Y-75589882D01*
X119842500Y-75738345D01*
X119910136Y-76078373D01*
X120042808Y-76398673D01*
X120235419Y-76686935D01*
X120480565Y-76932081D01*
X120768827Y-77124692D01*
X121089127Y-77257364D01*
X121429155Y-77325000D01*
X121775845Y-77325000D01*
X122115873Y-77257364D01*
X122436173Y-77124692D01*
X122724435Y-76932081D01*
X122969581Y-76686935D01*
X123162192Y-76398673D01*
X123294864Y-76078373D01*
X123362500Y-75738345D01*
X123362500Y-75391655D01*
X123294864Y-75051627D01*
X123162192Y-74731327D01*
X122969581Y-74443065D01*
X122724435Y-74197919D01*
X122436173Y-74005308D01*
X122362500Y-73974792D01*
X122362500Y-73221072D01*
X122366176Y-73183749D01*
X122362500Y-73146426D01*
X122362500Y-73146417D01*
X122351503Y-73034764D01*
X122308046Y-72891503D01*
X122237474Y-72759474D01*
X122224311Y-72743435D01*
X122166299Y-72672746D01*
X122166295Y-72672742D01*
X122142501Y-72643749D01*
X122113509Y-72619956D01*
X120420053Y-70926502D01*
X120396251Y-70897499D01*
X120280526Y-70802526D01*
X120148497Y-70731954D01*
X120005236Y-70688497D01*
X119893583Y-70677500D01*
X119893572Y-70677500D01*
X119856250Y-70673824D01*
X119818928Y-70677500D01*
X82864802Y-70677500D01*
X79411659Y-67224357D01*
X81343500Y-67224357D01*
X81343500Y-67649643D01*
X81426470Y-68066757D01*
X81589219Y-68459670D01*
X81825496Y-68813282D01*
X82126218Y-69114004D01*
X82479830Y-69350281D01*
X82872743Y-69513030D01*
X83289857Y-69596000D01*
X83715143Y-69596000D01*
X84132257Y-69513030D01*
X84525170Y-69350281D01*
X84878782Y-69114004D01*
X85179504Y-68813282D01*
X85415781Y-68459670D01*
X85578530Y-68066757D01*
X85661500Y-67649643D01*
X85661500Y-67224357D01*
X85652295Y-67178076D01*
X96113600Y-67178076D01*
X96113600Y-67695924D01*
X96214627Y-68203822D01*
X96412799Y-68682251D01*
X96700500Y-69112826D01*
X97066674Y-69479000D01*
X97497249Y-69766701D01*
X97975678Y-69964873D01*
X98483576Y-70065900D01*
X99001424Y-70065900D01*
X99509322Y-69964873D01*
X99987751Y-69766701D01*
X100418326Y-69479000D01*
X100784500Y-69112826D01*
X101072201Y-68682251D01*
X101270373Y-68203822D01*
X101371400Y-67695924D01*
X101371400Y-67178076D01*
X108178600Y-67178076D01*
X108178600Y-67695924D01*
X108279627Y-68203822D01*
X108477799Y-68682251D01*
X108765500Y-69112826D01*
X109131674Y-69479000D01*
X109562249Y-69766701D01*
X110040678Y-69964873D01*
X110548576Y-70065900D01*
X111066424Y-70065900D01*
X111574322Y-69964873D01*
X112052751Y-69766701D01*
X112483326Y-69479000D01*
X112849500Y-69112826D01*
X113137201Y-68682251D01*
X113335373Y-68203822D01*
X113436400Y-67695924D01*
X113436400Y-67178076D01*
X113335373Y-66670178D01*
X113137201Y-66191749D01*
X112849500Y-65761174D01*
X112483326Y-65395000D01*
X112052751Y-65107299D01*
X111574322Y-64909127D01*
X111066424Y-64808100D01*
X110548576Y-64808100D01*
X110040678Y-64909127D01*
X109562249Y-65107299D01*
X109131674Y-65395000D01*
X108765500Y-65761174D01*
X108477799Y-66191749D01*
X108279627Y-66670178D01*
X108178600Y-67178076D01*
X101371400Y-67178076D01*
X101270373Y-66670178D01*
X101072201Y-66191749D01*
X100784500Y-65761174D01*
X100418326Y-65395000D01*
X99987751Y-65107299D01*
X99509322Y-64909127D01*
X99001424Y-64808100D01*
X98483576Y-64808100D01*
X97975678Y-64909127D01*
X97497249Y-65107299D01*
X97066674Y-65395000D01*
X96700500Y-65761174D01*
X96412799Y-66191749D01*
X96214627Y-66670178D01*
X96113600Y-67178076D01*
X85652295Y-67178076D01*
X85578530Y-66807243D01*
X85415781Y-66414330D01*
X85179504Y-66060718D01*
X84878782Y-65759996D01*
X84525170Y-65523719D01*
X84132257Y-65360970D01*
X83715143Y-65278000D01*
X83289857Y-65278000D01*
X82872743Y-65360970D01*
X82479830Y-65523719D01*
X82126218Y-65759996D01*
X81825496Y-66060718D01*
X81589219Y-66414330D01*
X81426470Y-66807243D01*
X81343500Y-67224357D01*
X79411659Y-67224357D01*
X65187659Y-53000357D01*
X71501000Y-53000357D01*
X71501000Y-53425643D01*
X71583970Y-53842757D01*
X71746719Y-54235670D01*
X71982996Y-54589282D01*
X72283718Y-54890004D01*
X72637330Y-55126281D01*
X73030243Y-55289030D01*
X73447357Y-55372000D01*
X73872643Y-55372000D01*
X74289757Y-55289030D01*
X74682670Y-55126281D01*
X75036282Y-54890004D01*
X75337004Y-54589282D01*
X75573281Y-54235670D01*
X75736030Y-53842757D01*
X75819000Y-53425643D01*
X75819000Y-53000357D01*
X81343500Y-53000357D01*
X81343500Y-53425643D01*
X81426470Y-53842757D01*
X81589219Y-54235670D01*
X81825496Y-54589282D01*
X82126218Y-54890004D01*
X82479830Y-55126281D01*
X82872743Y-55289030D01*
X83289857Y-55372000D01*
X83715143Y-55372000D01*
X84132257Y-55289030D01*
X84525170Y-55126281D01*
X84878782Y-54890004D01*
X85179504Y-54589282D01*
X85415781Y-54235670D01*
X85578530Y-53842757D01*
X85661500Y-53425643D01*
X85661500Y-53000357D01*
X85652295Y-52954076D01*
X96113600Y-52954076D01*
X96113600Y-53471924D01*
X96214627Y-53979822D01*
X96412799Y-54458251D01*
X96700500Y-54888826D01*
X97066674Y-55255000D01*
X97497249Y-55542701D01*
X97975678Y-55740873D01*
X98483576Y-55841900D01*
X99001424Y-55841900D01*
X99509322Y-55740873D01*
X99987751Y-55542701D01*
X100418326Y-55255000D01*
X100784500Y-54888826D01*
X101072201Y-54458251D01*
X101270373Y-53979822D01*
X101371400Y-53471924D01*
X101371400Y-52954076D01*
X108178600Y-52954076D01*
X108178600Y-53471924D01*
X108279627Y-53979822D01*
X108477799Y-54458251D01*
X108765500Y-54888826D01*
X109131674Y-55255000D01*
X109562249Y-55542701D01*
X110040678Y-55740873D01*
X110548576Y-55841900D01*
X111066424Y-55841900D01*
X111574322Y-55740873D01*
X112052751Y-55542701D01*
X112483326Y-55255000D01*
X112849500Y-54888826D01*
X113137201Y-54458251D01*
X113335373Y-53979822D01*
X113436400Y-53471924D01*
X113436400Y-52954076D01*
X113335373Y-52446178D01*
X113137201Y-51967749D01*
X112849500Y-51537174D01*
X112483326Y-51171000D01*
X112052751Y-50883299D01*
X111574322Y-50685127D01*
X111066424Y-50584100D01*
X110548576Y-50584100D01*
X110040678Y-50685127D01*
X109562249Y-50883299D01*
X109131674Y-51171000D01*
X108765500Y-51537174D01*
X108477799Y-51967749D01*
X108279627Y-52446178D01*
X108178600Y-52954076D01*
X101371400Y-52954076D01*
X101270373Y-52446178D01*
X101072201Y-51967749D01*
X100784500Y-51537174D01*
X100418326Y-51171000D01*
X99987751Y-50883299D01*
X99509322Y-50685127D01*
X99001424Y-50584100D01*
X98483576Y-50584100D01*
X97975678Y-50685127D01*
X97497249Y-50883299D01*
X97066674Y-51171000D01*
X96700500Y-51537174D01*
X96412799Y-51967749D01*
X96214627Y-52446178D01*
X96113600Y-52954076D01*
X85652295Y-52954076D01*
X85578530Y-52583243D01*
X85415781Y-52190330D01*
X85179504Y-51836718D01*
X84878782Y-51535996D01*
X84525170Y-51299719D01*
X84132257Y-51136970D01*
X83715143Y-51054000D01*
X83289857Y-51054000D01*
X82872743Y-51136970D01*
X82479830Y-51299719D01*
X82126218Y-51535996D01*
X81825496Y-51836718D01*
X81589219Y-52190330D01*
X81426470Y-52583243D01*
X81343500Y-53000357D01*
X75819000Y-53000357D01*
X75736030Y-52583243D01*
X75573281Y-52190330D01*
X75337004Y-51836718D01*
X75036282Y-51535996D01*
X74682670Y-51299719D01*
X74289757Y-51136970D01*
X73872643Y-51054000D01*
X73447357Y-51054000D01*
X73030243Y-51136970D01*
X72637330Y-51299719D01*
X72283718Y-51535996D01*
X71982996Y-51836718D01*
X71746719Y-52190330D01*
X71583970Y-52583243D01*
X71501000Y-53000357D01*
X65187659Y-53000357D01*
X61471076Y-49283775D01*
X61518800Y-49043850D01*
X61518800Y-48746150D01*
X61460722Y-48454170D01*
X61346797Y-48179131D01*
X61181404Y-47931602D01*
X60970898Y-47721096D01*
X60723369Y-47555703D01*
X60448330Y-47441778D01*
X60156350Y-47383700D01*
X59858650Y-47383700D01*
X59566670Y-47441778D01*
X59291631Y-47555703D01*
X59044102Y-47721096D01*
X58833596Y-47931602D01*
X58737500Y-48075420D01*
X58641404Y-47931602D01*
X58430898Y-47721096D01*
X58183369Y-47555703D01*
X57908330Y-47441778D01*
X57616350Y-47383700D01*
X57318650Y-47383700D01*
X57026670Y-47441778D01*
X56751631Y-47555703D01*
X56504102Y-47721096D01*
X56293596Y-47931602D01*
X56197500Y-48075420D01*
X56101404Y-47931602D01*
X55890898Y-47721096D01*
X55643369Y-47555703D01*
X55368330Y-47441778D01*
X55076350Y-47383700D01*
X54778650Y-47383700D01*
X54486670Y-47441778D01*
X54211631Y-47555703D01*
X53964102Y-47721096D01*
X53753596Y-47931602D01*
X53657500Y-48075420D01*
X53561404Y-47931602D01*
X53350898Y-47721096D01*
X53103369Y-47555703D01*
X52828330Y-47441778D01*
X52536350Y-47383700D01*
X52238650Y-47383700D01*
X51946670Y-47441778D01*
X51671631Y-47555703D01*
X51424102Y-47721096D01*
X51213596Y-47931602D01*
X51117500Y-48075420D01*
X51021404Y-47931602D01*
X50810898Y-47721096D01*
X50563369Y-47555703D01*
X50288330Y-47441778D01*
X49996350Y-47383700D01*
X49698650Y-47383700D01*
X49406670Y-47441778D01*
X49131631Y-47555703D01*
X48884102Y-47721096D01*
X48673596Y-47931602D01*
X48577500Y-48075420D01*
X48481404Y-47931602D01*
X48270898Y-47721096D01*
X48023369Y-47555703D01*
X47748330Y-47441778D01*
X47456350Y-47383700D01*
X47158650Y-47383700D01*
X46866670Y-47441778D01*
X46591631Y-47555703D01*
X46344102Y-47721096D01*
X46133596Y-47931602D01*
X46037500Y-48075420D01*
X45941404Y-47931602D01*
X45730898Y-47721096D01*
X45483369Y-47555703D01*
X45208330Y-47441778D01*
X44916350Y-47383700D01*
X44618650Y-47383700D01*
X44326670Y-47441778D01*
X44051631Y-47555703D01*
X43804102Y-47721096D01*
X43593596Y-47931602D01*
X43497500Y-48075420D01*
X43401404Y-47931602D01*
X43190898Y-47721096D01*
X42943369Y-47555703D01*
X42668330Y-47441778D01*
X42376350Y-47383700D01*
X42078650Y-47383700D01*
X41786670Y-47441778D01*
X41511631Y-47555703D01*
X41264102Y-47721096D01*
X41053596Y-47931602D01*
X40944545Y-48094809D01*
X40734669Y-48027437D01*
X39867105Y-48895000D01*
X40734669Y-49762563D01*
X40944545Y-49695191D01*
X41053596Y-49858398D01*
X41264102Y-50068904D01*
X41511631Y-50234297D01*
X41786670Y-50348222D01*
X42078650Y-50406300D01*
X42376350Y-50406300D01*
X42668330Y-50348222D01*
X42943369Y-50234297D01*
X43190898Y-50068904D01*
X43401404Y-49858398D01*
X43497500Y-49714580D01*
X43593596Y-49858398D01*
X43804102Y-50068904D01*
X44051631Y-50234297D01*
X44326670Y-50348222D01*
X44618650Y-50406300D01*
X44916350Y-50406300D01*
X45208330Y-50348222D01*
X45483369Y-50234297D01*
X45730898Y-50068904D01*
X45941404Y-49858398D01*
X46037500Y-49714580D01*
X46133596Y-49858398D01*
X46344102Y-50068904D01*
X46591631Y-50234297D01*
X46866670Y-50348222D01*
X47158650Y-50406300D01*
X47456350Y-50406300D01*
X47748330Y-50348222D01*
X48023369Y-50234297D01*
X48270898Y-50068904D01*
X48481404Y-49858398D01*
X48577500Y-49714580D01*
X48673596Y-49858398D01*
X48884102Y-50068904D01*
X49131631Y-50234297D01*
X49406670Y-50348222D01*
X49698650Y-50406300D01*
X49996350Y-50406300D01*
X50288330Y-50348222D01*
X50563369Y-50234297D01*
X50810898Y-50068904D01*
X51021404Y-49858398D01*
X51117500Y-49714580D01*
X51213596Y-49858398D01*
X51424102Y-50068904D01*
X51627500Y-50204810D01*
X51627500Y-50297672D01*
X48981776Y-52943396D01*
X48882873Y-52446178D01*
X48684701Y-51967749D01*
X48397000Y-51537174D01*
X48030826Y-51171000D01*
X47600251Y-50883299D01*
X47121822Y-50685127D01*
X46613924Y-50584100D01*
X46096076Y-50584100D01*
X45588178Y-50685127D01*
X45109749Y-50883299D01*
X44679174Y-51171000D01*
X44313000Y-51537174D01*
X44025299Y-51967749D01*
X43827127Y-52446178D01*
X43726100Y-52954076D01*
X43726100Y-53471924D01*
X43827127Y-53979822D01*
X44025299Y-54458251D01*
X44313000Y-54888826D01*
X44679174Y-55255000D01*
X45109749Y-55542701D01*
X45588178Y-55740873D01*
X46085397Y-55839776D01*
X35048998Y-66876175D01*
X35020000Y-66899973D01*
X34996202Y-66928971D01*
X34996201Y-66928972D01*
X34925026Y-67015698D01*
X34854454Y-67147728D01*
X34831210Y-67224357D01*
X34810999Y-67290987D01*
X34810998Y-67290989D01*
X34796324Y-67439974D01*
X34800001Y-67477307D01*
X34800000Y-81594792D01*
X34726327Y-81625308D01*
X34438065Y-81817919D01*
X34192919Y-82063065D01*
X34000308Y-82351327D01*
X33867636Y-82671627D01*
X33800000Y-83011655D01*
X29235000Y-83011655D01*
X29235000Y-78059531D01*
X31975074Y-78059531D01*
X32085921Y-78336714D01*
X32396840Y-78490089D01*
X32731705Y-78579860D01*
X33077650Y-78602576D01*
X33421380Y-78557366D01*
X33749685Y-78445966D01*
X33954079Y-78336714D01*
X34064926Y-78059531D01*
X33020000Y-77014605D01*
X31975074Y-78059531D01*
X29235000Y-78059531D01*
X29235000Y-76892650D01*
X31252424Y-76892650D01*
X31297634Y-77236380D01*
X31409034Y-77564685D01*
X31518286Y-77769079D01*
X31795469Y-77879926D01*
X32840395Y-76835000D01*
X33199605Y-76835000D01*
X34244531Y-77879926D01*
X34521714Y-77769079D01*
X34675089Y-77458160D01*
X34764860Y-77123295D01*
X34787576Y-76777350D01*
X34742366Y-76433620D01*
X34630966Y-76105315D01*
X34521714Y-75900921D01*
X34244531Y-75790074D01*
X33199605Y-76835000D01*
X32840395Y-76835000D01*
X31795469Y-75790074D01*
X31518286Y-75900921D01*
X31364911Y-76211840D01*
X31275140Y-76546705D01*
X31252424Y-76892650D01*
X29235000Y-76892650D01*
X29235000Y-75610469D01*
X31975074Y-75610469D01*
X33020000Y-76655395D01*
X34064926Y-75610469D01*
X33954079Y-75333286D01*
X33643160Y-75179911D01*
X33308295Y-75090140D01*
X32962350Y-75067424D01*
X32618620Y-75112634D01*
X32290315Y-75224034D01*
X32085921Y-75333286D01*
X31975074Y-75610469D01*
X29235000Y-75610469D01*
X29235000Y-68509478D01*
X29437996Y-68813282D01*
X29738718Y-69114004D01*
X30092330Y-69350281D01*
X30485243Y-69513030D01*
X30902357Y-69596000D01*
X31327643Y-69596000D01*
X31744757Y-69513030D01*
X32137670Y-69350281D01*
X32491282Y-69114004D01*
X32792004Y-68813282D01*
X33028281Y-68459670D01*
X33191030Y-68066757D01*
X33274000Y-67649643D01*
X33274000Y-67224357D01*
X33191030Y-66807243D01*
X33028281Y-66414330D01*
X32792004Y-66060718D01*
X32491282Y-65759996D01*
X32137670Y-65523719D01*
X31744757Y-65360970D01*
X31327643Y-65278000D01*
X30902357Y-65278000D01*
X30485243Y-65360970D01*
X30092330Y-65523719D01*
X29738718Y-65759996D01*
X29437996Y-66060718D01*
X29235000Y-66364522D01*
X29235000Y-54285478D01*
X29437996Y-54589282D01*
X29738718Y-54890004D01*
X30092330Y-55126281D01*
X30485243Y-55289030D01*
X30902357Y-55372000D01*
X31327643Y-55372000D01*
X31744757Y-55289030D01*
X32137670Y-55126281D01*
X32491282Y-54890004D01*
X32792004Y-54589282D01*
X33028281Y-54235670D01*
X33191030Y-53842757D01*
X33274000Y-53425643D01*
X33274000Y-53000357D01*
X33191030Y-52583243D01*
X33028281Y-52190330D01*
X32792004Y-51836718D01*
X32491282Y-51535996D01*
X32137670Y-51299719D01*
X31744757Y-51136970D01*
X31327643Y-51054000D01*
X30902357Y-51054000D01*
X30485243Y-51136970D01*
X30092330Y-51299719D01*
X29738718Y-51535996D01*
X29437996Y-51836718D01*
X29235000Y-52140522D01*
X29235000Y-48018700D01*
X30553128Y-48018700D01*
X30553128Y-49771300D01*
X30565388Y-49895782D01*
X30601698Y-50015480D01*
X30660663Y-50125794D01*
X30740015Y-50222485D01*
X30836706Y-50301837D01*
X30947020Y-50360802D01*
X31066718Y-50397112D01*
X31191200Y-50409372D01*
X32943800Y-50409372D01*
X33068282Y-50397112D01*
X33187980Y-50360802D01*
X33298294Y-50301837D01*
X33394985Y-50222485D01*
X33474337Y-50125794D01*
X33533302Y-50015480D01*
X33546656Y-49971458D01*
X33644102Y-50068904D01*
X33891631Y-50234297D01*
X34166670Y-50348222D01*
X34458650Y-50406300D01*
X34756350Y-50406300D01*
X35048330Y-50348222D01*
X35323369Y-50234297D01*
X35570898Y-50068904D01*
X35697633Y-49942169D01*
X36279937Y-49942169D01*
X36360754Y-50193929D01*
X36629279Y-50322457D01*
X36917719Y-50396129D01*
X37214991Y-50412113D01*
X37509667Y-50369796D01*
X37790427Y-50270802D01*
X37934246Y-50193929D01*
X38015063Y-49942169D01*
X38819937Y-49942169D01*
X38900754Y-50193929D01*
X39169279Y-50322457D01*
X39457719Y-50396129D01*
X39754991Y-50412113D01*
X40049667Y-50369796D01*
X40330427Y-50270802D01*
X40474246Y-50193929D01*
X40555063Y-49942169D01*
X39687500Y-49074605D01*
X38819937Y-49942169D01*
X38015063Y-49942169D01*
X37147500Y-49074605D01*
X36279937Y-49942169D01*
X35697633Y-49942169D01*
X35781404Y-49858398D01*
X35890455Y-49695191D01*
X36100331Y-49762563D01*
X36967895Y-48895000D01*
X36100331Y-48027437D01*
X35890455Y-48094809D01*
X35781404Y-47931602D01*
X35570898Y-47721096D01*
X35323369Y-47555703D01*
X35048330Y-47441778D01*
X34756350Y-47383700D01*
X34458650Y-47383700D01*
X34166670Y-47441778D01*
X33891631Y-47555703D01*
X33644102Y-47721096D01*
X33546656Y-47818542D01*
X33533302Y-47774520D01*
X33474337Y-47664206D01*
X33394985Y-47567515D01*
X33298294Y-47488163D01*
X33187980Y-47429198D01*
X33068282Y-47392888D01*
X32943800Y-47380628D01*
X31191200Y-47380628D01*
X31066718Y-47392888D01*
X30947020Y-47429198D01*
X30836706Y-47488163D01*
X30740015Y-47567515D01*
X30660663Y-47664206D01*
X30601698Y-47774520D01*
X30565388Y-47894218D01*
X30553128Y-48018700D01*
X29235000Y-48018700D01*
X29235000Y-44911655D01*
X33800000Y-44911655D01*
X33800000Y-45258345D01*
X33867636Y-45598373D01*
X34000308Y-45918673D01*
X34192919Y-46206935D01*
X34438065Y-46452081D01*
X34726327Y-46644692D01*
X35046627Y-46777364D01*
X35386655Y-46845000D01*
X35733345Y-46845000D01*
X36073373Y-46777364D01*
X36393673Y-46644692D01*
X36591719Y-46512362D01*
X36648029Y-46795451D01*
X36761856Y-47070253D01*
X36927107Y-47317569D01*
X36999051Y-47389513D01*
X36785333Y-47420204D01*
X36504573Y-47519198D01*
X36360754Y-47596071D01*
X36279937Y-47847831D01*
X37147500Y-48715395D01*
X37161642Y-48701252D01*
X37341248Y-48880858D01*
X37327105Y-48895000D01*
X38194669Y-49762563D01*
X38417500Y-49691032D01*
X38640331Y-49762563D01*
X39507895Y-48895000D01*
X38640331Y-48027437D01*
X38417500Y-48098968D01*
X38194671Y-48027437D01*
X38310691Y-47911417D01*
X38261694Y-47862420D01*
X38540451Y-47806971D01*
X38815253Y-47693144D01*
X38884431Y-47646921D01*
X38819937Y-47847831D01*
X39687500Y-48715395D01*
X40555063Y-47847831D01*
X40474246Y-47596071D01*
X40205721Y-47467543D01*
X39917281Y-47393871D01*
X39620009Y-47377887D01*
X39325333Y-47420204D01*
X39085801Y-47504661D01*
X39272893Y-47317569D01*
X39438144Y-47070253D01*
X39551971Y-46795451D01*
X39610000Y-46503722D01*
X39610000Y-46206278D01*
X39551971Y-45914549D01*
X39523163Y-45845000D01*
X40920178Y-45845000D01*
X40957500Y-45848676D01*
X40994822Y-45845000D01*
X40994833Y-45845000D01*
X41106486Y-45834003D01*
X41249747Y-45790546D01*
X41381776Y-45719974D01*
X41497501Y-45625001D01*
X41521304Y-45595997D01*
X51998726Y-35118576D01*
X52238650Y-35166300D01*
X52536350Y-35166300D01*
X52828330Y-35108222D01*
X53103369Y-34994297D01*
X53350898Y-34828904D01*
X53561404Y-34618398D01*
X53657500Y-34474580D01*
X53753596Y-34618398D01*
X53964102Y-34828904D01*
X54167500Y-34964810D01*
X54167501Y-38221418D01*
X54163824Y-38258750D01*
X54167501Y-38296083D01*
X54176973Y-38392247D01*
X54178498Y-38407735D01*
X54221954Y-38550996D01*
X54292526Y-38683026D01*
X54345133Y-38747127D01*
X54387500Y-38798751D01*
X54416498Y-38822549D01*
X64523701Y-48929753D01*
X64547499Y-48958751D01*
X64663224Y-49053724D01*
X64795253Y-49124296D01*
X64938514Y-49167753D01*
X65050167Y-49178750D01*
X65050175Y-49178750D01*
X65087500Y-49182426D01*
X65124825Y-49178750D01*
X103150178Y-49178750D01*
X103187500Y-49182426D01*
X103224822Y-49178750D01*
X103224833Y-49178750D01*
X103336486Y-49167753D01*
X103479747Y-49124296D01*
X103611776Y-49053724D01*
X103727501Y-48958751D01*
X103751304Y-48929747D01*
X106474773Y-46206278D01*
X117552500Y-46206278D01*
X117552500Y-46503722D01*
X117610529Y-46795451D01*
X117724356Y-47070253D01*
X117889607Y-47317569D01*
X118099931Y-47527893D01*
X118347247Y-47693144D01*
X118622049Y-47806971D01*
X118913778Y-47865000D01*
X119211222Y-47865000D01*
X119502951Y-47806971D01*
X119777753Y-47693144D01*
X120025069Y-47527893D01*
X120235393Y-47317569D01*
X120400644Y-47070253D01*
X120514471Y-46795451D01*
X120572500Y-46503722D01*
X120572500Y-46206278D01*
X120514471Y-45914549D01*
X120400644Y-45639747D01*
X120235393Y-45392431D01*
X120025069Y-45182107D01*
X119811689Y-45039531D01*
X123097574Y-45039531D01*
X123208421Y-45316714D01*
X123519340Y-45470089D01*
X123854205Y-45559860D01*
X124200150Y-45582576D01*
X124543880Y-45537366D01*
X124872185Y-45425966D01*
X125076579Y-45316714D01*
X125187426Y-45039531D01*
X124142500Y-43994605D01*
X123097574Y-45039531D01*
X119811689Y-45039531D01*
X119777753Y-45016856D01*
X119502951Y-44903029D01*
X119211222Y-44845000D01*
X118913778Y-44845000D01*
X118622049Y-44903029D01*
X118347247Y-45016856D01*
X118099931Y-45182107D01*
X117889607Y-45392431D01*
X117724356Y-45639747D01*
X117610529Y-45914549D01*
X117552500Y-46206278D01*
X106474773Y-46206278D01*
X113821052Y-38860000D01*
X118023179Y-38860000D01*
X117817249Y-38945299D01*
X117386674Y-39233000D01*
X117020500Y-39599174D01*
X116732799Y-40029749D01*
X116534627Y-40508178D01*
X116433600Y-41016076D01*
X116433600Y-41533924D01*
X116534627Y-42041822D01*
X116732799Y-42520251D01*
X117020500Y-42950826D01*
X117386674Y-43317000D01*
X117817249Y-43604701D01*
X118295678Y-43802873D01*
X118803576Y-43903900D01*
X119321424Y-43903900D01*
X119478528Y-43872650D01*
X122374924Y-43872650D01*
X122420134Y-44216380D01*
X122531534Y-44544685D01*
X122640786Y-44749079D01*
X122917969Y-44859926D01*
X123962895Y-43815000D01*
X124322105Y-43815000D01*
X125367031Y-44859926D01*
X125644214Y-44749079D01*
X125797589Y-44438160D01*
X125887360Y-44103295D01*
X125910076Y-43757350D01*
X125864866Y-43413620D01*
X125753466Y-43085315D01*
X125644214Y-42880921D01*
X125367031Y-42770074D01*
X124322105Y-43815000D01*
X123962895Y-43815000D01*
X122917969Y-42770074D01*
X122640786Y-42880921D01*
X122487411Y-43191840D01*
X122397640Y-43526705D01*
X122374924Y-43872650D01*
X119478528Y-43872650D01*
X119829322Y-43802873D01*
X120307751Y-43604701D01*
X120738326Y-43317000D01*
X121104500Y-42950826D01*
X121345282Y-42590469D01*
X123097574Y-42590469D01*
X124142500Y-43635395D01*
X125187426Y-42590469D01*
X125076579Y-42313286D01*
X124765660Y-42159911D01*
X124430795Y-42070140D01*
X124084850Y-42047424D01*
X123741120Y-42092634D01*
X123412815Y-42204034D01*
X123208421Y-42313286D01*
X123097574Y-42590469D01*
X121345282Y-42590469D01*
X121392201Y-42520251D01*
X121590373Y-42041822D01*
X121691400Y-41533924D01*
X121691400Y-41016076D01*
X121590373Y-40508178D01*
X121392201Y-40029749D01*
X121104500Y-39599174D01*
X120738326Y-39233000D01*
X120307751Y-38945299D01*
X120101821Y-38860000D01*
X120522349Y-38860000D01*
X120768827Y-39024692D01*
X121089127Y-39157364D01*
X121429155Y-39225000D01*
X121775845Y-39225000D01*
X122115873Y-39157364D01*
X122436173Y-39024692D01*
X122724435Y-38832081D01*
X122969581Y-38586935D01*
X123162192Y-38298673D01*
X123294864Y-37978373D01*
X123362500Y-37638345D01*
X123362500Y-37291655D01*
X123294864Y-36951627D01*
X123162192Y-36631327D01*
X122969581Y-36343065D01*
X122724435Y-36097919D01*
X122436173Y-35905308D01*
X122115873Y-35772636D01*
X121775845Y-35705000D01*
X121429155Y-35705000D01*
X121089127Y-35772636D01*
X120768827Y-35905308D01*
X120570781Y-36037638D01*
X120514471Y-35754549D01*
X120400644Y-35479747D01*
X120235393Y-35232431D01*
X120025069Y-35022107D01*
X119777753Y-34856856D01*
X119502951Y-34743029D01*
X119211222Y-34685000D01*
X118913778Y-34685000D01*
X118622049Y-34743029D01*
X118347247Y-34856856D01*
X118099931Y-35022107D01*
X117889607Y-35232431D01*
X117724356Y-35479747D01*
X117610529Y-35754549D01*
X117552500Y-36046278D01*
X117552500Y-36343722D01*
X117610529Y-36635451D01*
X117724356Y-36910253D01*
X117889607Y-37157569D01*
X118072038Y-37340000D01*
X113543572Y-37340000D01*
X113506249Y-37336324D01*
X113468926Y-37340000D01*
X113468917Y-37340000D01*
X113357264Y-37350997D01*
X113214003Y-37394454D01*
X113081974Y-37465026D01*
X112966249Y-37559999D01*
X112942451Y-37588997D01*
X102872699Y-47658750D01*
X91254227Y-47658750D01*
X91450069Y-47527893D01*
X91660393Y-47317569D01*
X91825644Y-47070253D01*
X91939471Y-46795451D01*
X91997500Y-46503722D01*
X91997500Y-46206278D01*
X91939471Y-45914549D01*
X91825644Y-45639747D01*
X91660393Y-45392431D01*
X91450069Y-45182107D01*
X91202753Y-45016856D01*
X90927951Y-44903029D01*
X90636222Y-44845000D01*
X90338778Y-44845000D01*
X90047049Y-44903029D01*
X89772247Y-45016856D01*
X89707500Y-45060118D01*
X89707500Y-44911655D01*
X89639864Y-44571627D01*
X89507192Y-44251327D01*
X89314581Y-43963065D01*
X89069435Y-43717919D01*
X88781173Y-43525308D01*
X88460873Y-43392636D01*
X88120845Y-43325000D01*
X87774155Y-43325000D01*
X87434127Y-43392636D01*
X87360454Y-43423152D01*
X84953378Y-41016076D01*
X87858600Y-41016076D01*
X87858600Y-41533924D01*
X87959627Y-42041822D01*
X88157799Y-42520251D01*
X88445500Y-42950826D01*
X88811674Y-43317000D01*
X89242249Y-43604701D01*
X89720678Y-43802873D01*
X90228576Y-43903900D01*
X90746424Y-43903900D01*
X91254322Y-43802873D01*
X91732751Y-43604701D01*
X92163326Y-43317000D01*
X92529500Y-42950826D01*
X92817201Y-42520251D01*
X93015373Y-42041822D01*
X93116400Y-41533924D01*
X93116400Y-41016076D01*
X93015373Y-40508178D01*
X92817201Y-40029749D01*
X92529500Y-39599174D01*
X92163326Y-39233000D01*
X91732751Y-38945299D01*
X91254322Y-38747127D01*
X90746424Y-38646100D01*
X90228576Y-38646100D01*
X89720678Y-38747127D01*
X89242249Y-38945299D01*
X88811674Y-39233000D01*
X88445500Y-39599174D01*
X88157799Y-40029749D01*
X87959627Y-40508178D01*
X87858600Y-41016076D01*
X84953378Y-41016076D01*
X83896833Y-39959531D01*
X84362574Y-39959531D01*
X84473421Y-40236714D01*
X84784340Y-40390089D01*
X85119205Y-40479860D01*
X85465150Y-40502576D01*
X85808880Y-40457366D01*
X86137185Y-40345966D01*
X86341579Y-40236714D01*
X86452426Y-39959531D01*
X85407500Y-38914605D01*
X84362574Y-39959531D01*
X83896833Y-39959531D01*
X82729952Y-38792650D01*
X83639924Y-38792650D01*
X83685134Y-39136380D01*
X83796534Y-39464685D01*
X83905786Y-39669079D01*
X84182969Y-39779926D01*
X85227895Y-38735000D01*
X85587105Y-38735000D01*
X86632031Y-39779926D01*
X86909214Y-39669079D01*
X87062589Y-39358160D01*
X87152360Y-39023295D01*
X87175076Y-38677350D01*
X87129866Y-38333620D01*
X87018466Y-38005315D01*
X86909214Y-37800921D01*
X86632031Y-37690074D01*
X85587105Y-38735000D01*
X85227895Y-38735000D01*
X84182969Y-37690074D01*
X83905786Y-37800921D01*
X83752411Y-38111840D01*
X83662640Y-38446705D01*
X83639924Y-38792650D01*
X82729952Y-38792650D01*
X82382403Y-38445102D01*
X82358600Y-38416098D01*
X82242875Y-38321125D01*
X82110846Y-38250553D01*
X81967585Y-38207096D01*
X81855932Y-38196099D01*
X81855921Y-38196099D01*
X81818599Y-38192423D01*
X81781277Y-38196099D01*
X70817179Y-38196099D01*
X70907364Y-37978373D01*
X70975000Y-37638345D01*
X70975000Y-37510469D01*
X84362574Y-37510469D01*
X85407500Y-38555395D01*
X86452426Y-37510469D01*
X86341579Y-37233286D01*
X86030660Y-37079911D01*
X85695795Y-36990140D01*
X85349850Y-36967424D01*
X85006120Y-37012634D01*
X84677815Y-37124034D01*
X84473421Y-37233286D01*
X84362574Y-37510469D01*
X70975000Y-37510469D01*
X70975000Y-37291655D01*
X70907364Y-36951627D01*
X70774692Y-36631327D01*
X70582081Y-36343065D01*
X70336935Y-36097919D01*
X70259649Y-36046278D01*
X88977500Y-36046278D01*
X88977500Y-36343722D01*
X89035529Y-36635451D01*
X89149356Y-36910253D01*
X89314607Y-37157569D01*
X89524931Y-37367893D01*
X89772247Y-37533144D01*
X90047049Y-37646971D01*
X90338778Y-37705000D01*
X90636222Y-37705000D01*
X90927951Y-37646971D01*
X91202753Y-37533144D01*
X91450069Y-37367893D01*
X91660393Y-37157569D01*
X91825644Y-36910253D01*
X91939471Y-36635451D01*
X91997500Y-36343722D01*
X91997500Y-36046278D01*
X91939471Y-35754549D01*
X91825644Y-35479747D01*
X91660393Y-35232431D01*
X91450069Y-35022107D01*
X91202753Y-34856856D01*
X90927951Y-34743029D01*
X90636222Y-34685000D01*
X90338778Y-34685000D01*
X90047049Y-34743029D01*
X89772247Y-34856856D01*
X89524931Y-35022107D01*
X89314607Y-35232431D01*
X89149356Y-35479747D01*
X89035529Y-35754549D01*
X88977500Y-36046278D01*
X70259649Y-36046278D01*
X70048673Y-35905308D01*
X69728373Y-35772636D01*
X69388345Y-35705000D01*
X69041655Y-35705000D01*
X68701627Y-35772636D01*
X68381327Y-35905308D01*
X68183281Y-36037638D01*
X68126971Y-35754549D01*
X68013144Y-35479747D01*
X67847893Y-35232431D01*
X67637569Y-35022107D01*
X67390253Y-34856856D01*
X67115451Y-34743029D01*
X66823722Y-34685000D01*
X66526278Y-34685000D01*
X66234549Y-34743029D01*
X65959747Y-34856856D01*
X65712431Y-35022107D01*
X65502107Y-35232431D01*
X65336856Y-35479747D01*
X65223029Y-35754549D01*
X65165000Y-36046278D01*
X65165000Y-36343722D01*
X65223029Y-36635451D01*
X65251837Y-36705000D01*
X64132302Y-36705000D01*
X61471076Y-34043775D01*
X61518800Y-33803850D01*
X61518800Y-33506150D01*
X61460722Y-33214170D01*
X61346797Y-32939131D01*
X61181404Y-32691602D01*
X60970898Y-32481096D01*
X60723369Y-32315703D01*
X60448330Y-32201778D01*
X60156350Y-32143700D01*
X59858650Y-32143700D01*
X59566670Y-32201778D01*
X59291631Y-32315703D01*
X59044102Y-32481096D01*
X58833596Y-32691602D01*
X58737500Y-32835420D01*
X58641404Y-32691602D01*
X58430898Y-32481096D01*
X58183369Y-32315703D01*
X57908330Y-32201778D01*
X57616350Y-32143700D01*
X57318650Y-32143700D01*
X57026670Y-32201778D01*
X56751631Y-32315703D01*
X56504102Y-32481096D01*
X56293596Y-32691602D01*
X56197500Y-32835420D01*
X56101404Y-32691602D01*
X55890898Y-32481096D01*
X55643369Y-32315703D01*
X55368330Y-32201778D01*
X55076350Y-32143700D01*
X54778650Y-32143700D01*
X54486670Y-32201778D01*
X54211631Y-32315703D01*
X53964102Y-32481096D01*
X53753596Y-32691602D01*
X53657500Y-32835420D01*
X53561404Y-32691602D01*
X53350898Y-32481096D01*
X53103369Y-32315703D01*
X52828330Y-32201778D01*
X52536350Y-32143700D01*
X52238650Y-32143700D01*
X51946670Y-32201778D01*
X51671631Y-32315703D01*
X51424102Y-32481096D01*
X51213596Y-32691602D01*
X51117500Y-32835420D01*
X51021404Y-32691602D01*
X50810898Y-32481096D01*
X50563369Y-32315703D01*
X50288330Y-32201778D01*
X49996350Y-32143700D01*
X49698650Y-32143700D01*
X49406670Y-32201778D01*
X49131631Y-32315703D01*
X48884102Y-32481096D01*
X48673596Y-32691602D01*
X48577500Y-32835420D01*
X48481404Y-32691602D01*
X48270898Y-32481096D01*
X48023369Y-32315703D01*
X47748330Y-32201778D01*
X47456350Y-32143700D01*
X47158650Y-32143700D01*
X46866670Y-32201778D01*
X46591631Y-32315703D01*
X46344102Y-32481096D01*
X46133596Y-32691602D01*
X46037500Y-32835420D01*
X45941404Y-32691602D01*
X45730898Y-32481096D01*
X45483369Y-32315703D01*
X45208330Y-32201778D01*
X44916350Y-32143700D01*
X44618650Y-32143700D01*
X44326670Y-32201778D01*
X44051631Y-32315703D01*
X43804102Y-32481096D01*
X43593596Y-32691602D01*
X43497500Y-32835420D01*
X43401404Y-32691602D01*
X43190898Y-32481096D01*
X42943369Y-32315703D01*
X42668330Y-32201778D01*
X42376350Y-32143700D01*
X42078650Y-32143700D01*
X41786670Y-32201778D01*
X41511631Y-32315703D01*
X41264102Y-32481096D01*
X41053596Y-32691602D01*
X40957500Y-32835420D01*
X40861404Y-32691602D01*
X40650898Y-32481096D01*
X40403369Y-32315703D01*
X40128330Y-32201778D01*
X39836350Y-32143700D01*
X39538650Y-32143700D01*
X39246670Y-32201778D01*
X38971631Y-32315703D01*
X38724102Y-32481096D01*
X38513596Y-32691602D01*
X38417500Y-32835420D01*
X38321404Y-32691602D01*
X38110898Y-32481096D01*
X37863369Y-32315703D01*
X37588330Y-32201778D01*
X37296350Y-32143700D01*
X36998650Y-32143700D01*
X36706670Y-32201778D01*
X36431631Y-32315703D01*
X36184102Y-32481096D01*
X35973596Y-32691602D01*
X35864545Y-32854809D01*
X35654669Y-32787437D01*
X34787105Y-33655000D01*
X35654669Y-34522563D01*
X35864545Y-34455191D01*
X35973596Y-34618398D01*
X36184102Y-34828904D01*
X36431631Y-34994297D01*
X36706670Y-35108222D01*
X36994136Y-35165402D01*
X36927107Y-35232431D01*
X36761856Y-35479747D01*
X36648029Y-35754549D01*
X36590000Y-36046278D01*
X36590000Y-36343722D01*
X36648029Y-36635451D01*
X36761856Y-36910253D01*
X36927107Y-37157569D01*
X37137431Y-37367893D01*
X37384747Y-37533144D01*
X37659549Y-37646971D01*
X37951278Y-37705000D01*
X38248722Y-37705000D01*
X38540451Y-37646971D01*
X38815253Y-37533144D01*
X39062569Y-37367893D01*
X39272893Y-37157569D01*
X39438144Y-36910253D01*
X39551971Y-36635451D01*
X39610000Y-36343722D01*
X39610000Y-36046278D01*
X39551971Y-35754549D01*
X39438144Y-35479747D01*
X39272893Y-35232431D01*
X39079397Y-35038935D01*
X39246670Y-35108222D01*
X39538650Y-35166300D01*
X39836350Y-35166300D01*
X40128330Y-35108222D01*
X40403369Y-34994297D01*
X40650898Y-34828904D01*
X40861404Y-34618398D01*
X40957500Y-34474580D01*
X41053596Y-34618398D01*
X41264102Y-34828904D01*
X41511631Y-34994297D01*
X41786670Y-35108222D01*
X42078650Y-35166300D01*
X42376350Y-35166300D01*
X42668330Y-35108222D01*
X42943369Y-34994297D01*
X43190898Y-34828904D01*
X43401404Y-34618398D01*
X43497500Y-34474580D01*
X43593596Y-34618398D01*
X43804102Y-34828904D01*
X44051631Y-34994297D01*
X44326670Y-35108222D01*
X44618650Y-35166300D01*
X44916350Y-35166300D01*
X45208330Y-35108222D01*
X45483369Y-34994297D01*
X45730898Y-34828904D01*
X45941404Y-34618398D01*
X46037500Y-34474580D01*
X46133596Y-34618398D01*
X46344102Y-34828904D01*
X46591631Y-34994297D01*
X46866670Y-35108222D01*
X47158650Y-35166300D01*
X47456350Y-35166300D01*
X47748330Y-35108222D01*
X48023369Y-34994297D01*
X48270898Y-34828904D01*
X48481404Y-34618398D01*
X48577500Y-34474580D01*
X48673596Y-34618398D01*
X48884102Y-34828904D01*
X49131631Y-34994297D01*
X49406670Y-35108222D01*
X49698650Y-35166300D01*
X49801398Y-35166300D01*
X40642699Y-44325000D01*
X37150208Y-44325000D01*
X37119692Y-44251327D01*
X36927081Y-43963065D01*
X36681935Y-43717919D01*
X36393673Y-43525308D01*
X36073373Y-43392636D01*
X35733345Y-43325000D01*
X35386655Y-43325000D01*
X35046627Y-43392636D01*
X34726327Y-43525308D01*
X34438065Y-43717919D01*
X34192919Y-43963065D01*
X34000308Y-44251327D01*
X33867636Y-44571627D01*
X33800000Y-44911655D01*
X29235000Y-44911655D01*
X29235000Y-41016076D01*
X35471100Y-41016076D01*
X35471100Y-41533924D01*
X35572127Y-42041822D01*
X35770299Y-42520251D01*
X36058000Y-42950826D01*
X36424174Y-43317000D01*
X36854749Y-43604701D01*
X37333178Y-43802873D01*
X37841076Y-43903900D01*
X38358924Y-43903900D01*
X38866822Y-43802873D01*
X39345251Y-43604701D01*
X39775826Y-43317000D01*
X40142000Y-42950826D01*
X40429701Y-42520251D01*
X40627873Y-42041822D01*
X40728900Y-41533924D01*
X40728900Y-41016076D01*
X40627873Y-40508178D01*
X40429701Y-40029749D01*
X40142000Y-39599174D01*
X39775826Y-39233000D01*
X39345251Y-38945299D01*
X38866822Y-38747127D01*
X38358924Y-38646100D01*
X37841076Y-38646100D01*
X37333178Y-38747127D01*
X36854749Y-38945299D01*
X36424174Y-39233000D01*
X36058000Y-39599174D01*
X35770299Y-40029749D01*
X35572127Y-40508178D01*
X35471100Y-41016076D01*
X29235000Y-41016076D01*
X29235000Y-39959531D01*
X31975074Y-39959531D01*
X32085921Y-40236714D01*
X32396840Y-40390089D01*
X32731705Y-40479860D01*
X33077650Y-40502576D01*
X33421380Y-40457366D01*
X33749685Y-40345966D01*
X33954079Y-40236714D01*
X34064926Y-39959531D01*
X33020000Y-38914605D01*
X31975074Y-39959531D01*
X29235000Y-39959531D01*
X29235000Y-38792650D01*
X31252424Y-38792650D01*
X31297634Y-39136380D01*
X31409034Y-39464685D01*
X31518286Y-39669079D01*
X31795469Y-39779926D01*
X32840395Y-38735000D01*
X33199605Y-38735000D01*
X34244531Y-39779926D01*
X34521714Y-39669079D01*
X34675089Y-39358160D01*
X34764860Y-39023295D01*
X34787576Y-38677350D01*
X34742366Y-38333620D01*
X34630966Y-38005315D01*
X34521714Y-37800921D01*
X34244531Y-37690074D01*
X33199605Y-38735000D01*
X32840395Y-38735000D01*
X31795469Y-37690074D01*
X31518286Y-37800921D01*
X31364911Y-38111840D01*
X31275140Y-38446705D01*
X31252424Y-38792650D01*
X29235000Y-38792650D01*
X29235000Y-37510469D01*
X31975074Y-37510469D01*
X33020000Y-38555395D01*
X34064926Y-37510469D01*
X33954079Y-37233286D01*
X33643160Y-37079911D01*
X33308295Y-36990140D01*
X32962350Y-36967424D01*
X32618620Y-37012634D01*
X32290315Y-37124034D01*
X32085921Y-37233286D01*
X31975074Y-37510469D01*
X29235000Y-37510469D01*
X29235000Y-33506150D01*
X30556200Y-33506150D01*
X30556200Y-33803850D01*
X30614278Y-34095830D01*
X30728203Y-34370869D01*
X30893596Y-34618398D01*
X31104102Y-34828904D01*
X31351631Y-34994297D01*
X31626670Y-35108222D01*
X31918650Y-35166300D01*
X32216350Y-35166300D01*
X32508330Y-35108222D01*
X32783369Y-34994297D01*
X33030898Y-34828904D01*
X33157633Y-34702169D01*
X33739937Y-34702169D01*
X33820754Y-34953929D01*
X34089279Y-35082457D01*
X34377719Y-35156129D01*
X34674991Y-35172113D01*
X34969667Y-35129796D01*
X35250427Y-35030802D01*
X35394246Y-34953929D01*
X35475063Y-34702169D01*
X34607500Y-33834605D01*
X33739937Y-34702169D01*
X33157633Y-34702169D01*
X33241404Y-34618398D01*
X33350455Y-34455191D01*
X33560331Y-34522563D01*
X34427895Y-33655000D01*
X33560331Y-32787437D01*
X33350455Y-32854809D01*
X33241404Y-32691602D01*
X33157633Y-32607831D01*
X33739937Y-32607831D01*
X34607500Y-33475395D01*
X35475063Y-32607831D01*
X35394246Y-32356071D01*
X35125721Y-32227543D01*
X34837281Y-32153871D01*
X34540009Y-32137887D01*
X34245333Y-32180204D01*
X33964573Y-32279198D01*
X33820754Y-32356071D01*
X33739937Y-32607831D01*
X33157633Y-32607831D01*
X33030898Y-32481096D01*
X32783369Y-32315703D01*
X32508330Y-32201778D01*
X32216350Y-32143700D01*
X31918650Y-32143700D01*
X31626670Y-32201778D01*
X31351631Y-32315703D01*
X31104102Y-32481096D01*
X30893596Y-32691602D01*
X30728203Y-32939131D01*
X30614278Y-33214170D01*
X30556200Y-33506150D01*
X29235000Y-33506150D01*
X29235000Y-30409478D01*
X29437996Y-30713282D01*
X29738718Y-31014004D01*
X30092330Y-31250281D01*
X30485243Y-31413030D01*
X30902357Y-31496000D01*
X31327643Y-31496000D01*
X31744757Y-31413030D01*
X32137670Y-31250281D01*
X32491282Y-31014004D01*
X32792004Y-30713282D01*
X33028281Y-30359670D01*
X33191030Y-29966757D01*
X33274000Y-29549643D01*
X33274000Y-29124357D01*
X33264795Y-29078076D01*
X43726100Y-29078076D01*
X43726100Y-29595924D01*
X43827127Y-30103822D01*
X44025299Y-30582251D01*
X44313000Y-31012826D01*
X44679174Y-31379000D01*
X45109749Y-31666701D01*
X45588178Y-31864873D01*
X46096076Y-31965900D01*
X46613924Y-31965900D01*
X47121822Y-31864873D01*
X47600251Y-31666701D01*
X48030826Y-31379000D01*
X48397000Y-31012826D01*
X48684701Y-30582251D01*
X48882873Y-30103822D01*
X48983900Y-29595924D01*
X48983900Y-29078076D01*
X55791100Y-29078076D01*
X55791100Y-29595924D01*
X55892127Y-30103822D01*
X56090299Y-30582251D01*
X56378000Y-31012826D01*
X56744174Y-31379000D01*
X57174749Y-31666701D01*
X57653178Y-31864873D01*
X58161076Y-31965900D01*
X58678924Y-31965900D01*
X59186822Y-31864873D01*
X59665251Y-31666701D01*
X60095826Y-31379000D01*
X60462000Y-31012826D01*
X60749701Y-30582251D01*
X60947873Y-30103822D01*
X61048900Y-29595924D01*
X61048900Y-29124357D01*
X71501000Y-29124357D01*
X71501000Y-29549643D01*
X71583970Y-29966757D01*
X71746719Y-30359670D01*
X71982996Y-30713282D01*
X72283718Y-31014004D01*
X72637330Y-31250281D01*
X73030243Y-31413030D01*
X73447357Y-31496000D01*
X73872643Y-31496000D01*
X74289757Y-31413030D01*
X74682670Y-31250281D01*
X75036282Y-31014004D01*
X75337004Y-30713282D01*
X75573281Y-30359670D01*
X75736030Y-29966757D01*
X75819000Y-29549643D01*
X75819000Y-29124357D01*
X81343500Y-29124357D01*
X81343500Y-29549643D01*
X81426470Y-29966757D01*
X81589219Y-30359670D01*
X81825496Y-30713282D01*
X82126218Y-31014004D01*
X82479830Y-31250281D01*
X82872743Y-31413030D01*
X83289857Y-31496000D01*
X83715143Y-31496000D01*
X84132257Y-31413030D01*
X84525170Y-31250281D01*
X84878782Y-31014004D01*
X85179504Y-30713282D01*
X85415781Y-30359670D01*
X85578530Y-29966757D01*
X85661500Y-29549643D01*
X85661500Y-29124357D01*
X85652295Y-29078076D01*
X96113600Y-29078076D01*
X96113600Y-29595924D01*
X96214627Y-30103822D01*
X96412799Y-30582251D01*
X96700500Y-31012826D01*
X97066674Y-31379000D01*
X97497249Y-31666701D01*
X97975678Y-31864873D01*
X98483576Y-31965900D01*
X99001424Y-31965900D01*
X99509322Y-31864873D01*
X99987751Y-31666701D01*
X100418326Y-31379000D01*
X100784500Y-31012826D01*
X101072201Y-30582251D01*
X101270373Y-30103822D01*
X101371400Y-29595924D01*
X101371400Y-29078076D01*
X108178600Y-29078076D01*
X108178600Y-29595924D01*
X108279627Y-30103822D01*
X108477799Y-30582251D01*
X108765500Y-31012826D01*
X109131674Y-31379000D01*
X109562249Y-31666701D01*
X110040678Y-31864873D01*
X110548576Y-31965900D01*
X111066424Y-31965900D01*
X111574322Y-31864873D01*
X112052751Y-31666701D01*
X112483326Y-31379000D01*
X112849500Y-31012826D01*
X113137201Y-30582251D01*
X113335373Y-30103822D01*
X113436400Y-29595924D01*
X113436400Y-29078076D01*
X113335373Y-28570178D01*
X113137201Y-28091749D01*
X112849500Y-27661174D01*
X112483326Y-27295000D01*
X112052751Y-27007299D01*
X111574322Y-26809127D01*
X111066424Y-26708100D01*
X110548576Y-26708100D01*
X110040678Y-26809127D01*
X109562249Y-27007299D01*
X109131674Y-27295000D01*
X108765500Y-27661174D01*
X108477799Y-28091749D01*
X108279627Y-28570178D01*
X108178600Y-29078076D01*
X101371400Y-29078076D01*
X101270373Y-28570178D01*
X101072201Y-28091749D01*
X100784500Y-27661174D01*
X100418326Y-27295000D01*
X99987751Y-27007299D01*
X99509322Y-26809127D01*
X99001424Y-26708100D01*
X98483576Y-26708100D01*
X97975678Y-26809127D01*
X97497249Y-27007299D01*
X97066674Y-27295000D01*
X96700500Y-27661174D01*
X96412799Y-28091749D01*
X96214627Y-28570178D01*
X96113600Y-29078076D01*
X85652295Y-29078076D01*
X85578530Y-28707243D01*
X85415781Y-28314330D01*
X85179504Y-27960718D01*
X84878782Y-27659996D01*
X84525170Y-27423719D01*
X84132257Y-27260970D01*
X83715143Y-27178000D01*
X83289857Y-27178000D01*
X82872743Y-27260970D01*
X82479830Y-27423719D01*
X82126218Y-27659996D01*
X81825496Y-27960718D01*
X81589219Y-28314330D01*
X81426470Y-28707243D01*
X81343500Y-29124357D01*
X75819000Y-29124357D01*
X75736030Y-28707243D01*
X75573281Y-28314330D01*
X75337004Y-27960718D01*
X75036282Y-27659996D01*
X74682670Y-27423719D01*
X74289757Y-27260970D01*
X73872643Y-27178000D01*
X73447357Y-27178000D01*
X73030243Y-27260970D01*
X72637330Y-27423719D01*
X72283718Y-27659996D01*
X71982996Y-27960718D01*
X71746719Y-28314330D01*
X71583970Y-28707243D01*
X71501000Y-29124357D01*
X61048900Y-29124357D01*
X61048900Y-29078076D01*
X60947873Y-28570178D01*
X60749701Y-28091749D01*
X60462000Y-27661174D01*
X60095826Y-27295000D01*
X59665251Y-27007299D01*
X59186822Y-26809127D01*
X58678924Y-26708100D01*
X58161076Y-26708100D01*
X57653178Y-26809127D01*
X57174749Y-27007299D01*
X56744174Y-27295000D01*
X56378000Y-27661174D01*
X56090299Y-28091749D01*
X55892127Y-28570178D01*
X55791100Y-29078076D01*
X48983900Y-29078076D01*
X48882873Y-28570178D01*
X48684701Y-28091749D01*
X48397000Y-27661174D01*
X48030826Y-27295000D01*
X47600251Y-27007299D01*
X47121822Y-26809127D01*
X46613924Y-26708100D01*
X46096076Y-26708100D01*
X45588178Y-26809127D01*
X45109749Y-27007299D01*
X44679174Y-27295000D01*
X44313000Y-27661174D01*
X44025299Y-28091749D01*
X43827127Y-28570178D01*
X43726100Y-29078076D01*
X33264795Y-29078076D01*
X33191030Y-28707243D01*
X33028281Y-28314330D01*
X32792004Y-27960718D01*
X32491282Y-27659996D01*
X32137670Y-27423719D01*
X31744757Y-27260970D01*
X31327643Y-27178000D01*
X30902357Y-27178000D01*
X30485243Y-27260970D01*
X30092330Y-27423719D01*
X29738718Y-27659996D01*
X29437996Y-27960718D01*
X29235000Y-28264522D01*
X29235000Y-22885000D01*
X127133751Y-22885000D01*
X127133751Y-27466203D01*
G37*
%TD.AperFunction*%
D14*
X56293596Y-34618398D02*
X56504102Y-34828904D01*
X56751631Y-34994297D01*
X57026670Y-35108222D01*
X57318650Y-35166300D01*
X57616350Y-35166300D01*
X57856275Y-35118576D01*
X62204799Y-39467101D01*
X62228598Y-39496100D01*
X62257596Y-39519898D01*
X62344322Y-39591073D01*
X62476352Y-39661645D01*
X62619613Y-39705102D01*
X62731266Y-39716099D01*
X62731275Y-39716099D01*
X62768598Y-39719775D01*
X62805921Y-39716099D01*
X64554873Y-39716099D01*
X64345299Y-40029749D01*
X64147127Y-40508178D01*
X64046100Y-41016076D01*
X64046100Y-41533924D01*
X64147127Y-42041822D01*
X64345299Y-42520251D01*
X64633000Y-42950826D01*
X64999174Y-43317000D01*
X65429749Y-43604701D01*
X65908178Y-43802873D01*
X66416076Y-43903900D01*
X66933924Y-43903900D01*
X67091028Y-43872650D01*
X69987424Y-43872650D01*
X70032634Y-44216380D01*
X70144034Y-44544685D01*
X70253286Y-44749079D01*
X70530469Y-44859926D01*
X71575395Y-43815000D01*
X71934605Y-43815000D01*
X72979531Y-44859926D01*
X73256714Y-44749079D01*
X73410089Y-44438160D01*
X73499860Y-44103295D01*
X73522576Y-43757350D01*
X73477366Y-43413620D01*
X73365966Y-43085315D01*
X73256714Y-42880921D01*
X72979531Y-42770074D01*
X71934605Y-43815000D01*
X71575395Y-43815000D01*
X70530469Y-42770074D01*
X70253286Y-42880921D01*
X70099911Y-43191840D01*
X70010140Y-43526705D01*
X69987424Y-43872650D01*
X67091028Y-43872650D01*
X67441822Y-43802873D01*
X67920251Y-43604701D01*
X68350826Y-43317000D01*
X68717000Y-42950826D01*
X68957782Y-42590469D01*
X70710074Y-42590469D01*
X71755000Y-43635395D01*
X72799926Y-42590469D01*
X72689079Y-42313286D01*
X72378160Y-42159911D01*
X72043295Y-42070140D01*
X71697350Y-42047424D01*
X71353620Y-42092634D01*
X71025315Y-42204034D01*
X70820921Y-42313286D01*
X70710074Y-42590469D01*
X68957782Y-42590469D01*
X69004701Y-42520251D01*
X69202873Y-42041822D01*
X69303900Y-41533924D01*
X69303900Y-41016076D01*
X69202873Y-40508178D01*
X69004701Y-40029749D01*
X68795127Y-39716099D01*
X81503798Y-39716099D01*
X86285652Y-44497954D01*
X86255136Y-44571627D01*
X86187500Y-44911655D01*
X86187500Y-45258345D01*
X86255136Y-45598373D01*
X86387808Y-45918673D01*
X86580419Y-46206935D01*
X86825565Y-46452081D01*
X87113827Y-46644692D01*
X87434127Y-46777364D01*
X87774155Y-46845000D01*
X88120845Y-46845000D01*
X88460873Y-46777364D01*
X88781173Y-46644692D01*
X88979219Y-46512362D01*
X89035529Y-46795451D01*
X89149356Y-47070253D01*
X89314607Y-47317569D01*
X89524931Y-47527893D01*
X89720773Y-47658750D01*
X67441727Y-47658750D01*
X67637569Y-47527893D01*
X67847893Y-47317569D01*
X68013144Y-47070253D01*
X68126971Y-46795451D01*
X68185000Y-46503722D01*
X68185000Y-46206278D01*
X68126971Y-45914549D01*
X68013144Y-45639747D01*
X67847893Y-45392431D01*
X67637569Y-45182107D01*
X67424189Y-45039531D01*
X70710074Y-45039531D01*
X70820921Y-45316714D01*
X71131840Y-45470089D01*
X71466705Y-45559860D01*
X71812650Y-45582576D01*
X72156380Y-45537366D01*
X72484685Y-45425966D01*
X72689079Y-45316714D01*
X72799926Y-45039531D01*
X71755000Y-43994605D01*
X70710074Y-45039531D01*
X67424189Y-45039531D01*
X67390253Y-45016856D01*
X67115451Y-44903029D01*
X66823722Y-44845000D01*
X66526278Y-44845000D01*
X66234549Y-44903029D01*
X65959747Y-45016856D01*
X65712431Y-45182107D01*
X65502107Y-45392431D01*
X65336856Y-45639747D01*
X65223029Y-45914549D01*
X65165000Y-46206278D01*
X65165000Y-46503722D01*
X65223029Y-46795451D01*
X65336856Y-47070253D01*
X65502107Y-47317569D01*
X65712431Y-47527893D01*
X65908273Y-47658750D01*
X65402302Y-47658750D01*
X55687500Y-37943949D01*
X55687500Y-34964810D01*
X55890898Y-34828904D01*
X56101404Y-34618398D01*
X56197500Y-34474580D01*
X56293596Y-34618398D01*
%TA.AperFunction,Conductor*%
D15*
G36*
X56293596Y-34618398D02*
G01*
X56504102Y-34828904D01*
X56751631Y-34994297D01*
X57026670Y-35108222D01*
X57318650Y-35166300D01*
X57616350Y-35166300D01*
X57856275Y-35118576D01*
X62204799Y-39467101D01*
X62228598Y-39496100D01*
X62257596Y-39519898D01*
X62344322Y-39591073D01*
X62476352Y-39661645D01*
X62619613Y-39705102D01*
X62731266Y-39716099D01*
X62731275Y-39716099D01*
X62768598Y-39719775D01*
X62805921Y-39716099D01*
X64554873Y-39716099D01*
X64345299Y-40029749D01*
X64147127Y-40508178D01*
X64046100Y-41016076D01*
X64046100Y-41533924D01*
X64147127Y-42041822D01*
X64345299Y-42520251D01*
X64633000Y-42950826D01*
X64999174Y-43317000D01*
X65429749Y-43604701D01*
X65908178Y-43802873D01*
X66416076Y-43903900D01*
X66933924Y-43903900D01*
X67091028Y-43872650D01*
X69987424Y-43872650D01*
X70032634Y-44216380D01*
X70144034Y-44544685D01*
X70253286Y-44749079D01*
X70530469Y-44859926D01*
X71575395Y-43815000D01*
X71934605Y-43815000D01*
X72979531Y-44859926D01*
X73256714Y-44749079D01*
X73410089Y-44438160D01*
X73499860Y-44103295D01*
X73522576Y-43757350D01*
X73477366Y-43413620D01*
X73365966Y-43085315D01*
X73256714Y-42880921D01*
X72979531Y-42770074D01*
X71934605Y-43815000D01*
X71575395Y-43815000D01*
X70530469Y-42770074D01*
X70253286Y-42880921D01*
X70099911Y-43191840D01*
X70010140Y-43526705D01*
X69987424Y-43872650D01*
X67091028Y-43872650D01*
X67441822Y-43802873D01*
X67920251Y-43604701D01*
X68350826Y-43317000D01*
X68717000Y-42950826D01*
X68957782Y-42590469D01*
X70710074Y-42590469D01*
X71755000Y-43635395D01*
X72799926Y-42590469D01*
X72689079Y-42313286D01*
X72378160Y-42159911D01*
X72043295Y-42070140D01*
X71697350Y-42047424D01*
X71353620Y-42092634D01*
X71025315Y-42204034D01*
X70820921Y-42313286D01*
X70710074Y-42590469D01*
X68957782Y-42590469D01*
X69004701Y-42520251D01*
X69202873Y-42041822D01*
X69303900Y-41533924D01*
X69303900Y-41016076D01*
X69202873Y-40508178D01*
X69004701Y-40029749D01*
X68795127Y-39716099D01*
X81503798Y-39716099D01*
X86285652Y-44497954D01*
X86255136Y-44571627D01*
X86187500Y-44911655D01*
X86187500Y-45258345D01*
X86255136Y-45598373D01*
X86387808Y-45918673D01*
X86580419Y-46206935D01*
X86825565Y-46452081D01*
X87113827Y-46644692D01*
X87434127Y-46777364D01*
X87774155Y-46845000D01*
X88120845Y-46845000D01*
X88460873Y-46777364D01*
X88781173Y-46644692D01*
X88979219Y-46512362D01*
X89035529Y-46795451D01*
X89149356Y-47070253D01*
X89314607Y-47317569D01*
X89524931Y-47527893D01*
X89720773Y-47658750D01*
X67441727Y-47658750D01*
X67637569Y-47527893D01*
X67847893Y-47317569D01*
X68013144Y-47070253D01*
X68126971Y-46795451D01*
X68185000Y-46503722D01*
X68185000Y-46206278D01*
X68126971Y-45914549D01*
X68013144Y-45639747D01*
X67847893Y-45392431D01*
X67637569Y-45182107D01*
X67424189Y-45039531D01*
X70710074Y-45039531D01*
X70820921Y-45316714D01*
X71131840Y-45470089D01*
X71466705Y-45559860D01*
X71812650Y-45582576D01*
X72156380Y-45537366D01*
X72484685Y-45425966D01*
X72689079Y-45316714D01*
X72799926Y-45039531D01*
X71755000Y-43994605D01*
X70710074Y-45039531D01*
X67424189Y-45039531D01*
X67390253Y-45016856D01*
X67115451Y-44903029D01*
X66823722Y-44845000D01*
X66526278Y-44845000D01*
X66234549Y-44903029D01*
X65959747Y-45016856D01*
X65712431Y-45182107D01*
X65502107Y-45392431D01*
X65336856Y-45639747D01*
X65223029Y-45914549D01*
X65165000Y-46206278D01*
X65165000Y-46503722D01*
X65223029Y-46795451D01*
X65336856Y-47070253D01*
X65502107Y-47317569D01*
X65712431Y-47527893D01*
X65908273Y-47658750D01*
X65402302Y-47658750D01*
X55687500Y-37943949D01*
X55687500Y-34964810D01*
X55890898Y-34828904D01*
X56101404Y-34618398D01*
X56197500Y-34474580D01*
X56293596Y-34618398D01*
G37*
%TD.AperFunction*%
%TD*%
M02*
