%TF.GenerationSoftware,KiCad,Pcbnew,(5.1.9)-1*%
%TF.CreationDate,2021-04-18T19:10:53+08:00*%
%TF.ProjectId,ISOISOISO,49534f49-534f-4495-934f-2e6b69636164,rev?*%
%TF.SameCoordinates,Original*%
%TF.FileFunction,Soldermask,Top*%
%TF.FilePolarity,Negative*%
%FSLAX46Y46*%
G04 Gerber Fmt 4.6, Leading zero omitted, Abs format (unit mm)*
G04 Created by KiCad (PCBNEW (5.1.9)-1) date 2021-04-18 19:10:53*
%MOMM*%
%LPD*%
G01*
G04 APERTURE LIST*
%ADD10C,1.752600*%
%ADD11R,1.752600X1.752600*%
%ADD12C,3.987800*%
%ADD13C,3.048000*%
%ADD14C,1.750000*%
G04 APERTURE END LIST*
D10*
%TO.C,U1*%
X32067500Y-33655000D03*
X60007500Y-48895000D03*
X34607500Y-33655000D03*
X37147500Y-33655000D03*
X39687500Y-33655000D03*
X42227500Y-33655000D03*
X44767500Y-33655000D03*
X47307500Y-33655000D03*
X49847500Y-33655000D03*
X52387500Y-33655000D03*
X54927500Y-33655000D03*
X57467500Y-33655000D03*
X60007500Y-33655000D03*
X57467500Y-48895000D03*
X54927500Y-48895000D03*
X52387500Y-48895000D03*
X49847500Y-48895000D03*
X47307500Y-48895000D03*
X44767500Y-48895000D03*
X42227500Y-48895000D03*
X39687500Y-48895000D03*
X37147500Y-48895000D03*
X34607500Y-48895000D03*
D11*
X32067500Y-48895000D03*
%TD*%
D12*
%TO.C,MX8*%
X110807500Y-67437000D03*
X110807500Y-91313000D03*
D13*
X126047500Y-67437000D03*
X126047500Y-91313000D03*
D14*
X119062500Y-84455000D03*
X119062500Y-74295000D03*
D12*
X119062500Y-79375000D03*
%TD*%
%TO.C,MX7*%
X110807500Y-29337000D03*
X110807500Y-53213000D03*
D13*
X126047500Y-29337000D03*
X126047500Y-53213000D03*
D14*
X119062500Y-46355000D03*
X119062500Y-36195000D03*
D12*
X119062500Y-41275000D03*
%TD*%
%TO.C,MX6*%
X98742500Y-91313000D03*
X98742500Y-67437000D03*
D13*
X83502500Y-91313000D03*
X83502500Y-67437000D03*
D14*
X90487500Y-74295000D03*
X90487500Y-84455000D03*
D12*
X90487500Y-79375000D03*
%TD*%
%TO.C,MX5*%
X98742500Y-53213000D03*
X98742500Y-29337000D03*
D13*
X83502500Y-53213000D03*
X83502500Y-29337000D03*
D14*
X90487500Y-36195000D03*
X90487500Y-46355000D03*
D12*
X90487500Y-41275000D03*
%TD*%
%TO.C,MX4*%
X58420000Y-67437000D03*
X58420000Y-91313000D03*
D13*
X73660000Y-67437000D03*
X73660000Y-91313000D03*
D14*
X66675000Y-84455000D03*
X66675000Y-74295000D03*
D12*
X66675000Y-79375000D03*
%TD*%
%TO.C,MX3*%
X58420000Y-29337000D03*
X58420000Y-53213000D03*
D13*
X73660000Y-29337000D03*
X73660000Y-53213000D03*
D14*
X66675000Y-46355000D03*
X66675000Y-36195000D03*
D12*
X66675000Y-41275000D03*
%TD*%
%TO.C,MX2*%
X46355000Y-91313000D03*
X46355000Y-67437000D03*
D13*
X31115000Y-91313000D03*
X31115000Y-67437000D03*
D14*
X38100000Y-74295000D03*
X38100000Y-84455000D03*
D12*
X38100000Y-79375000D03*
%TD*%
%TO.C,MX1*%
X46355000Y-53213000D03*
X46355000Y-29337000D03*
D13*
X31115000Y-53213000D03*
X31115000Y-29337000D03*
D14*
X38100000Y-36195000D03*
X38100000Y-46355000D03*
D12*
X38100000Y-41275000D03*
%TD*%
M02*
