%TF.GenerationSoftware,KiCad,Pcbnew,(5.1.9)-1*%
%TF.CreationDate,2021-04-18T19:10:53+08:00*%
%TF.ProjectId,ISOISOISO,49534f49-534f-4495-934f-2e6b69636164,rev?*%
%TF.SameCoordinates,Original*%
%TF.FileFunction,Legend,Bot*%
%TF.FilePolarity,Positive*%
%FSLAX46Y46*%
G04 Gerber Fmt 4.6, Leading zero omitted, Abs format (unit mm)*
G04 Created by KiCad (PCBNEW (5.1.9)-1) date 2021-04-18 19:10:53*
%MOMM*%
%LPD*%
G01*
G04 APERTURE LIST*
%ADD10C,0.381000*%
%ADD11C,0.150000*%
%ADD12C,1.752600*%
%ADD13R,1.752600X1.752600*%
%ADD14C,3.987800*%
%ADD15C,3.048000*%
%ADD16C,1.750000*%
%ADD17C,2.250000*%
G04 APERTURE END LIST*
D10*
%TO.C,U1*%
X33337500Y-47625000D02*
X33337500Y-50165000D01*
X30797500Y-47625000D02*
X33337500Y-47625000D01*
D11*
G36*
X37086530Y-35230365D02*
G01*
X37186530Y-35230365D01*
X37186530Y-35130365D01*
X37086530Y-35130365D01*
X37086530Y-35230365D01*
G37*
X37086530Y-35230365D02*
X37186530Y-35230365D01*
X37186530Y-35130365D01*
X37086530Y-35130365D01*
X37086530Y-35230365D01*
G36*
X36686530Y-35030365D02*
G01*
X37486530Y-35030365D01*
X37486530Y-34930365D01*
X36686530Y-34930365D01*
X36686530Y-35030365D01*
G37*
X36686530Y-35030365D02*
X37486530Y-35030365D01*
X37486530Y-34930365D01*
X36686530Y-34930365D01*
X36686530Y-35030365D01*
G36*
X37286530Y-35430365D02*
G01*
X37486530Y-35430365D01*
X37486530Y-35330365D01*
X37286530Y-35330365D01*
X37286530Y-35430365D01*
G37*
X37286530Y-35430365D02*
X37486530Y-35430365D01*
X37486530Y-35330365D01*
X37286530Y-35330365D01*
X37286530Y-35430365D01*
G36*
X36686530Y-35430365D02*
G01*
X36986530Y-35430365D01*
X36986530Y-35330365D01*
X36686530Y-35330365D01*
X36686530Y-35430365D01*
G37*
X36686530Y-35430365D02*
X36986530Y-35430365D01*
X36986530Y-35330365D01*
X36686530Y-35330365D01*
X36686530Y-35430365D01*
G36*
X36686530Y-35430365D02*
G01*
X36786530Y-35430365D01*
X36786530Y-34930365D01*
X36686530Y-34930365D01*
X36686530Y-35430365D01*
G37*
X36686530Y-35430365D02*
X36786530Y-35430365D01*
X36786530Y-34930365D01*
X36686530Y-34930365D01*
X36686530Y-35430365D01*
D10*
X61277500Y-32385000D02*
X28257500Y-32385000D01*
X61277500Y-50165000D02*
X61277500Y-32385000D01*
X28257500Y-50165000D02*
X61277500Y-50165000D01*
X28257500Y-32385000D02*
X28257500Y-50165000D01*
X30797500Y-47625000D02*
X30797500Y-50165000D01*
D11*
X37451309Y-35701666D02*
X37489404Y-35815952D01*
X37489404Y-36006428D01*
X37451309Y-36082619D01*
X37413214Y-36120714D01*
X37337023Y-36158809D01*
X37260833Y-36158809D01*
X37184642Y-36120714D01*
X37146547Y-36082619D01*
X37108452Y-36006428D01*
X37070357Y-35854047D01*
X37032261Y-35777857D01*
X36994166Y-35739761D01*
X36917976Y-35701666D01*
X36841785Y-35701666D01*
X36765595Y-35739761D01*
X36727500Y-35777857D01*
X36689404Y-35854047D01*
X36689404Y-36044523D01*
X36727500Y-36158809D01*
X36689404Y-36387380D02*
X36689404Y-36844523D01*
X37489404Y-36615952D02*
X36689404Y-36615952D01*
X31629404Y-42656395D02*
X31629404Y-43113538D01*
X32429404Y-42884967D02*
X31629404Y-42884967D01*
X31629404Y-43304014D02*
X32429404Y-43837348D01*
X31629404Y-43837348D02*
X32429404Y-43304014D01*
X31629404Y-44294491D02*
X31629404Y-44370681D01*
X31667500Y-44446872D01*
X31705595Y-44484967D01*
X31781785Y-44523062D01*
X31934166Y-44561157D01*
X32124642Y-44561157D01*
X32277023Y-44523062D01*
X32353214Y-44484967D01*
X32391309Y-44446872D01*
X32429404Y-44370681D01*
X32429404Y-44294491D01*
X32391309Y-44218300D01*
X32353214Y-44180205D01*
X32277023Y-44142110D01*
X32124642Y-44104014D01*
X31934166Y-44104014D01*
X31781785Y-44142110D01*
X31705595Y-44180205D01*
X31667500Y-44218300D01*
X31629404Y-44294491D01*
X31591309Y-45475443D02*
X32619880Y-44789729D01*
X32429404Y-45742110D02*
X31629404Y-45742110D01*
X31629404Y-45932586D01*
X31667500Y-46046872D01*
X31743690Y-46123062D01*
X31819880Y-46161157D01*
X31972261Y-46199252D01*
X32086547Y-46199252D01*
X32238928Y-46161157D01*
X32315119Y-46123062D01*
X32391309Y-46046872D01*
X32429404Y-45932586D01*
X32429404Y-45742110D01*
X31629404Y-46465919D02*
X31629404Y-46961157D01*
X31934166Y-46694491D01*
X31934166Y-46808776D01*
X31972261Y-46884967D01*
X32010357Y-46923062D01*
X32086547Y-46961157D01*
X32277023Y-46961157D01*
X32353214Y-46923062D01*
X32391309Y-46884967D01*
X32429404Y-46808776D01*
X32429404Y-46580205D01*
X32391309Y-46504014D01*
X32353214Y-46465919D01*
X57410357Y-35490190D02*
X57448452Y-35604476D01*
X57486547Y-35642571D01*
X57562738Y-35680666D01*
X57677023Y-35680666D01*
X57753214Y-35642571D01*
X57791309Y-35604476D01*
X57829404Y-35528285D01*
X57829404Y-35223523D01*
X57029404Y-35223523D01*
X57029404Y-35490190D01*
X57067500Y-35566380D01*
X57105595Y-35604476D01*
X57181785Y-35642571D01*
X57257976Y-35642571D01*
X57334166Y-35604476D01*
X57372261Y-35566380D01*
X57410357Y-35490190D01*
X57410357Y-35223523D01*
X57105595Y-35985428D02*
X57067500Y-36023523D01*
X57029404Y-36099714D01*
X57029404Y-36290190D01*
X57067500Y-36366380D01*
X57105595Y-36404476D01*
X57181785Y-36442571D01*
X57257976Y-36442571D01*
X57372261Y-36404476D01*
X57829404Y-35947333D01*
X57829404Y-36442571D01*
X49790357Y-35547333D02*
X49790357Y-35280666D01*
X50209404Y-35280666D02*
X49409404Y-35280666D01*
X49409404Y-35661619D01*
X49409404Y-35890190D02*
X49409404Y-36423523D01*
X50209404Y-36080666D01*
X47250357Y-35547333D02*
X47250357Y-35280666D01*
X47669404Y-35280666D02*
X46869404Y-35280666D01*
X46869404Y-35661619D01*
X46869404Y-36309238D02*
X46869404Y-36156857D01*
X46907500Y-36080666D01*
X46945595Y-36042571D01*
X47059880Y-35966380D01*
X47212261Y-35928285D01*
X47517023Y-35928285D01*
X47593214Y-35966380D01*
X47631309Y-36004476D01*
X47669404Y-36080666D01*
X47669404Y-36233047D01*
X47631309Y-36309238D01*
X47593214Y-36347333D01*
X47517023Y-36385428D01*
X47326547Y-36385428D01*
X47250357Y-36347333D01*
X47212261Y-36309238D01*
X47174166Y-36233047D01*
X47174166Y-36080666D01*
X47212261Y-36004476D01*
X47250357Y-35966380D01*
X47326547Y-35928285D01*
X44710357Y-35547333D02*
X44710357Y-35280666D01*
X45129404Y-35280666D02*
X44329404Y-35280666D01*
X44329404Y-35661619D01*
X44329404Y-36347333D02*
X44329404Y-35966380D01*
X44710357Y-35928285D01*
X44672261Y-35966380D01*
X44634166Y-36042571D01*
X44634166Y-36233047D01*
X44672261Y-36309238D01*
X44710357Y-36347333D01*
X44786547Y-36385428D01*
X44977023Y-36385428D01*
X45053214Y-36347333D01*
X45091309Y-36309238D01*
X45129404Y-36233047D01*
X45129404Y-36042571D01*
X45091309Y-35966380D01*
X45053214Y-35928285D01*
X32429404Y-35261619D02*
X32048452Y-34994952D01*
X32429404Y-34804476D02*
X31629404Y-34804476D01*
X31629404Y-35109238D01*
X31667500Y-35185428D01*
X31705595Y-35223523D01*
X31781785Y-35261619D01*
X31896071Y-35261619D01*
X31972261Y-35223523D01*
X32010357Y-35185428D01*
X32048452Y-35109238D01*
X32048452Y-34804476D01*
X32200833Y-35566380D02*
X32200833Y-35947333D01*
X32429404Y-35490190D02*
X31629404Y-35756857D01*
X32429404Y-36023523D01*
X31629404Y-36214000D02*
X32429404Y-36404476D01*
X31857976Y-36556857D01*
X32429404Y-36709238D01*
X31629404Y-36899714D01*
X34207500Y-35204476D02*
X34169404Y-35128285D01*
X34169404Y-35014000D01*
X34207500Y-34899714D01*
X34283690Y-34823523D01*
X34359880Y-34785428D01*
X34512261Y-34747333D01*
X34626547Y-34747333D01*
X34778928Y-34785428D01*
X34855119Y-34823523D01*
X34931309Y-34899714D01*
X34969404Y-35014000D01*
X34969404Y-35090190D01*
X34931309Y-35204476D01*
X34893214Y-35242571D01*
X34626547Y-35242571D01*
X34626547Y-35090190D01*
X34969404Y-35585428D02*
X34169404Y-35585428D01*
X34969404Y-36042571D01*
X34169404Y-36042571D01*
X34969404Y-36423523D02*
X34169404Y-36423523D01*
X34169404Y-36614000D01*
X34207500Y-36728285D01*
X34283690Y-36804476D01*
X34359880Y-36842571D01*
X34512261Y-36880666D01*
X34626547Y-36880666D01*
X34778928Y-36842571D01*
X34855119Y-36804476D01*
X34931309Y-36728285D01*
X34969404Y-36614000D01*
X34969404Y-36423523D01*
X39249404Y-34747333D02*
X40049404Y-35014000D01*
X39249404Y-35280666D01*
X39973214Y-36004476D02*
X40011309Y-35966380D01*
X40049404Y-35852095D01*
X40049404Y-35775904D01*
X40011309Y-35661619D01*
X39935119Y-35585428D01*
X39858928Y-35547333D01*
X39706547Y-35509238D01*
X39592261Y-35509238D01*
X39439880Y-35547333D01*
X39363690Y-35585428D01*
X39287500Y-35661619D01*
X39249404Y-35775904D01*
X39249404Y-35852095D01*
X39287500Y-35966380D01*
X39325595Y-36004476D01*
X39973214Y-36804476D02*
X40011309Y-36766380D01*
X40049404Y-36652095D01*
X40049404Y-36575904D01*
X40011309Y-36461619D01*
X39935119Y-36385428D01*
X39858928Y-36347333D01*
X39706547Y-36309238D01*
X39592261Y-36309238D01*
X39439880Y-36347333D01*
X39363690Y-36385428D01*
X39287500Y-36461619D01*
X39249404Y-36575904D01*
X39249404Y-36652095D01*
X39287500Y-36766380D01*
X39325595Y-36804476D01*
X42170357Y-35547333D02*
X42170357Y-35280666D01*
X42589404Y-35280666D02*
X41789404Y-35280666D01*
X41789404Y-35661619D01*
X42056071Y-36309238D02*
X42589404Y-36309238D01*
X41751309Y-36118761D02*
X42322738Y-35928285D01*
X42322738Y-36423523D01*
X52330357Y-35490190D02*
X52368452Y-35604476D01*
X52406547Y-35642571D01*
X52482738Y-35680666D01*
X52597023Y-35680666D01*
X52673214Y-35642571D01*
X52711309Y-35604476D01*
X52749404Y-35528285D01*
X52749404Y-35223523D01*
X51949404Y-35223523D01*
X51949404Y-35490190D01*
X51987500Y-35566380D01*
X52025595Y-35604476D01*
X52101785Y-35642571D01*
X52177976Y-35642571D01*
X52254166Y-35604476D01*
X52292261Y-35566380D01*
X52330357Y-35490190D01*
X52330357Y-35223523D01*
X52749404Y-36442571D02*
X52749404Y-35985428D01*
X52749404Y-36214000D02*
X51949404Y-36214000D01*
X52063690Y-36137809D01*
X52139880Y-36061619D01*
X52177976Y-35985428D01*
X54870357Y-35490190D02*
X54908452Y-35604476D01*
X54946547Y-35642571D01*
X55022738Y-35680666D01*
X55137023Y-35680666D01*
X55213214Y-35642571D01*
X55251309Y-35604476D01*
X55289404Y-35528285D01*
X55289404Y-35223523D01*
X54489404Y-35223523D01*
X54489404Y-35490190D01*
X54527500Y-35566380D01*
X54565595Y-35604476D01*
X54641785Y-35642571D01*
X54717976Y-35642571D01*
X54794166Y-35604476D01*
X54832261Y-35566380D01*
X54870357Y-35490190D01*
X54870357Y-35223523D01*
X54489404Y-35947333D02*
X54489404Y-36442571D01*
X54794166Y-36175904D01*
X54794166Y-36290190D01*
X54832261Y-36366380D01*
X54870357Y-36404476D01*
X54946547Y-36442571D01*
X55137023Y-36442571D01*
X55213214Y-36404476D01*
X55251309Y-36366380D01*
X55289404Y-36290190D01*
X55289404Y-36061619D01*
X55251309Y-35985428D01*
X55213214Y-35947333D01*
X59950357Y-35490190D02*
X59988452Y-35604476D01*
X60026547Y-35642571D01*
X60102738Y-35680666D01*
X60217023Y-35680666D01*
X60293214Y-35642571D01*
X60331309Y-35604476D01*
X60369404Y-35528285D01*
X60369404Y-35223523D01*
X59569404Y-35223523D01*
X59569404Y-35490190D01*
X59607500Y-35566380D01*
X59645595Y-35604476D01*
X59721785Y-35642571D01*
X59797976Y-35642571D01*
X59874166Y-35604476D01*
X59912261Y-35566380D01*
X59950357Y-35490190D01*
X59950357Y-35223523D01*
X59569404Y-36366380D02*
X59569404Y-36214000D01*
X59607500Y-36137809D01*
X59645595Y-36099714D01*
X59759880Y-36023523D01*
X59912261Y-35985428D01*
X60217023Y-35985428D01*
X60293214Y-36023523D01*
X60331309Y-36061619D01*
X60369404Y-36137809D01*
X60369404Y-36290190D01*
X60331309Y-36366380D01*
X60293214Y-36404476D01*
X60217023Y-36442571D01*
X60026547Y-36442571D01*
X59950357Y-36404476D01*
X59912261Y-36366380D01*
X59874166Y-36290190D01*
X59874166Y-36137809D01*
X59912261Y-36061619D01*
X59950357Y-36023523D01*
X60026547Y-35985428D01*
X59950357Y-46412190D02*
X59988452Y-46526476D01*
X60026547Y-46564571D01*
X60102738Y-46602666D01*
X60217023Y-46602666D01*
X60293214Y-46564571D01*
X60331309Y-46526476D01*
X60369404Y-46450285D01*
X60369404Y-46145523D01*
X59569404Y-46145523D01*
X59569404Y-46412190D01*
X59607500Y-46488380D01*
X59645595Y-46526476D01*
X59721785Y-46564571D01*
X59797976Y-46564571D01*
X59874166Y-46526476D01*
X59912261Y-46488380D01*
X59950357Y-46412190D01*
X59950357Y-46145523D01*
X59569404Y-47326476D02*
X59569404Y-46945523D01*
X59950357Y-46907428D01*
X59912261Y-46945523D01*
X59874166Y-47021714D01*
X59874166Y-47212190D01*
X59912261Y-47288380D01*
X59950357Y-47326476D01*
X60026547Y-47364571D01*
X60217023Y-47364571D01*
X60293214Y-47326476D01*
X60331309Y-47288380D01*
X60369404Y-47212190D01*
X60369404Y-47021714D01*
X60331309Y-46945523D01*
X60293214Y-46907428D01*
X57410357Y-46412190D02*
X57448452Y-46526476D01*
X57486547Y-46564571D01*
X57562738Y-46602666D01*
X57677023Y-46602666D01*
X57753214Y-46564571D01*
X57791309Y-46526476D01*
X57829404Y-46450285D01*
X57829404Y-46145523D01*
X57029404Y-46145523D01*
X57029404Y-46412190D01*
X57067500Y-46488380D01*
X57105595Y-46526476D01*
X57181785Y-46564571D01*
X57257976Y-46564571D01*
X57334166Y-46526476D01*
X57372261Y-46488380D01*
X57410357Y-46412190D01*
X57410357Y-46145523D01*
X57296071Y-47288380D02*
X57829404Y-47288380D01*
X56991309Y-47097904D02*
X57562738Y-46907428D01*
X57562738Y-47402666D01*
X54870357Y-46183619D02*
X54870357Y-46450285D01*
X55289404Y-46564571D02*
X55289404Y-46183619D01*
X54489404Y-46183619D01*
X54489404Y-46564571D01*
X54489404Y-47250285D02*
X54489404Y-47097904D01*
X54527500Y-47021714D01*
X54565595Y-46983619D01*
X54679880Y-46907428D01*
X54832261Y-46869333D01*
X55137023Y-46869333D01*
X55213214Y-46907428D01*
X55251309Y-46945523D01*
X55289404Y-47021714D01*
X55289404Y-47174095D01*
X55251309Y-47250285D01*
X55213214Y-47288380D01*
X55137023Y-47326476D01*
X54946547Y-47326476D01*
X54870357Y-47288380D01*
X54832261Y-47250285D01*
X54794166Y-47174095D01*
X54794166Y-47021714D01*
X54832261Y-46945523D01*
X54870357Y-46907428D01*
X54946547Y-46869333D01*
X52749404Y-46145523D02*
X51949404Y-46145523D01*
X51949404Y-46336000D01*
X51987500Y-46450285D01*
X52063690Y-46526476D01*
X52139880Y-46564571D01*
X52292261Y-46602666D01*
X52406547Y-46602666D01*
X52558928Y-46564571D01*
X52635119Y-46526476D01*
X52711309Y-46450285D01*
X52749404Y-46336000D01*
X52749404Y-46145523D01*
X51949404Y-46869333D02*
X51949404Y-47402666D01*
X52749404Y-47059809D01*
X50133214Y-46602666D02*
X50171309Y-46564571D01*
X50209404Y-46450285D01*
X50209404Y-46374095D01*
X50171309Y-46259809D01*
X50095119Y-46183619D01*
X50018928Y-46145523D01*
X49866547Y-46107428D01*
X49752261Y-46107428D01*
X49599880Y-46145523D01*
X49523690Y-46183619D01*
X49447500Y-46259809D01*
X49409404Y-46374095D01*
X49409404Y-46450285D01*
X49447500Y-46564571D01*
X49485595Y-46602666D01*
X49409404Y-47288380D02*
X49409404Y-47136000D01*
X49447500Y-47059809D01*
X49485595Y-47021714D01*
X49599880Y-46945523D01*
X49752261Y-46907428D01*
X50057023Y-46907428D01*
X50133214Y-46945523D01*
X50171309Y-46983619D01*
X50209404Y-47059809D01*
X50209404Y-47212190D01*
X50171309Y-47288380D01*
X50133214Y-47326476D01*
X50057023Y-47364571D01*
X49866547Y-47364571D01*
X49790357Y-47326476D01*
X49752261Y-47288380D01*
X49714166Y-47212190D01*
X49714166Y-47059809D01*
X49752261Y-46983619D01*
X49790357Y-46945523D01*
X49866547Y-46907428D01*
X47669404Y-46145523D02*
X46869404Y-46145523D01*
X46869404Y-46336000D01*
X46907500Y-46450285D01*
X46983690Y-46526476D01*
X47059880Y-46564571D01*
X47212261Y-46602666D01*
X47326547Y-46602666D01*
X47478928Y-46564571D01*
X47555119Y-46526476D01*
X47631309Y-46450285D01*
X47669404Y-46336000D01*
X47669404Y-46145523D01*
X47136071Y-47288380D02*
X47669404Y-47288380D01*
X46831309Y-47097904D02*
X47402738Y-46907428D01*
X47402738Y-47402666D01*
X36747500Y-46126476D02*
X36709404Y-46050285D01*
X36709404Y-45936000D01*
X36747500Y-45821714D01*
X36823690Y-45745523D01*
X36899880Y-45707428D01*
X37052261Y-45669333D01*
X37166547Y-45669333D01*
X37318928Y-45707428D01*
X37395119Y-45745523D01*
X37471309Y-45821714D01*
X37509404Y-45936000D01*
X37509404Y-46012190D01*
X37471309Y-46126476D01*
X37433214Y-46164571D01*
X37166547Y-46164571D01*
X37166547Y-46012190D01*
X37509404Y-46507428D02*
X36709404Y-46507428D01*
X37509404Y-46964571D01*
X36709404Y-46964571D01*
X37509404Y-47345523D02*
X36709404Y-47345523D01*
X36709404Y-47536000D01*
X36747500Y-47650285D01*
X36823690Y-47726476D01*
X36899880Y-47764571D01*
X37052261Y-47802666D01*
X37166547Y-47802666D01*
X37318928Y-47764571D01*
X37395119Y-47726476D01*
X37471309Y-47650285D01*
X37509404Y-47536000D01*
X37509404Y-47345523D01*
X39287500Y-46126476D02*
X39249404Y-46050285D01*
X39249404Y-45936000D01*
X39287500Y-45821714D01*
X39363690Y-45745523D01*
X39439880Y-45707428D01*
X39592261Y-45669333D01*
X39706547Y-45669333D01*
X39858928Y-45707428D01*
X39935119Y-45745523D01*
X40011309Y-45821714D01*
X40049404Y-45936000D01*
X40049404Y-46012190D01*
X40011309Y-46126476D01*
X39973214Y-46164571D01*
X39706547Y-46164571D01*
X39706547Y-46012190D01*
X40049404Y-46507428D02*
X39249404Y-46507428D01*
X40049404Y-46964571D01*
X39249404Y-46964571D01*
X40049404Y-47345523D02*
X39249404Y-47345523D01*
X39249404Y-47536000D01*
X39287500Y-47650285D01*
X39363690Y-47726476D01*
X39439880Y-47764571D01*
X39592261Y-47802666D01*
X39706547Y-47802666D01*
X39858928Y-47764571D01*
X39935119Y-47726476D01*
X40011309Y-47650285D01*
X40049404Y-47536000D01*
X40049404Y-47345523D01*
X42589404Y-46145523D02*
X41789404Y-46145523D01*
X41789404Y-46336000D01*
X41827500Y-46450285D01*
X41903690Y-46526476D01*
X41979880Y-46564571D01*
X42132261Y-46602666D01*
X42246547Y-46602666D01*
X42398928Y-46564571D01*
X42475119Y-46526476D01*
X42551309Y-46450285D01*
X42589404Y-46336000D01*
X42589404Y-46145523D01*
X42589404Y-47364571D02*
X42589404Y-46907428D01*
X42589404Y-47136000D02*
X41789404Y-47136000D01*
X41903690Y-47059809D01*
X41979880Y-46983619D01*
X42017976Y-46907428D01*
X45129404Y-46145523D02*
X44329404Y-46145523D01*
X44329404Y-46336000D01*
X44367500Y-46450285D01*
X44443690Y-46526476D01*
X44519880Y-46564571D01*
X44672261Y-46602666D01*
X44786547Y-46602666D01*
X44938928Y-46564571D01*
X45015119Y-46526476D01*
X45091309Y-46450285D01*
X45129404Y-46336000D01*
X45129404Y-46145523D01*
X44329404Y-47097904D02*
X44329404Y-47174095D01*
X44367500Y-47250285D01*
X44405595Y-47288380D01*
X44481785Y-47326476D01*
X44634166Y-47364571D01*
X44824642Y-47364571D01*
X44977023Y-47326476D01*
X45053214Y-47288380D01*
X45091309Y-47250285D01*
X45129404Y-47174095D01*
X45129404Y-47097904D01*
X45091309Y-47021714D01*
X45053214Y-46983619D01*
X44977023Y-46945523D01*
X44824642Y-46907428D01*
X44634166Y-46907428D01*
X44481785Y-46945523D01*
X44405595Y-46983619D01*
X44367500Y-47021714D01*
X44329404Y-47097904D01*
X34969404Y-46145523D02*
X34169404Y-46145523D01*
X34169404Y-46336000D01*
X34207500Y-46450285D01*
X34283690Y-46526476D01*
X34359880Y-46564571D01*
X34512261Y-46602666D01*
X34626547Y-46602666D01*
X34778928Y-46564571D01*
X34855119Y-46526476D01*
X34931309Y-46450285D01*
X34969404Y-46336000D01*
X34969404Y-46145523D01*
X34245595Y-46907428D02*
X34207500Y-46945523D01*
X34169404Y-47021714D01*
X34169404Y-47212190D01*
X34207500Y-47288380D01*
X34245595Y-47326476D01*
X34321785Y-47364571D01*
X34397976Y-47364571D01*
X34512261Y-47326476D01*
X34969404Y-46869333D01*
X34969404Y-47364571D01*
%TD*%
%LPC*%
D12*
%TO.C,U1*%
X32067500Y-33655000D03*
X60007500Y-48895000D03*
X34607500Y-33655000D03*
X37147500Y-33655000D03*
X39687500Y-33655000D03*
X42227500Y-33655000D03*
X44767500Y-33655000D03*
X47307500Y-33655000D03*
X49847500Y-33655000D03*
X52387500Y-33655000D03*
X54927500Y-33655000D03*
X57467500Y-33655000D03*
X60007500Y-33655000D03*
X57467500Y-48895000D03*
X54927500Y-48895000D03*
X52387500Y-48895000D03*
X49847500Y-48895000D03*
X47307500Y-48895000D03*
X44767500Y-48895000D03*
X42227500Y-48895000D03*
X39687500Y-48895000D03*
X37147500Y-48895000D03*
X34607500Y-48895000D03*
D13*
X32067500Y-48895000D03*
%TD*%
D14*
%TO.C,MX8*%
X110807500Y-67437000D03*
X110807500Y-91313000D03*
D15*
X126047500Y-67437000D03*
X126047500Y-91313000D03*
D16*
X119062500Y-84455000D03*
X119062500Y-74295000D03*
D17*
X121602500Y-75565000D03*
D14*
X119062500Y-79375000D03*
D17*
X124142500Y-81915000D03*
%TD*%
D14*
%TO.C,MX7*%
X110807500Y-29337000D03*
X110807500Y-53213000D03*
D15*
X126047500Y-29337000D03*
X126047500Y-53213000D03*
D16*
X119062500Y-46355000D03*
X119062500Y-36195000D03*
D17*
X121602500Y-37465000D03*
D14*
X119062500Y-41275000D03*
D17*
X124142500Y-43815000D03*
%TD*%
D14*
%TO.C,MX6*%
X98742500Y-91313000D03*
X98742500Y-67437000D03*
D15*
X83502500Y-91313000D03*
X83502500Y-67437000D03*
D16*
X90487500Y-74295000D03*
X90487500Y-84455000D03*
D17*
X87947500Y-83185000D03*
D14*
X90487500Y-79375000D03*
D17*
X85407500Y-76835000D03*
%TD*%
D14*
%TO.C,MX5*%
X98742500Y-53213000D03*
X98742500Y-29337000D03*
D15*
X83502500Y-53213000D03*
X83502500Y-29337000D03*
D16*
X90487500Y-36195000D03*
X90487500Y-46355000D03*
D17*
X87947500Y-45085000D03*
D14*
X90487500Y-41275000D03*
D17*
X85407500Y-38735000D03*
%TD*%
D14*
%TO.C,MX4*%
X58420000Y-67437000D03*
X58420000Y-91313000D03*
D15*
X73660000Y-67437000D03*
X73660000Y-91313000D03*
D16*
X66675000Y-84455000D03*
X66675000Y-74295000D03*
D17*
X69215000Y-75565000D03*
D14*
X66675000Y-79375000D03*
D17*
X71755000Y-81915000D03*
%TD*%
D14*
%TO.C,MX3*%
X58420000Y-29337000D03*
X58420000Y-53213000D03*
D15*
X73660000Y-29337000D03*
X73660000Y-53213000D03*
D16*
X66675000Y-46355000D03*
X66675000Y-36195000D03*
D17*
X69215000Y-37465000D03*
D14*
X66675000Y-41275000D03*
D17*
X71755000Y-43815000D03*
%TD*%
D14*
%TO.C,MX2*%
X46355000Y-91313000D03*
X46355000Y-67437000D03*
D15*
X31115000Y-91313000D03*
X31115000Y-67437000D03*
D16*
X38100000Y-74295000D03*
X38100000Y-84455000D03*
D17*
X35560000Y-83185000D03*
D14*
X38100000Y-79375000D03*
D17*
X33020000Y-76835000D03*
%TD*%
D14*
%TO.C,MX1*%
X46355000Y-53213000D03*
X46355000Y-29337000D03*
D15*
X31115000Y-53213000D03*
X31115000Y-29337000D03*
D16*
X38100000Y-36195000D03*
X38100000Y-46355000D03*
D17*
X35560000Y-45085000D03*
D14*
X38100000Y-41275000D03*
D17*
X33020000Y-38735000D03*
%TD*%
M02*
