%TF.GenerationSoftware,KiCad,Pcbnew,(5.1.9)-1*%
%TF.CreationDate,2021-04-18T19:10:53+08:00*%
%TF.ProjectId,ISOISOISO,49534f49-534f-4495-934f-2e6b69636164,rev?*%
%TF.SameCoordinates,Original*%
%TF.FileFunction,Legend,Top*%
%TF.FilePolarity,Positive*%
%FSLAX46Y46*%
G04 Gerber Fmt 4.6, Leading zero omitted, Abs format (unit mm)*
G04 Created by KiCad (PCBNEW (5.1.9)-1) date 2021-04-18 19:10:53*
%MOMM*%
%LPD*%
G01*
G04 APERTURE LIST*
%ADD10C,0.381000*%
%ADD11C,0.150000*%
%ADD12C,1.752600*%
%ADD13R,1.752600X1.752600*%
%ADD14C,3.987800*%
%ADD15C,3.048000*%
%ADD16C,1.750000*%
G04 APERTURE END LIST*
D10*
%TO.C,U1*%
X30797500Y-50165000D02*
X61277500Y-50165000D01*
X61277500Y-50165000D02*
X61277500Y-32385000D01*
X61277500Y-32385000D02*
X30797500Y-32385000D01*
X30797500Y-47625000D02*
X33337500Y-47625000D01*
X33337500Y-47625000D02*
X33337500Y-50165000D01*
D11*
G36*
X36676860Y-36343432D02*
G01*
X36976860Y-36343432D01*
X36976860Y-36443432D01*
X36676860Y-36443432D01*
X36676860Y-36343432D01*
G37*
X36676860Y-36343432D02*
X36976860Y-36343432D01*
X36976860Y-36443432D01*
X36676860Y-36443432D01*
X36676860Y-36343432D01*
G36*
X37076860Y-36543432D02*
G01*
X37176860Y-36543432D01*
X37176860Y-36643432D01*
X37076860Y-36643432D01*
X37076860Y-36543432D01*
G37*
X37076860Y-36543432D02*
X37176860Y-36543432D01*
X37176860Y-36643432D01*
X37076860Y-36643432D01*
X37076860Y-36543432D01*
G36*
X36676860Y-36343432D02*
G01*
X36776860Y-36343432D01*
X36776860Y-36843432D01*
X36676860Y-36843432D01*
X36676860Y-36343432D01*
G37*
X36676860Y-36343432D02*
X36776860Y-36343432D01*
X36776860Y-36843432D01*
X36676860Y-36843432D01*
X36676860Y-36343432D01*
G36*
X36676860Y-36743432D02*
G01*
X37476860Y-36743432D01*
X37476860Y-36843432D01*
X36676860Y-36843432D01*
X36676860Y-36743432D01*
G37*
X36676860Y-36743432D02*
X37476860Y-36743432D01*
X37476860Y-36843432D01*
X36676860Y-36843432D01*
X36676860Y-36743432D01*
G36*
X37276860Y-36343432D02*
G01*
X37476860Y-36343432D01*
X37476860Y-36443432D01*
X37276860Y-36443432D01*
X37276860Y-36343432D01*
G37*
X37276860Y-36343432D02*
X37476860Y-36343432D01*
X37476860Y-36443432D01*
X37276860Y-36443432D01*
X37276860Y-36343432D01*
D10*
X30797500Y-32385000D02*
X28257500Y-32385000D01*
X28257500Y-32385000D02*
X28257500Y-50165000D01*
X28257500Y-50165000D02*
X30797500Y-50165000D01*
X30797500Y-47625000D02*
X30797500Y-50165000D01*
D11*
X31629404Y-47037348D02*
X31629404Y-46580205D01*
X32429404Y-46808776D02*
X31629404Y-46808776D01*
X31629404Y-46389729D02*
X32429404Y-45856395D01*
X31629404Y-45856395D02*
X32429404Y-46389729D01*
X31629404Y-45399252D02*
X31629404Y-45323062D01*
X31667500Y-45246872D01*
X31705595Y-45208776D01*
X31781785Y-45170681D01*
X31934166Y-45132586D01*
X32124642Y-45132586D01*
X32277023Y-45170681D01*
X32353214Y-45208776D01*
X32391309Y-45246872D01*
X32429404Y-45323062D01*
X32429404Y-45399252D01*
X32391309Y-45475443D01*
X32353214Y-45513538D01*
X32277023Y-45551633D01*
X32124642Y-45589729D01*
X31934166Y-45589729D01*
X31781785Y-45551633D01*
X31705595Y-45513538D01*
X31667500Y-45475443D01*
X31629404Y-45399252D01*
X31591309Y-44218300D02*
X32619880Y-44904014D01*
X32429404Y-43951633D02*
X31629404Y-43951633D01*
X31629404Y-43761157D01*
X31667500Y-43646872D01*
X31743690Y-43570681D01*
X31819880Y-43532586D01*
X31972261Y-43494491D01*
X32086547Y-43494491D01*
X32238928Y-43532586D01*
X32315119Y-43570681D01*
X32391309Y-43646872D01*
X32429404Y-43761157D01*
X32429404Y-43951633D01*
X31629404Y-43227824D02*
X31629404Y-42732586D01*
X31934166Y-42999252D01*
X31934166Y-42884967D01*
X31972261Y-42808776D01*
X32010357Y-42770681D01*
X32086547Y-42732586D01*
X32277023Y-42732586D01*
X32353214Y-42770681D01*
X32391309Y-42808776D01*
X32429404Y-42884967D01*
X32429404Y-43113538D01*
X32391309Y-43189729D01*
X32353214Y-43227824D01*
X34969404Y-47326476D02*
X34169404Y-47326476D01*
X34169404Y-47136000D01*
X34207500Y-47021714D01*
X34283690Y-46945523D01*
X34359880Y-46907428D01*
X34512261Y-46869333D01*
X34626547Y-46869333D01*
X34778928Y-46907428D01*
X34855119Y-46945523D01*
X34931309Y-47021714D01*
X34969404Y-47136000D01*
X34969404Y-47326476D01*
X34245595Y-46564571D02*
X34207500Y-46526476D01*
X34169404Y-46450285D01*
X34169404Y-46259809D01*
X34207500Y-46183619D01*
X34245595Y-46145523D01*
X34321785Y-46107428D01*
X34397976Y-46107428D01*
X34512261Y-46145523D01*
X34969404Y-46602666D01*
X34969404Y-46107428D01*
X45129404Y-47326476D02*
X44329404Y-47326476D01*
X44329404Y-47136000D01*
X44367500Y-47021714D01*
X44443690Y-46945523D01*
X44519880Y-46907428D01*
X44672261Y-46869333D01*
X44786547Y-46869333D01*
X44938928Y-46907428D01*
X45015119Y-46945523D01*
X45091309Y-47021714D01*
X45129404Y-47136000D01*
X45129404Y-47326476D01*
X44329404Y-46374095D02*
X44329404Y-46297904D01*
X44367500Y-46221714D01*
X44405595Y-46183619D01*
X44481785Y-46145523D01*
X44634166Y-46107428D01*
X44824642Y-46107428D01*
X44977023Y-46145523D01*
X45053214Y-46183619D01*
X45091309Y-46221714D01*
X45129404Y-46297904D01*
X45129404Y-46374095D01*
X45091309Y-46450285D01*
X45053214Y-46488380D01*
X44977023Y-46526476D01*
X44824642Y-46564571D01*
X44634166Y-46564571D01*
X44481785Y-46526476D01*
X44405595Y-46488380D01*
X44367500Y-46450285D01*
X44329404Y-46374095D01*
X42589404Y-47326476D02*
X41789404Y-47326476D01*
X41789404Y-47136000D01*
X41827500Y-47021714D01*
X41903690Y-46945523D01*
X41979880Y-46907428D01*
X42132261Y-46869333D01*
X42246547Y-46869333D01*
X42398928Y-46907428D01*
X42475119Y-46945523D01*
X42551309Y-47021714D01*
X42589404Y-47136000D01*
X42589404Y-47326476D01*
X42589404Y-46107428D02*
X42589404Y-46564571D01*
X42589404Y-46336000D02*
X41789404Y-46336000D01*
X41903690Y-46412190D01*
X41979880Y-46488380D01*
X42017976Y-46564571D01*
X39287500Y-47345523D02*
X39249404Y-47421714D01*
X39249404Y-47536000D01*
X39287500Y-47650285D01*
X39363690Y-47726476D01*
X39439880Y-47764571D01*
X39592261Y-47802666D01*
X39706547Y-47802666D01*
X39858928Y-47764571D01*
X39935119Y-47726476D01*
X40011309Y-47650285D01*
X40049404Y-47536000D01*
X40049404Y-47459809D01*
X40011309Y-47345523D01*
X39973214Y-47307428D01*
X39706547Y-47307428D01*
X39706547Y-47459809D01*
X40049404Y-46964571D02*
X39249404Y-46964571D01*
X40049404Y-46507428D01*
X39249404Y-46507428D01*
X40049404Y-46126476D02*
X39249404Y-46126476D01*
X39249404Y-45936000D01*
X39287500Y-45821714D01*
X39363690Y-45745523D01*
X39439880Y-45707428D01*
X39592261Y-45669333D01*
X39706547Y-45669333D01*
X39858928Y-45707428D01*
X39935119Y-45745523D01*
X40011309Y-45821714D01*
X40049404Y-45936000D01*
X40049404Y-46126476D01*
X36747500Y-47345523D02*
X36709404Y-47421714D01*
X36709404Y-47536000D01*
X36747500Y-47650285D01*
X36823690Y-47726476D01*
X36899880Y-47764571D01*
X37052261Y-47802666D01*
X37166547Y-47802666D01*
X37318928Y-47764571D01*
X37395119Y-47726476D01*
X37471309Y-47650285D01*
X37509404Y-47536000D01*
X37509404Y-47459809D01*
X37471309Y-47345523D01*
X37433214Y-47307428D01*
X37166547Y-47307428D01*
X37166547Y-47459809D01*
X37509404Y-46964571D02*
X36709404Y-46964571D01*
X37509404Y-46507428D01*
X36709404Y-46507428D01*
X37509404Y-46126476D02*
X36709404Y-46126476D01*
X36709404Y-45936000D01*
X36747500Y-45821714D01*
X36823690Y-45745523D01*
X36899880Y-45707428D01*
X37052261Y-45669333D01*
X37166547Y-45669333D01*
X37318928Y-45707428D01*
X37395119Y-45745523D01*
X37471309Y-45821714D01*
X37509404Y-45936000D01*
X37509404Y-46126476D01*
X47669404Y-47326476D02*
X46869404Y-47326476D01*
X46869404Y-47136000D01*
X46907500Y-47021714D01*
X46983690Y-46945523D01*
X47059880Y-46907428D01*
X47212261Y-46869333D01*
X47326547Y-46869333D01*
X47478928Y-46907428D01*
X47555119Y-46945523D01*
X47631309Y-47021714D01*
X47669404Y-47136000D01*
X47669404Y-47326476D01*
X47136071Y-46183619D02*
X47669404Y-46183619D01*
X46831309Y-46374095D02*
X47402738Y-46564571D01*
X47402738Y-46069333D01*
X50133214Y-46869333D02*
X50171309Y-46907428D01*
X50209404Y-47021714D01*
X50209404Y-47097904D01*
X50171309Y-47212190D01*
X50095119Y-47288380D01*
X50018928Y-47326476D01*
X49866547Y-47364571D01*
X49752261Y-47364571D01*
X49599880Y-47326476D01*
X49523690Y-47288380D01*
X49447500Y-47212190D01*
X49409404Y-47097904D01*
X49409404Y-47021714D01*
X49447500Y-46907428D01*
X49485595Y-46869333D01*
X49409404Y-46183619D02*
X49409404Y-46336000D01*
X49447500Y-46412190D01*
X49485595Y-46450285D01*
X49599880Y-46526476D01*
X49752261Y-46564571D01*
X50057023Y-46564571D01*
X50133214Y-46526476D01*
X50171309Y-46488380D01*
X50209404Y-46412190D01*
X50209404Y-46259809D01*
X50171309Y-46183619D01*
X50133214Y-46145523D01*
X50057023Y-46107428D01*
X49866547Y-46107428D01*
X49790357Y-46145523D01*
X49752261Y-46183619D01*
X49714166Y-46259809D01*
X49714166Y-46412190D01*
X49752261Y-46488380D01*
X49790357Y-46526476D01*
X49866547Y-46564571D01*
X52749404Y-47326476D02*
X51949404Y-47326476D01*
X51949404Y-47136000D01*
X51987500Y-47021714D01*
X52063690Y-46945523D01*
X52139880Y-46907428D01*
X52292261Y-46869333D01*
X52406547Y-46869333D01*
X52558928Y-46907428D01*
X52635119Y-46945523D01*
X52711309Y-47021714D01*
X52749404Y-47136000D01*
X52749404Y-47326476D01*
X51949404Y-46602666D02*
X51949404Y-46069333D01*
X52749404Y-46412190D01*
X54870357Y-47288380D02*
X54870357Y-47021714D01*
X55289404Y-46907428D02*
X55289404Y-47288380D01*
X54489404Y-47288380D01*
X54489404Y-46907428D01*
X54489404Y-46221714D02*
X54489404Y-46374095D01*
X54527500Y-46450285D01*
X54565595Y-46488380D01*
X54679880Y-46564571D01*
X54832261Y-46602666D01*
X55137023Y-46602666D01*
X55213214Y-46564571D01*
X55251309Y-46526476D01*
X55289404Y-46450285D01*
X55289404Y-46297904D01*
X55251309Y-46221714D01*
X55213214Y-46183619D01*
X55137023Y-46145523D01*
X54946547Y-46145523D01*
X54870357Y-46183619D01*
X54832261Y-46221714D01*
X54794166Y-46297904D01*
X54794166Y-46450285D01*
X54832261Y-46526476D01*
X54870357Y-46564571D01*
X54946547Y-46602666D01*
X57410357Y-47059809D02*
X57448452Y-46945523D01*
X57486547Y-46907428D01*
X57562738Y-46869333D01*
X57677023Y-46869333D01*
X57753214Y-46907428D01*
X57791309Y-46945523D01*
X57829404Y-47021714D01*
X57829404Y-47326476D01*
X57029404Y-47326476D01*
X57029404Y-47059809D01*
X57067500Y-46983619D01*
X57105595Y-46945523D01*
X57181785Y-46907428D01*
X57257976Y-46907428D01*
X57334166Y-46945523D01*
X57372261Y-46983619D01*
X57410357Y-47059809D01*
X57410357Y-47326476D01*
X57296071Y-46183619D02*
X57829404Y-46183619D01*
X56991309Y-46374095D02*
X57562738Y-46564571D01*
X57562738Y-46069333D01*
X59950357Y-47059809D02*
X59988452Y-46945523D01*
X60026547Y-46907428D01*
X60102738Y-46869333D01*
X60217023Y-46869333D01*
X60293214Y-46907428D01*
X60331309Y-46945523D01*
X60369404Y-47021714D01*
X60369404Y-47326476D01*
X59569404Y-47326476D01*
X59569404Y-47059809D01*
X59607500Y-46983619D01*
X59645595Y-46945523D01*
X59721785Y-46907428D01*
X59797976Y-46907428D01*
X59874166Y-46945523D01*
X59912261Y-46983619D01*
X59950357Y-47059809D01*
X59950357Y-47326476D01*
X59569404Y-46145523D02*
X59569404Y-46526476D01*
X59950357Y-46564571D01*
X59912261Y-46526476D01*
X59874166Y-46450285D01*
X59874166Y-46259809D01*
X59912261Y-46183619D01*
X59950357Y-46145523D01*
X60026547Y-46107428D01*
X60217023Y-46107428D01*
X60293214Y-46145523D01*
X60331309Y-46183619D01*
X60369404Y-46259809D01*
X60369404Y-46450285D01*
X60331309Y-46526476D01*
X60293214Y-46564571D01*
X59950357Y-36137809D02*
X59988452Y-36023523D01*
X60026547Y-35985428D01*
X60102738Y-35947333D01*
X60217023Y-35947333D01*
X60293214Y-35985428D01*
X60331309Y-36023523D01*
X60369404Y-36099714D01*
X60369404Y-36404476D01*
X59569404Y-36404476D01*
X59569404Y-36137809D01*
X59607500Y-36061619D01*
X59645595Y-36023523D01*
X59721785Y-35985428D01*
X59797976Y-35985428D01*
X59874166Y-36023523D01*
X59912261Y-36061619D01*
X59950357Y-36137809D01*
X59950357Y-36404476D01*
X59569404Y-35261619D02*
X59569404Y-35414000D01*
X59607500Y-35490190D01*
X59645595Y-35528285D01*
X59759880Y-35604476D01*
X59912261Y-35642571D01*
X60217023Y-35642571D01*
X60293214Y-35604476D01*
X60331309Y-35566380D01*
X60369404Y-35490190D01*
X60369404Y-35337809D01*
X60331309Y-35261619D01*
X60293214Y-35223523D01*
X60217023Y-35185428D01*
X60026547Y-35185428D01*
X59950357Y-35223523D01*
X59912261Y-35261619D01*
X59874166Y-35337809D01*
X59874166Y-35490190D01*
X59912261Y-35566380D01*
X59950357Y-35604476D01*
X60026547Y-35642571D01*
X54870357Y-36137809D02*
X54908452Y-36023523D01*
X54946547Y-35985428D01*
X55022738Y-35947333D01*
X55137023Y-35947333D01*
X55213214Y-35985428D01*
X55251309Y-36023523D01*
X55289404Y-36099714D01*
X55289404Y-36404476D01*
X54489404Y-36404476D01*
X54489404Y-36137809D01*
X54527500Y-36061619D01*
X54565595Y-36023523D01*
X54641785Y-35985428D01*
X54717976Y-35985428D01*
X54794166Y-36023523D01*
X54832261Y-36061619D01*
X54870357Y-36137809D01*
X54870357Y-36404476D01*
X54489404Y-35680666D02*
X54489404Y-35185428D01*
X54794166Y-35452095D01*
X54794166Y-35337809D01*
X54832261Y-35261619D01*
X54870357Y-35223523D01*
X54946547Y-35185428D01*
X55137023Y-35185428D01*
X55213214Y-35223523D01*
X55251309Y-35261619D01*
X55289404Y-35337809D01*
X55289404Y-35566380D01*
X55251309Y-35642571D01*
X55213214Y-35680666D01*
X52330357Y-36137809D02*
X52368452Y-36023523D01*
X52406547Y-35985428D01*
X52482738Y-35947333D01*
X52597023Y-35947333D01*
X52673214Y-35985428D01*
X52711309Y-36023523D01*
X52749404Y-36099714D01*
X52749404Y-36404476D01*
X51949404Y-36404476D01*
X51949404Y-36137809D01*
X51987500Y-36061619D01*
X52025595Y-36023523D01*
X52101785Y-35985428D01*
X52177976Y-35985428D01*
X52254166Y-36023523D01*
X52292261Y-36061619D01*
X52330357Y-36137809D01*
X52330357Y-36404476D01*
X52749404Y-35185428D02*
X52749404Y-35642571D01*
X52749404Y-35414000D02*
X51949404Y-35414000D01*
X52063690Y-35490190D01*
X52139880Y-35566380D01*
X52177976Y-35642571D01*
X42170357Y-36080666D02*
X42170357Y-36347333D01*
X42589404Y-36347333D02*
X41789404Y-36347333D01*
X41789404Y-35966380D01*
X42056071Y-35318761D02*
X42589404Y-35318761D01*
X41751309Y-35509238D02*
X42322738Y-35699714D01*
X42322738Y-35204476D01*
X39249404Y-36880666D02*
X40049404Y-36614000D01*
X39249404Y-36347333D01*
X39973214Y-35623523D02*
X40011309Y-35661619D01*
X40049404Y-35775904D01*
X40049404Y-35852095D01*
X40011309Y-35966380D01*
X39935119Y-36042571D01*
X39858928Y-36080666D01*
X39706547Y-36118761D01*
X39592261Y-36118761D01*
X39439880Y-36080666D01*
X39363690Y-36042571D01*
X39287500Y-35966380D01*
X39249404Y-35852095D01*
X39249404Y-35775904D01*
X39287500Y-35661619D01*
X39325595Y-35623523D01*
X39973214Y-34823523D02*
X40011309Y-34861619D01*
X40049404Y-34975904D01*
X40049404Y-35052095D01*
X40011309Y-35166380D01*
X39935119Y-35242571D01*
X39858928Y-35280666D01*
X39706547Y-35318761D01*
X39592261Y-35318761D01*
X39439880Y-35280666D01*
X39363690Y-35242571D01*
X39287500Y-35166380D01*
X39249404Y-35052095D01*
X39249404Y-34975904D01*
X39287500Y-34861619D01*
X39325595Y-34823523D01*
X37441309Y-36075213D02*
X37479404Y-35960927D01*
X37479404Y-35770451D01*
X37441309Y-35694260D01*
X37403214Y-35656165D01*
X37327023Y-35618070D01*
X37250833Y-35618070D01*
X37174642Y-35656165D01*
X37136547Y-35694260D01*
X37098452Y-35770451D01*
X37060357Y-35922832D01*
X37022261Y-35999022D01*
X36984166Y-36037118D01*
X36907976Y-36075213D01*
X36831785Y-36075213D01*
X36755595Y-36037118D01*
X36717500Y-35999022D01*
X36679404Y-35922832D01*
X36679404Y-35732356D01*
X36717500Y-35618070D01*
X36679404Y-35389499D02*
X36679404Y-34932356D01*
X37479404Y-35160927D02*
X36679404Y-35160927D01*
X34207500Y-36423523D02*
X34169404Y-36499714D01*
X34169404Y-36614000D01*
X34207500Y-36728285D01*
X34283690Y-36804476D01*
X34359880Y-36842571D01*
X34512261Y-36880666D01*
X34626547Y-36880666D01*
X34778928Y-36842571D01*
X34855119Y-36804476D01*
X34931309Y-36728285D01*
X34969404Y-36614000D01*
X34969404Y-36537809D01*
X34931309Y-36423523D01*
X34893214Y-36385428D01*
X34626547Y-36385428D01*
X34626547Y-36537809D01*
X34969404Y-36042571D02*
X34169404Y-36042571D01*
X34969404Y-35585428D01*
X34169404Y-35585428D01*
X34969404Y-35204476D02*
X34169404Y-35204476D01*
X34169404Y-35014000D01*
X34207500Y-34899714D01*
X34283690Y-34823523D01*
X34359880Y-34785428D01*
X34512261Y-34747333D01*
X34626547Y-34747333D01*
X34778928Y-34785428D01*
X34855119Y-34823523D01*
X34931309Y-34899714D01*
X34969404Y-35014000D01*
X34969404Y-35204476D01*
X32429404Y-36366380D02*
X32048452Y-36633047D01*
X32429404Y-36823523D02*
X31629404Y-36823523D01*
X31629404Y-36518761D01*
X31667500Y-36442571D01*
X31705595Y-36404476D01*
X31781785Y-36366380D01*
X31896071Y-36366380D01*
X31972261Y-36404476D01*
X32010357Y-36442571D01*
X32048452Y-36518761D01*
X32048452Y-36823523D01*
X32200833Y-36061619D02*
X32200833Y-35680666D01*
X32429404Y-36137809D02*
X31629404Y-35871142D01*
X32429404Y-35604476D01*
X31629404Y-35414000D02*
X32429404Y-35223523D01*
X31857976Y-35071142D01*
X32429404Y-34918761D01*
X31629404Y-34728285D01*
X44710357Y-36080666D02*
X44710357Y-36347333D01*
X45129404Y-36347333D02*
X44329404Y-36347333D01*
X44329404Y-35966380D01*
X44329404Y-35280666D02*
X44329404Y-35661619D01*
X44710357Y-35699714D01*
X44672261Y-35661619D01*
X44634166Y-35585428D01*
X44634166Y-35394952D01*
X44672261Y-35318761D01*
X44710357Y-35280666D01*
X44786547Y-35242571D01*
X44977023Y-35242571D01*
X45053214Y-35280666D01*
X45091309Y-35318761D01*
X45129404Y-35394952D01*
X45129404Y-35585428D01*
X45091309Y-35661619D01*
X45053214Y-35699714D01*
X47250357Y-36080666D02*
X47250357Y-36347333D01*
X47669404Y-36347333D02*
X46869404Y-36347333D01*
X46869404Y-35966380D01*
X46869404Y-35318761D02*
X46869404Y-35471142D01*
X46907500Y-35547333D01*
X46945595Y-35585428D01*
X47059880Y-35661619D01*
X47212261Y-35699714D01*
X47517023Y-35699714D01*
X47593214Y-35661619D01*
X47631309Y-35623523D01*
X47669404Y-35547333D01*
X47669404Y-35394952D01*
X47631309Y-35318761D01*
X47593214Y-35280666D01*
X47517023Y-35242571D01*
X47326547Y-35242571D01*
X47250357Y-35280666D01*
X47212261Y-35318761D01*
X47174166Y-35394952D01*
X47174166Y-35547333D01*
X47212261Y-35623523D01*
X47250357Y-35661619D01*
X47326547Y-35699714D01*
X49790357Y-36080666D02*
X49790357Y-36347333D01*
X50209404Y-36347333D02*
X49409404Y-36347333D01*
X49409404Y-35966380D01*
X49409404Y-35737809D02*
X49409404Y-35204476D01*
X50209404Y-35547333D01*
X57410357Y-36137809D02*
X57448452Y-36023523D01*
X57486547Y-35985428D01*
X57562738Y-35947333D01*
X57677023Y-35947333D01*
X57753214Y-35985428D01*
X57791309Y-36023523D01*
X57829404Y-36099714D01*
X57829404Y-36404476D01*
X57029404Y-36404476D01*
X57029404Y-36137809D01*
X57067500Y-36061619D01*
X57105595Y-36023523D01*
X57181785Y-35985428D01*
X57257976Y-35985428D01*
X57334166Y-36023523D01*
X57372261Y-36061619D01*
X57410357Y-36137809D01*
X57410357Y-36404476D01*
X57105595Y-35642571D02*
X57067500Y-35604476D01*
X57029404Y-35528285D01*
X57029404Y-35337809D01*
X57067500Y-35261619D01*
X57105595Y-35223523D01*
X57181785Y-35185428D01*
X57257976Y-35185428D01*
X57372261Y-35223523D01*
X57829404Y-35680666D01*
X57829404Y-35185428D01*
%TD*%
%LPC*%
D12*
%TO.C,U1*%
X32067500Y-33655000D03*
X60007500Y-48895000D03*
X34607500Y-33655000D03*
X37147500Y-33655000D03*
X39687500Y-33655000D03*
X42227500Y-33655000D03*
X44767500Y-33655000D03*
X47307500Y-33655000D03*
X49847500Y-33655000D03*
X52387500Y-33655000D03*
X54927500Y-33655000D03*
X57467500Y-33655000D03*
X60007500Y-33655000D03*
X57467500Y-48895000D03*
X54927500Y-48895000D03*
X52387500Y-48895000D03*
X49847500Y-48895000D03*
X47307500Y-48895000D03*
X44767500Y-48895000D03*
X42227500Y-48895000D03*
X39687500Y-48895000D03*
X37147500Y-48895000D03*
X34607500Y-48895000D03*
D13*
X32067500Y-48895000D03*
%TD*%
D14*
%TO.C,MX8*%
X110807500Y-67437000D03*
X110807500Y-91313000D03*
D15*
X126047500Y-67437000D03*
X126047500Y-91313000D03*
D16*
X119062500Y-84455000D03*
X119062500Y-74295000D03*
D14*
X119062500Y-79375000D03*
%TD*%
%TO.C,MX7*%
X110807500Y-29337000D03*
X110807500Y-53213000D03*
D15*
X126047500Y-29337000D03*
X126047500Y-53213000D03*
D16*
X119062500Y-46355000D03*
X119062500Y-36195000D03*
D14*
X119062500Y-41275000D03*
%TD*%
%TO.C,MX6*%
X98742500Y-91313000D03*
X98742500Y-67437000D03*
D15*
X83502500Y-91313000D03*
X83502500Y-67437000D03*
D16*
X90487500Y-74295000D03*
X90487500Y-84455000D03*
D14*
X90487500Y-79375000D03*
%TD*%
%TO.C,MX5*%
X98742500Y-53213000D03*
X98742500Y-29337000D03*
D15*
X83502500Y-53213000D03*
X83502500Y-29337000D03*
D16*
X90487500Y-36195000D03*
X90487500Y-46355000D03*
D14*
X90487500Y-41275000D03*
%TD*%
%TO.C,MX4*%
X58420000Y-67437000D03*
X58420000Y-91313000D03*
D15*
X73660000Y-67437000D03*
X73660000Y-91313000D03*
D16*
X66675000Y-84455000D03*
X66675000Y-74295000D03*
D14*
X66675000Y-79375000D03*
%TD*%
%TO.C,MX3*%
X58420000Y-29337000D03*
X58420000Y-53213000D03*
D15*
X73660000Y-29337000D03*
X73660000Y-53213000D03*
D16*
X66675000Y-46355000D03*
X66675000Y-36195000D03*
D14*
X66675000Y-41275000D03*
%TD*%
%TO.C,MX2*%
X46355000Y-91313000D03*
X46355000Y-67437000D03*
D15*
X31115000Y-91313000D03*
X31115000Y-67437000D03*
D16*
X38100000Y-74295000D03*
X38100000Y-84455000D03*
D14*
X38100000Y-79375000D03*
%TD*%
%TO.C,MX1*%
X46355000Y-53213000D03*
X46355000Y-29337000D03*
D15*
X31115000Y-53213000D03*
X31115000Y-29337000D03*
D16*
X38100000Y-36195000D03*
X38100000Y-46355000D03*
D14*
X38100000Y-41275000D03*
%TD*%
M02*
