M48
; DRILL file {KiCad (5.1.9)-1} date 04/18/21 19:11:11
; FORMAT={-:-/ absolute / metric / decimal}
; #@! TF.CreationDate,2021-04-18T19:11:11+08:00
; #@! TF.GenerationSoftware,Kicad,Pcbnew,(5.1.9)-1
; #@! TF.FileFunction,NonPlated,1,2,NPTH
FMAT,2
METRIC
T1C1.750
T2C3.048
T3C3.988
%
G90
G05
T1
X38.1Y-36.195
X38.1Y-46.355
X38.1Y-74.295
X38.1Y-84.455
X66.675Y-36.195
X66.675Y-46.355
X66.675Y-74.295
X66.675Y-84.455
X90.487Y-36.195
X90.487Y-46.355
X90.487Y-74.295
X90.487Y-84.455
X119.062Y-36.195
X119.062Y-46.355
X119.062Y-74.295
X119.062Y-84.455
T2
X31.115Y-29.337
X31.115Y-53.213
X31.115Y-67.437
X31.115Y-91.313
X73.66Y-29.337
X73.66Y-53.213
X73.66Y-67.437
X73.66Y-91.313
X83.502Y-29.337
X83.502Y-53.213
X83.502Y-67.437
X83.502Y-91.313
X126.047Y-29.337
X126.047Y-53.213
X126.047Y-67.437
X126.047Y-91.313
T3
X38.1Y-41.275
X38.1Y-79.375
X46.355Y-29.337
X46.355Y-53.213
X46.355Y-67.437
X46.355Y-91.313
X58.42Y-29.337
X58.42Y-53.213
X58.42Y-67.437
X58.42Y-91.313
X66.675Y-41.275
X66.675Y-79.375
X90.487Y-41.275
X90.487Y-79.375
X98.742Y-29.337
X98.742Y-53.213
X98.742Y-67.437
X98.742Y-91.313
X110.807Y-29.337
X110.807Y-53.213
X110.807Y-67.437
X110.807Y-91.313
X119.062Y-41.275
X119.062Y-79.375
T0
M30
