M48
; DRILL file {KiCad (5.1.9)-1} date 04/18/21 19:11:11
; FORMAT={-:-/ absolute / metric / decimal}
; #@! TF.CreationDate,2021-04-18T19:11:11+08:00
; #@! TF.GenerationSoftware,Kicad,Pcbnew,(5.1.9)-1
; #@! TF.FileFunction,Plated,1,2,PTH
FMAT,2
METRIC
T1C1.092
T2C1.470
%
G90
G05
T1
X32.067Y-33.655
X32.067Y-48.895
X34.608Y-33.655
X34.608Y-48.895
X37.148Y-33.655
X37.148Y-48.895
X39.688Y-33.655
X39.688Y-48.895
X42.227Y-33.655
X42.227Y-48.895
X44.767Y-33.655
X44.767Y-48.895
X47.307Y-33.655
X47.307Y-48.895
X49.847Y-33.655
X49.847Y-48.895
X52.387Y-33.655
X52.387Y-48.895
X54.927Y-33.655
X54.927Y-48.895
X57.467Y-33.655
X57.467Y-48.895
X60.008Y-33.655
X60.008Y-48.895
T2
X33.02Y-38.735
X33.02Y-76.835
X35.56Y-45.085
X35.56Y-83.185
X69.215Y-37.465
X69.215Y-75.565
X71.755Y-43.815
X71.755Y-81.915
X85.407Y-38.735
X85.407Y-76.835
X87.947Y-45.085
X87.947Y-83.185
X121.602Y-37.465
X121.602Y-75.565
X124.142Y-43.815
X124.142Y-81.915
T0
M30
